<svg width="106" height="58" viewBox="0 0 106 58" fill="none" xmlns="http://www.w3.org/2000/svg">
<g clip-path="url(#clip0_2_552)">
<path d="M5.87413 56.3235V31.0608C5.62803 31.002 5.38936 30.9159 5.16275 30.804C4.72358 30.5191 4.51988 29.9244 4.92899 29.7041C5.78727 29.2402 5.40652 28.4815 5.64029 27.8818C5.95817 27.0775 6.39369 26.324 6.93277 25.6454C7.3352 25.1485 7.93463 24.7857 8.48567 24.4014C9.17697 23.9044 9.79988 23.4488 9.68299 22.4267C9.65461 22.1782 10.2123 21.8651 10.4995 21.5819C10.7666 21.8784 11.271 22.1882 11.2559 22.4698C11.2092 23.2848 11.5665 23.7271 12.2061 24.1264C12.8456 24.5256 13.4601 25.0391 14.0946 25.4897C15.1516 26.2402 15.6425 27.2672 15.6125 28.5428C15.6041 28.9354 15.5791 29.2501 16.05 29.4688C16.2587 29.5666 16.4825 30.1149 16.384 30.2789C16.1769 30.635 15.7678 30.8752 15.3153 31.2728V35.1674H27.2628V31.3573C26.7618 30.8719 26.2308 30.5771 26.119 30.1679C26.0421 29.8846 26.5498 29.4456 26.8938 29.1309C26.7468 27.3451 27.5617 26.0381 29.0495 25.0541C29.4419 24.794 29.7826 24.4577 30.1733 24.1959C30.7578 23.8033 31.1618 23.3677 31.065 22.5791C30.9965 22.0225 31.3104 21.5852 31.9349 21.61C32.5077 21.6365 32.7698 22.0639 32.708 22.5924C32.6246 23.3014 32.9452 23.7072 33.5163 24.0634C34.1742 24.4742 34.772 24.9778 35.4098 25.4218C36.5253 26.1987 37.0446 27.2589 37.0179 28.6041C37.0179 28.836 36.9945 29.1359 37.123 29.2932C37.9713 30.3385 37.9296 30.5887 36.7256 31.079V32.2568C36.9691 32.1548 37.2071 32.0404 37.4387 31.9139C37.7893 31.6903 38.1066 31.3971 38.4706 31.2148C40.072 30.4247 40.9653 29.3313 40.6747 27.3948C40.5078 26.3313 41.2558 25.5013 42.2477 25.0756C42.7486 24.8602 42.9157 24.6035 42.8639 24.0966C42.8238 23.6874 42.8639 23.2683 42.8639 22.8558C42.8639 21.7078 42.8639 20.7022 41.9355 19.6586C40.3892 17.9142 40.2022 15.6629 41.0438 13.4928C41.4055 12.5447 41.5708 11.5339 41.5297 10.5209C41.5297 10.2178 41.5297 9.9146 41.5297 9.60979C41.5297 9.01177 41.7317 8.5231 42.3963 8.52972C43.0092 8.52972 43.2313 8.98031 43.2012 9.56342C43.1895 9.77547 43.2196 9.98916 43.2379 10.3304C44.1864 9.75227 45.0513 9.22712 45.9096 8.69868C47.1169 7.95984 48.3025 7.18458 49.5365 6.49379C50.1042 6.17407 50.2979 5.79305 50.2578 5.16853C50.2061 4.37006 50.2295 3.56662 50.2495 2.76649C50.2913 1.06519 51.3633 0 53.013 0C54.6628 0 55.7365 1.06353 55.7766 2.76483C55.7983 3.67595 55.7549 4.58707 55.7983 5.49818C55.81 5.75827 55.9536 6.11774 56.1556 6.2453C58.3097 7.60369 60.4888 8.92564 62.7698 10.3221C62.7932 9.9759 62.8266 9.71914 62.8249 9.46238C62.8249 8.9008 63.0854 8.52806 63.6481 8.52806C64.2108 8.52806 64.483 8.92397 64.483 9.46401C64.4964 10.1548 64.4496 10.8473 64.5014 11.5331C64.533 12.0199 64.6389 12.4991 64.8153 12.9544C65.7888 15.3366 65.7153 17.6906 64.0872 19.6818C63.2523 20.6973 63.1137 21.6465 63.1622 22.7928C63.1922 23.4555 63.1622 24.1181 63.1622 24.8089C64.9756 25.3704 65.5851 26.6725 65.3764 28.407C65.2578 29.3843 65.6051 29.9956 66.46 30.4777C67.3868 31.0012 68.2351 31.6555 69.2637 32.3513V31.3573C68.7861 30.8868 68.2618 30.5738 68.1082 30.1348C68.0247 29.8929 68.5724 29.4373 68.9314 29.1408C68.7227 27.3004 69.6093 26.0033 71.1205 25.0093C71.4662 24.7807 71.7568 24.4693 72.1074 24.2473C72.7586 23.8348 73.1777 23.3577 73.0658 22.5046C72.994 21.9596 73.3999 21.5355 73.9192 21.6415C74.2314 21.7044 74.689 22.2147 74.6739 22.5013C74.6272 23.3196 75.0079 23.757 75.6324 24.1578C76.2853 24.577 76.8914 25.069 77.5243 25.5179C78.5846 26.2716 79.0071 27.3186 79.0606 28.5809C79.0944 28.9263 79.2356 29.2528 79.4646 29.5152C79.984 30.1182 79.7635 30.6533 78.7449 31.0889V35.189H90.6958V31.3573C90.1848 30.8786 89.6488 30.5903 89.5186 30.1762C89.4351 29.9144 89.9528 29.4655 90.3084 29.159C90.1214 27.2805 91.0498 25.9751 92.5777 24.9679C92.9718 24.7078 93.3107 24.3699 93.7015 24.1081C94.2174 23.7603 94.5364 23.3677 94.4579 22.6818C94.3861 22.0937 94.6633 21.6001 95.3246 21.6167C95.9391 21.6316 96.1811 22.0921 96.1093 22.6636C96.0375 23.2351 96.2763 23.6344 96.7672 23.9574C97.532 24.4544 98.2551 25.0242 98.9964 25.561C99.3928 25.8452 99.724 26.2094 99.9683 26.6297C100.213 27.05 100.365 27.5168 100.414 27.9994C100.493 28.6157 100.301 29.2352 100.99 29.7455C101.461 30.0917 101.049 30.7129 100.14 31.0707V56.3318H104.482C104.759 56.3318 105.096 56.2457 105.302 56.3683C105.596 56.5439 105.97 56.8752 105.981 57.1452C105.993 57.4152 105.601 57.7283 105.33 57.9553C105.213 58.0514 104.954 57.9868 104.759 57.9868H7.74265C5.54517 57.9868 3.34598 57.9868 1.1485 57.9868C0.518978 57.9868 -0.0303918 57.8559 -0.0203729 57.1402C-0.010354 56.4246 0.55574 56.312 1.17524 56.312C2.72316 56.3335 4.25107 56.3235 5.87413 56.3235ZM55.6814 18.885C57.9657 18.885 60.1048 18.9048 62.2421 18.8601C62.516 18.8601 62.8833 18.5669 63.0386 18.3085C64.4496 15.9628 63.7065 12.9428 61.3387 11.4138C60.058 10.5855 58.667 9.90964 57.4631 8.99189C55.7332 7.66663 53.8546 7.15309 51.7223 7.43471C51.3965 7.45358 51.0776 7.53577 50.7838 7.67658C48.7416 8.9041 46.7012 10.1382 44.6907 11.4171C43.7509 11.9988 43.0271 12.8675 42.628 13.8926C42.229 14.9176 42.1764 16.0436 42.4782 17.1008C42.9207 18.7226 43.1211 18.8816 44.7909 18.8866C46.616 18.8866 48.4428 18.8866 50.348 18.8866C50.348 18.3532 50.358 17.9175 50.348 17.4835C50.3079 15.918 51.0544 14.7767 52.3752 14.0329C52.5768 13.9408 52.7961 13.8931 53.018 13.8931C53.24 13.8931 53.4593 13.9408 53.6609 14.0329C54.9817 14.7767 55.7232 15.9213 55.6847 17.4852C55.6731 17.9241 55.6814 18.3598 55.6814 18.8949V18.885ZM90.7192 40.9323H78.7733V46.119H90.7159L90.7192 40.9323ZM15.3203 46.1472H27.2578V40.9423H15.3203V46.1472ZM27.2528 53.2075V47.9164H15.3386V53.186H20.4516C20.4516 52.5333 20.4516 51.9568 20.4516 51.3787C20.4516 50.8005 20.6336 50.3715 21.2731 50.3649C21.9127 50.3582 22.1231 50.7889 22.1248 51.3588C22.1248 51.9601 22.1248 52.5615 22.1248 53.2092L27.2528 53.2075ZM83.918 53.2075C83.918 52.6095 83.918 52.0612 83.918 51.5145C83.9063 50.9032 84.0332 50.3549 84.778 50.3665C85.5227 50.3781 85.6129 50.9513 85.5962 51.5493C85.5845 52.0894 85.5962 52.631 85.5962 53.1827H90.7042V47.9098H78.7733V53.2109L83.918 53.2075ZM47.3273 24.7625C47.3273 24.1446 47.339 23.6228 47.3273 23.1059C47.3073 22.5178 47.5494 22.0954 48.1623 22.0971C48.7751 22.0987 49.0089 22.5377 49.0072 23.1109C49.0072 23.6526 49.0072 24.1926 49.0072 24.7376H52.1931C52.1931 24.1131 52.1931 23.5631 52.1931 23.0131C52.1931 22.4632 52.4887 22.0888 53.0398 22.0954C53.5908 22.102 53.8646 22.4814 53.8629 23.0363C53.8613 23.5913 53.8629 24.1727 53.8629 24.7658H57.054C57.054 24.1529 57.044 23.583 57.054 23.0131C57.064 22.4433 57.3445 22.0821 57.9056 22.0954C58.4666 22.1087 58.7288 22.4781 58.7172 23.0413C58.7055 23.6046 58.7172 24.1744 58.7172 24.741H61.464V20.5995H44.5988V24.7691L47.3273 24.7625ZM32.7799 56.2672H73.1444V55.0563H32.8016C32.7678 55.2276 32.7444 55.4007 32.7314 55.5748C32.7281 55.7918 32.7548 56.0022 32.7732 56.2689L32.7799 56.2672ZM63.6581 28.7764C63.9487 26.7885 63.4911 26.424 61.7846 26.4572C58.2278 26.5135 54.6695 26.4737 51.1111 26.4737C48.6381 26.4737 46.1634 26.4737 43.6904 26.4737C43.0041 26.4737 42.4531 26.651 42.3396 27.3964C42.2711 27.8404 42.3262 28.3042 42.3262 28.7863L63.6581 28.7764ZM69.3105 51.9038H36.729V53.2125H69.3038L69.3105 51.9038ZM13.5469 39.1664V31.0343H7.6391V39.1664H13.5469ZM98.4004 31.0492H92.4908V39.1664H98.4004V31.0492ZM34.9757 36.9085C33.8285 36.983 33.7467 36.2459 33.7951 35.3811C33.8295 34.8295 33.8295 34.2762 33.7951 33.7246C33.7367 32.8532 33.8386 32.1293 34.974 32.1955V31.0359H29.0128V39.1532H34.9674L34.9757 36.9085ZM77.0184 31.0359H71.0587V32.1955C72.2276 32.1127 72.2961 32.8582 72.2477 33.7229C72.2108 34.2745 72.2108 34.8279 72.2477 35.3795C72.3161 36.2641 72.1441 36.9383 71.0654 36.9367V39.1498H77.0083L77.0184 31.0359ZM65.7654 32.227L65.7905 32.0233C65.4886 31.8359 65.1991 31.6295 64.9239 31.4054C64.0739 30.6317 63.0987 30.4379 61.9515 30.4479C55.9151 30.4992 49.8754 30.534 43.8407 30.4296C42.241 30.4015 41.3544 31.3441 40.0319 32.1575C40.436 32.1956 40.598 32.2237 40.7599 32.2237C44.0695 32.2237 47.3808 32.2386 50.692 32.2038C51.0606 32.1627 51.4023 31.9923 51.6555 31.7234C52.8728 30.4661 53.1733 30.4263 54.3005 31.6969C54.6795 32.1243 55.0703 32.2353 55.603 32.232C58.4116 32.2154 61.2219 32.232 64.0322 32.232L65.7654 32.227ZM98.4187 54.9917H74.9327V56.2722H98.4204L98.4187 54.9917ZM7.6391 56.259H30.9815V54.9569H7.6391V56.259ZM29.0128 47.885V53.2092H34.9556V47.885H29.0128ZM77.025 47.9015H71.0788V53.186H77.025V47.9015ZM71.0771 40.9174V46.1307H77.0033V40.9174H71.0771ZM29.0244 46.134H34.944V40.9108H29.0244V46.134ZM13.5653 46.1555V40.9174H7.6391V46.1555H13.5653ZM98.392 40.9323H92.4825V46.1422H98.392V40.9323ZM60.5773 50.1545H66.1729V44.9909C64.4396 44.9909 62.7748 44.981 61.1117 45.0075C60.9313 45.0075 60.6023 45.2328 60.6007 45.3587C60.5723 46.9457 60.5873 48.536 60.5873 50.1528L60.5773 50.1545ZM45.412 45.0688H39.8549V50.1479H45.412V45.0688ZM50.2295 50.1445H55.8V45.0439H50.2295V50.1445ZM27.2745 36.9648H15.3486V39.1432H27.2745V36.9648ZM78.77 36.9433V39.1581H90.6991V36.9433H78.77ZM98.3887 53.2291V47.9164H92.4658V53.2042H94.5998C94.5998 52.5416 94.5998 51.9485 94.5998 51.3472C94.5998 50.7707 94.8236 50.3533 95.4565 50.3682C96.0459 50.3682 96.2563 50.7823 96.2613 51.3157C96.2613 51.9386 96.2613 52.5631 96.2613 53.2291H98.3887ZM9.76314 53.2291C9.76314 52.588 9.76314 52.0131 9.76314 51.44C9.76314 50.8668 9.93011 50.3632 10.6264 50.3798C11.261 50.393 11.4396 50.8536 11.4346 51.4135C11.4346 52.0098 11.4346 52.6062 11.4346 53.2175H13.5586V47.928H7.6391V53.2291H9.76314ZM35.5 35.1956H50.3046V33.9333H35.5V35.1956ZM55.7048 35.1492H70.4994V33.9366H55.7048V35.1492ZM10.5045 24.9497C9.59615 25.662 8.67939 26.2898 7.88289 27.0436C7.54892 27.365 7.38196 27.9332 7.27342 28.4186C7.13649 29.0447 7.41201 29.3578 8.14339 29.3346C9.72136 29.2833 11.3044 29.3181 12.884 29.3164C13.8859 29.3164 14.128 29.0514 13.9025 28.0906C13.8194 27.689 13.615 27.3221 13.3165 27.0386C12.4298 26.2915 11.4697 25.6405 10.5079 24.9364L10.5045 24.9497ZM31.9316 29.3181H34.1758C35.2879 29.3181 35.6502 28.8377 35.2411 27.7957C35.0903 27.4436 34.854 27.134 34.5532 26.8945C33.8456 26.3208 33.1064 25.7866 32.339 25.2943C32.211 25.2306 32.0698 25.1974 31.9266 25.1974C31.7834 25.1974 31.6422 25.2306 31.5141 25.2943C30.7644 25.8078 29.9963 26.3329 29.3768 26.9873C28.9978 27.3865 28.7974 28.011 28.6705 28.5693C28.5603 29.0547 28.824 29.3727 29.4385 29.3346C30.2701 29.2634 31.1034 29.3032 31.9349 29.3048L31.9316 29.3181ZM74.011 29.3181C74.8158 29.3181 75.619 29.3181 76.4222 29.3181C77.2571 29.3181 77.5193 29.0547 77.3523 28.233C77.2688 27.8238 77.0885 27.3385 76.7829 27.0867C75.8929 26.3495 74.9193 25.7134 73.9776 25.0375L71.5196 26.8332C71.4762 26.8663 71.4361 26.9045 71.3927 26.9376C70.8199 27.3915 70.6463 27.9945 70.6914 28.6969C70.7198 29.1325 70.8801 29.3396 71.3593 29.3264C72.236 29.2833 73.1227 29.3015 74.0094 29.3032L74.011 29.3181ZM95.3329 24.958C94.4245 25.6703 93.4961 26.2932 92.7129 27.0552C92.3623 27.3865 92.212 27.9994 92.1035 28.5113C91.9832 29.0646 92.2487 29.3396 92.8933 29.3396C94.5013 29.2982 96.1094 29.3264 97.7174 29.3264C98.7093 29.3264 98.9597 29.0596 98.7343 28.1005C98.6523 27.6984 98.4484 27.3308 98.1499 27.0469C97.2549 26.2932 96.2947 25.6454 95.3312 24.9431L95.3329 24.958ZM36.7557 36.9483V50.1545H38.0599V36.9483H36.7557ZM69.2888 50.1793V36.9565H68.0063V50.1793H69.2888ZM48.4612 50.1793V36.9516H47.1854V50.1644L48.4612 50.1793ZM57.595 36.9499V50.1495H58.8391V36.9499H57.595ZM45.4171 40.9273H39.8382V43.2714H45.4171V40.9273ZM60.5806 40.9042C60.5806 41.6181 60.5506 42.2476 60.6007 42.8705C60.6124 43.0362 60.8645 43.3194 61.0098 43.3211C62.723 43.3542 64.438 43.3426 66.1862 43.3426V40.9042H60.5806ZM50.2178 43.2731H55.7866V40.9257H50.2194L50.2178 43.2731ZM45.3569 36.9781H39.8565V39.2277H43.4968C45.6024 39.2277 45.6024 39.2277 45.4337 37.1321C45.4148 37.0725 45.389 37.0153 45.3569 36.9615V36.9781ZM55.825 36.9781H50.2395V39.1614H55.825V36.9781ZM60.6926 36.9549C60.2584 39.0935 60.3586 39.231 62.3908 39.231H66.1946V36.935L60.6926 36.9549ZM51.946 5.72182H54.0868C54.0868 4.63842 54.1135 3.62129 54.0767 2.60747C54.0534 1.98625 53.6543 1.68142 53.0264 1.67811C52.3986 1.6748 51.9828 1.95974 51.9577 2.58427C51.916 3.60307 51.946 4.64836 51.946 5.70194V5.72182ZM53.9248 18.8817C54.1869 16.9385 54.0083 16.3371 53.0114 15.6795C52.0963 16.0887 51.7857 17.0511 52.1598 18.8817H53.9248ZM53.9632 35.2055C54.1502 34.1387 53.6926 33.4446 52.9763 32.7836C52.3584 33.5026 51.8208 34.1768 52.1047 35.2055H53.9632Z" fill="#C2202B"/>
<path d="M55.6821 18.8948C55.6821 18.3663 55.6738 17.9307 55.6821 17.4983C55.7205 15.9345 54.9791 14.7898 53.6583 14.046C53.4567 13.954 53.2374 13.9063 53.0155 13.9063C52.7935 13.9063 52.5742 13.954 52.3726 14.046C51.0518 14.7898 50.3053 15.9312 50.3454 17.4967C50.3571 17.9307 50.3454 18.3664 50.3454 18.8998C48.4401 18.8998 46.6134 18.8998 44.7883 18.8998C43.1185 18.8998 42.9181 18.7341 42.4756 17.114C42.1738 16.0567 42.2264 14.9308 42.6254 13.9057C43.0245 12.8806 43.7483 12.0119 44.6881 11.4303C46.6919 10.1514 48.739 8.91724 50.7812 7.68972C51.075 7.54891 51.3939 7.46674 51.7197 7.44787C53.852 7.16625 55.7272 7.68476 57.4605 9.00505C58.6661 9.92279 60.0554 10.6003 61.3361 11.427C63.7006 12.956 64.447 15.9759 63.036 18.3216C62.8807 18.5801 62.5134 18.8666 62.2395 18.8733C60.1055 18.908 57.9664 18.8948 55.6821 18.8948Z" fill="white"/>
<path d="M90.7195 40.9356V46.1223H78.7736V40.9356H90.7195ZM85.71 43.8296V43.4304C85.3761 43.225 85.0154 42.8158 84.7365 42.8688C84.4226 42.9285 84.0335 43.3791 83.9784 43.7087C83.945 43.9141 84.461 44.4028 84.7466 44.4161C85.0588 44.4293 85.3894 44.0417 85.7117 43.8296H85.71Z" fill="white"/>
<path d="M15.3203 46.1473V40.9424H27.2579V46.1473H15.3203ZM21.4903 42.6917H21.1096C20.8925 43.0148 20.5034 43.3444 20.5117 43.6625C20.5117 43.9375 20.9393 44.3583 21.2465 44.4345C21.3555 44.4643 21.4702 44.4662 21.5801 44.44C21.69 44.4139 21.7914 44.3605 21.8748 44.2848C21.9583 44.2092 22.0209 44.1138 22.0571 44.0075C22.0932 43.9013 22.1016 43.7877 22.0814 43.6774C22.0364 43.3279 21.694 43.0181 21.4836 42.6917H21.4903Z" fill="white"/>
<path d="M27.2464 53.2075H22.1184C22.1184 52.5598 22.1184 51.9585 22.1184 51.3571C22.1184 50.7889 21.898 50.3632 21.2668 50.3632C20.6356 50.3632 20.4319 50.8105 20.4452 51.377C20.4586 51.9436 20.4452 52.5366 20.4452 53.1843H15.3322V47.9148H27.2464V53.2075Z" fill="white"/>
<path d="M83.9114 53.2092H78.7617V47.9082H90.6925V53.186H85.5846C85.5846 52.6344 85.5762 52.0927 85.5846 51.5527C85.5963 50.9546 85.5228 50.3798 84.7664 50.3699C84.0099 50.3599 83.8947 50.9066 83.9064 51.5179C83.9198 52.0629 83.9114 52.6112 83.9114 53.2092Z" fill="white"/>
<path d="M47.321 24.7641H44.5908V20.5945H61.456V24.736H58.7091C58.7091 24.1694 58.7007 23.6029 58.7091 23.0363C58.7174 22.4698 58.4503 22.102 57.8976 22.0904C57.3449 22.0788 57.0627 22.4615 57.046 23.0082C57.0293 23.5548 57.046 24.1479 57.046 24.7608H53.855C53.855 24.1678 53.855 23.6012 53.855 23.0314C53.855 22.4615 53.5844 22.0971 53.0317 22.0904C52.479 22.0838 52.1868 22.4482 52.1851 23.0082C52.1835 23.5681 52.1851 24.1081 52.1851 24.7327H48.9991C48.9991 24.1877 48.9991 23.6476 48.9991 23.1059C48.9991 22.5327 48.7603 22.0938 48.1542 22.0921C47.548 22.0904 47.3042 22.5129 47.3193 23.1009C47.3326 23.6244 47.321 24.1462 47.321 24.7641Z" fill="white"/>
<path d="M32.7735 56.2689C32.7552 56.0071 32.7285 55.7918 32.7318 55.5764C32.7447 55.4024 32.7681 55.2292 32.8019 55.0579H73.138V56.2689H32.7735Z" fill="white"/>
<path d="M63.6518 28.778H42.3198C42.3198 28.296 42.2648 27.8321 42.3332 27.3882C42.4468 26.6427 43.0011 26.4621 43.6841 26.4655C46.1571 26.4771 48.6317 26.4655 51.1047 26.4655C54.6631 26.4655 58.2216 26.5052 61.7783 26.4489C63.4848 26.4257 63.9423 26.7868 63.6518 28.778Z" fill="white"/>
<path d="M69.3041 51.9055V53.2142H36.7293V51.9055H69.3041Z" fill="white"/>
<path d="M13.5405 39.1681H7.6394V31.0359H13.5355L13.5405 39.1681ZM9.78342 35.0465C9.78342 35.4325 9.67822 35.8616 9.81514 36.1912C9.93704 36.4861 10.3245 36.8538 10.5966 36.8538C10.8688 36.8538 11.3431 36.4728 11.3848 36.2078C11.4942 35.4713 11.4942 34.7228 11.3848 33.9863C11.3464 33.7229 10.8838 33.3435 10.6083 33.3419C10.3328 33.3402 9.9504 33.6931 9.81514 33.983C9.67989 34.2729 9.78342 34.6887 9.78342 35.0465Z" fill="white"/>
<path d="M98.394 31.0442V39.1614H92.4845V31.0442H98.394ZM96.2533 35.1691C96.2533 34.7831 96.3552 34.3573 96.2232 34.0227C96.1064 33.7278 95.7056 33.3236 95.4702 33.3468C95.1613 33.3767 94.6937 33.7494 94.6452 34.0343C94.5309 34.7421 94.5309 35.4635 94.6452 36.1713C94.6886 36.4496 95.1595 36.8803 95.3933 36.8555C95.7022 36.8223 96.0612 36.4579 96.2282 36.1464C96.3651 35.888 96.255 35.4987 96.2533 35.1691Z" fill="white"/>
<path d="M34.9689 36.9034V39.1514H29.0127V31.0342H34.9639V32.1938C33.8285 32.1275 33.7266 32.8564 33.785 33.7228C33.8194 34.2745 33.8194 34.8277 33.785 35.3794C33.74 36.2375 33.8218 36.978 34.9689 36.9034ZM32.8216 35.1292C32.8216 34.7714 32.9167 34.3755 32.7948 34.0657C32.6729 33.7559 32.3173 33.3318 32.0902 33.3468C31.7746 33.3683 31.267 33.7145 31.2202 33.9862C31.1042 34.72 31.1042 35.4672 31.2202 36.201C31.2603 36.4677 31.7612 36.8819 32 36.8488C32.3023 36.8073 32.6396 36.423 32.7965 36.1066C32.9251 35.8465 32.8199 35.4605 32.8216 35.1292Z" fill="white"/>
<path d="M77.012 31.0309V39.1482H71.0691V36.935C72.1478 36.935 72.3198 36.2624 72.2513 35.3778C72.2144 34.8262 72.2144 34.2728 72.2513 33.7212C72.2997 32.8615 72.2329 32.111 71.0624 32.1939V31.0343L77.012 31.0309ZM73.2048 35.1045C73.2048 35.4093 73.1063 35.7671 73.2282 36.004C73.3951 36.3469 73.7291 36.6103 73.9979 36.9085C74.2868 36.6302 74.7577 36.3883 74.8328 36.0653C74.9664 35.416 74.9664 34.7466 74.8328 34.0973C74.766 33.7842 74.3052 33.4065 73.9713 33.3501C73.7692 33.317 73.3868 33.8024 73.2432 34.1238C73.1062 34.4004 73.2048 34.7748 73.2048 35.1045Z" fill="white"/>
<path d="M65.7591 32.222H64.0258C61.2155 32.222 58.4052 32.2104 55.5966 32.222C55.0639 32.222 54.6731 32.1144 54.2941 31.687C53.167 30.4164 52.8664 30.4561 51.6491 31.7135C51.3959 31.9824 51.0542 32.1528 50.6856 32.1939C47.3744 32.2287 44.0631 32.2154 40.7536 32.2138C40.5866 32.2138 40.4296 32.1856 40.0255 32.1475C41.348 31.3341 42.2346 30.3915 43.8343 30.4197C49.869 30.524 55.9088 30.4893 61.9452 30.4379C63.0924 30.428 64.0675 30.6218 64.9175 31.3954C65.1927 31.6195 65.4822 31.8259 65.7841 32.0133L65.7591 32.222Z" fill="white"/>
<path d="M98.4119 54.9868V56.2673H74.9326V54.9868H98.4119Z" fill="white"/>
<path d="M7.6394 56.2589V54.9568H30.9818V56.2589H7.6394Z" fill="white"/>
<path d="M29.0127 47.8848H34.9555V53.209H29.0127V47.8848ZM32.0684 49.6275H31.6978C31.4874 49.9588 31.1434 50.2669 31.0966 50.6214C31.074 50.7318 31.0808 50.8461 31.1164 50.953C31.1519 51.06 31.2149 51.156 31.2992 51.2314C31.3834 51.3068 31.4861 51.3591 31.597 51.3832C31.7079 51.4072 31.8232 51.4022 31.9315 51.3685C32.2371 51.289 32.6446 50.8716 32.6546 50.5966C32.6629 50.2769 32.2822 49.9489 32.0718 49.6258L32.0684 49.6275Z" fill="white"/>
<path d="M77.0282 47.8999V53.186H71.082V47.9016L77.0282 47.8999ZM74.9794 50.7973C74.9794 50.6747 74.9794 50.5521 74.9911 50.4295C74.6705 50.2025 74.3232 49.7669 74.0376 49.8033C73.7521 49.8397 73.3297 50.2887 73.2612 50.6167C73.2194 50.8188 73.7103 51.329 73.9842 51.3472C74.3031 51.3638 74.6454 50.9977 74.9794 50.7973Z" fill="white"/>
<path d="M71.0811 40.9155H77.0072V46.1288H71.0811V40.9155ZM74.2319 42.693H73.8446C73.6325 43.0161 73.2468 43.3457 73.2585 43.6605C73.2685 43.9421 73.7594 44.4589 73.9648 44.4225C74.2988 44.3612 74.7513 43.9752 74.7997 43.6654C74.8548 43.3805 74.4423 43.0194 74.2319 42.693Z" fill="white"/>
<path d="M29.0281 46.1323V40.9091H34.9476V46.1323H29.0281ZM32.1022 42.6916H31.7232C31.5044 43.0229 31.1154 43.3393 31.1204 43.659C31.1204 43.9324 31.5395 44.3565 31.8451 44.4343C31.9534 44.468 32.0687 44.473 32.1796 44.449C32.2905 44.4249 32.3932 44.3726 32.4775 44.2971C32.5617 44.2217 32.6247 44.1258 32.6603 44.0188C32.6958 43.9119 32.7026 43.7976 32.68 43.6872C32.6282 43.3327 32.3026 43.0196 32.1022 42.6916Z" fill="white"/>
<path d="M13.5689 46.1539H7.6394V40.9158H13.5639L13.5689 46.1539ZM11.5651 43.7899L11.5468 43.3957C11.2128 43.2018 10.8521 42.8291 10.5449 42.8655C10.2593 42.8987 9.86698 43.3393 9.80519 43.6557C9.78196 43.7653 9.78702 43.8789 9.82003 43.986C9.85305 44.093 9.9129 44.1901 9.99394 44.268C10.075 44.3459 10.1746 44.4022 10.2835 44.4315C10.3924 44.4609 10.507 44.4625 10.6167 44.436C10.964 44.3714 11.2546 44.0152 11.5702 43.7899H11.5651Z" fill="white"/>
<path d="M98.4026 40.9272V46.1372H92.4932V40.9272H98.4026ZM95.6507 42.6915L95.2701 42.6816C95.0463 43.0013 94.6488 43.3227 94.6522 43.6424C94.6522 43.9174 95.0697 44.3464 95.3769 44.4259C95.4853 44.4579 95.6 44.4621 95.7104 44.4381C95.8208 44.4141 95.9233 44.3627 96.0082 44.2887C96.0931 44.2147 96.1577 44.1206 96.196 44.0151C96.2342 43.9096 96.2448 43.7961 96.2269 43.6854C96.1851 43.3392 95.8528 43.0245 95.6507 42.6948V42.6915Z" fill="white"/>
<path d="M60.5876 50.1528C60.5876 48.536 60.576 46.9456 60.611 45.3487C60.611 45.2228 60.945 45.0008 61.122 44.9975C62.7918 44.971 64.4499 44.981 66.1832 44.981V50.1445L60.5876 50.1528Z" fill="white"/>
<path d="M45.4123 45.0688V50.1479H39.8552V45.0688H45.4123Z" fill="white"/>
<path d="M50.2295 50.1397V45.0391H55.8V50.1397H50.2295Z" fill="white"/>
<path d="M27.2745 36.96V39.1383H15.3486V36.96H27.2745Z" fill="white"/>
<path d="M78.7736 36.9383H90.7028V39.1531H78.7736V36.9383Z" fill="white"/>
<path d="M98.3887 53.2242H96.2563C96.2563 52.5616 96.2563 51.9338 96.2563 51.3109C96.2563 50.7775 96.0409 50.3716 95.4514 50.3633C94.8186 50.3633 94.5915 50.7659 94.5948 51.3424C94.5948 51.9437 94.5948 52.5434 94.5948 53.1994H92.4658V47.9116H98.3937L98.3887 53.2242Z" fill="white"/>
<path d="M9.76345 53.2158H7.6394V47.9148H13.5656V53.2042H11.4416C11.4416 52.593 11.4416 51.9966 11.4416 51.4002C11.4416 50.8403 11.2746 50.3798 10.6334 50.3665C9.94378 50.3499 9.76337 50.832 9.77005 51.4267C9.77673 52.0214 9.76345 52.5747 9.76345 53.2158Z" fill="white"/>
<path d="M35.5 35.1822V33.9199H50.3045V35.1822H35.5Z" fill="white"/>
<path d="M55.708 35.1291V33.9165H70.5026V35.1291H55.708Z" fill="white"/>
<path d="M10.5084 24.9365C11.4702 25.6406 12.4303 26.2916 13.3204 27.0255C13.6189 27.3089 13.8233 27.6758 13.9064 28.0774C14.1318 29.0382 13.8831 29.3016 12.8879 29.3033C11.3083 29.3033 9.72524 29.2701 8.14726 29.3215C7.41588 29.3447 7.14538 29.0316 7.2773 28.4054C7.38416 27.92 7.54779 27.3518 7.88676 27.0304C8.68327 26.2767 9.60003 25.6489 10.5084 24.9365Z" fill="white"/>
<path d="M31.935 29.3034C31.1001 29.3034 30.2651 29.2636 29.4419 29.315C28.8274 29.3531 28.5636 29.035 28.6738 28.5496C28.8008 27.9914 29.0078 27.3668 29.3802 26.9676C29.9997 26.305 30.7678 25.7881 31.5175 25.2746C31.6455 25.2109 31.7868 25.1777 31.93 25.1777C32.0732 25.1777 32.2144 25.2109 32.3424 25.2746C33.1098 25.7669 33.849 26.3011 34.5566 26.8748C34.8573 27.1143 35.0936 27.4239 35.2445 27.776C35.6536 28.818 35.2913 29.3034 34.1792 29.2984L31.935 29.3034Z" fill="white"/>
<path d="M74.0097 29.3015C73.123 29.3015 72.2363 29.2833 71.3513 29.3015C70.8787 29.3147 70.7184 29.1077 70.6834 28.672C70.6383 27.9696 70.812 27.3666 71.3847 26.9127C71.4281 26.8796 71.4682 26.8415 71.5116 26.8084L73.9696 25.0126C74.9114 25.6885 75.8848 26.3246 76.7748 27.0618C77.0804 27.3136 77.2608 27.799 77.3443 28.2082C77.5113 29.0364 77.2508 29.2916 76.4142 29.2932C75.6177 29.3048 74.8146 29.3031 74.0097 29.3015Z" fill="white"/>
<path d="M95.3318 24.9429C96.2953 25.6453 97.2554 26.293 98.1488 27.0235C98.4472 27.3074 98.6512 27.675 98.7332 28.0771C98.9586 29.0363 98.7082 29.3013 97.7163 29.303C96.1083 29.303 94.5002 29.2748 92.8922 29.3162C92.2476 29.3311 91.9821 29.0495 92.1023 28.4879C92.2142 27.9761 92.3612 27.3714 92.7119 27.0318C93.4984 26.2781 94.4235 25.6552 95.3318 24.9429Z" fill="white"/>
<path d="M36.7539 36.9331H38.058V50.1393H36.7539V36.9331Z" fill="white"/>
<path d="M69.2874 50.1644H68.0049V36.9416H69.2874V50.1644Z" fill="white"/>
<path d="M48.4594 50.1595H47.1836V36.9517H48.4594V50.1595Z" fill="white"/>
<path d="M57.5937 36.9301H58.8377V50.1297H57.5937V36.9301Z" fill="white"/>
<path d="M45.4178 40.9272V43.2713H39.8389V40.9272H45.4178Z" fill="white"/>
<path d="M60.5809 40.8959H66.1815V43.3343C64.4382 43.3343 62.7233 43.3459 61.0051 43.3128C60.8598 43.3128 60.6077 43.0295 60.596 42.8622C60.5509 42.2394 60.5809 41.6099 60.5809 40.8959Z" fill="white"/>
<path d="M50.2198 43.2647V40.9174H55.7886V43.2647H50.2198Z" fill="white"/>
<path d="M45.3568 36.9614C45.3878 37.0099 45.4136 37.0616 45.4336 37.1155C45.6006 39.211 45.6007 39.211 43.4967 39.211H39.8564V36.9614H45.3568Z" fill="white"/>
<path d="M55.8257 36.9517V39.135H50.2402V36.9517H55.8257Z" fill="white"/>
<path d="M60.6929 36.935H66.1949V39.2111H62.3911C60.3656 39.2111 60.2587 39.0736 60.6929 36.935Z" fill="white"/>
<path d="M51.946 5.70197C51.946 4.64342 51.916 3.6031 51.9577 2.56443C51.9828 1.9399 52.4052 1.6533 53.0264 1.65827C53.6476 1.66324 54.0533 1.96641 54.0767 2.58762C54.1134 3.60145 54.0867 4.61857 54.0867 5.70197H51.946Z" fill="white"/>
<path d="M53.9248 18.8618H52.1598C51.7858 17.0396 52.0964 16.0688 53.0114 15.6597C54.0083 16.3173 54.1869 16.9187 53.9248 18.8618Z" fill="white"/>
<path d="M53.9638 35.1856H52.1053C51.8214 34.1569 52.359 33.4826 52.9769 32.7637C53.6932 33.4246 54.1508 34.1187 53.9638 35.1856Z" fill="white"/>
<path d="M85.712 43.8298C85.3897 44.0418 85.0591 44.4295 84.7452 44.4162C84.4596 44.403 83.9437 43.9192 83.9771 43.7088C84.0322 43.3775 84.4213 42.9286 84.7352 42.869C85.0141 42.8159 85.3814 43.2251 85.7087 43.4305L85.712 43.8298Z" fill="#C2202B"/>
<path d="M21.4834 42.6918C21.6938 43.0231 22.0361 43.3279 22.0795 43.6741C22.0997 43.7844 22.0913 43.898 22.0552 44.0043C22.0191 44.1105 21.9563 44.2059 21.8729 44.2816C21.7895 44.3572 21.6881 44.4106 21.5782 44.4368C21.4683 44.4629 21.3535 44.461 21.2446 44.4312C20.9374 44.355 20.5166 43.9342 20.5099 43.6592C20.5015 43.3412 20.8906 43.0115 21.1077 42.6885L21.4834 42.6918Z" fill="#C2202B"/>
<path d="M9.78339 35.0465C9.78339 34.6887 9.67488 34.2811 9.81348 33.9863C9.95207 33.6914 10.3328 33.3419 10.6066 33.3452C10.8805 33.3485 11.3447 33.7262 11.3831 33.9896C11.4925 34.7261 11.4925 35.4745 11.3831 36.2111C11.3413 36.4761 10.8688 36.8588 10.595 36.8571C10.3211 36.8555 9.93537 36.4861 9.81348 36.1945C9.67655 35.8632 9.78176 35.4358 9.78176 35.0498L9.78339 35.0465Z" fill="#C2202B"/>
<path d="M96.2549 35.1691C96.2549 35.5004 96.3652 35.888 96.2266 36.1465C96.0596 36.4579 95.7006 36.8223 95.3917 36.8555C95.1579 36.8803 94.687 36.4496 94.6436 36.1713C94.5292 35.4635 94.5292 34.7421 94.6436 34.0343C94.692 33.7494 95.1595 33.3717 95.4685 33.3468C95.7039 33.3236 96.1047 33.7278 96.2216 34.0227C96.3552 34.3573 96.2533 34.7831 96.2549 35.1691Z" fill="#C2202B"/>
<path d="M32.8216 35.1295C32.8216 35.4608 32.9251 35.8402 32.7932 36.1069C32.6363 36.4233 32.2923 36.8076 31.9967 36.8491C31.7579 36.8822 31.257 36.468 31.2169 36.2013C31.1009 35.4675 31.1009 34.7203 31.2169 33.9865C31.2637 33.7148 31.7713 33.3686 32.0869 33.3471C32.314 33.3321 32.6713 33.7645 32.7915 34.066C32.9117 34.3675 32.8216 34.7783 32.8216 35.1295Z" fill="#C2202B"/>
<path d="M73.2045 35.1046C73.2045 34.7732 73.1061 34.4005 73.2313 34.1239C73.3749 33.8025 73.7573 33.3171 73.9593 33.3502C74.2933 33.4066 74.7542 33.7843 74.821 34.0974C74.9546 34.7467 74.9546 35.4161 74.821 36.0654C74.7542 36.3884 74.2833 36.6303 73.986 36.9086C73.7222 36.6104 73.3883 36.347 73.2163 36.0041C73.1061 35.7606 73.2045 35.4094 73.2045 35.1046Z" fill="#C2202B"/>
<path d="M32.0721 49.626C32.2825 49.9573 32.6632 50.277 32.6532 50.5918C32.6432 50.8684 32.2358 51.2842 31.9302 51.3637C31.8219 51.3974 31.7066 51.4024 31.5957 51.3784C31.4848 51.3543 31.3821 51.302 31.2978 51.2266C31.2135 51.1511 31.1505 51.0552 31.115 50.9483C31.0795 50.8413 31.0727 50.727 31.0953 50.6166C31.1421 50.2687 31.486 49.954 31.6964 49.6227L32.0721 49.626Z" fill="#C2202B"/>
<path d="M74.9793 50.7972C74.6453 50.9976 74.303 51.3671 73.9774 51.3472C73.7036 51.329 73.2127 50.8187 73.2545 50.6166C73.3229 50.2853 73.7253 49.838 74.0309 49.8032C74.3365 49.7685 74.6638 50.2025 74.9844 50.4294C74.986 50.552 74.9826 50.6746 74.9793 50.7972Z" fill="#C2202B"/>
<path d="M74.2317 42.6933C74.4421 43.0246 74.8546 43.3807 74.8062 43.6624C74.7511 43.9721 74.3053 44.3581 73.9713 44.4194C73.7726 44.4558 73.2749 43.939 73.2649 43.6574C73.2532 43.3426 73.639 43.013 73.851 42.6899L74.2317 42.6933Z" fill="#C2202B"/>
<path d="M32.1018 42.6916C32.3022 43.0229 32.6278 43.3327 32.6729 43.6855C32.6955 43.7959 32.6887 43.9102 32.6532 44.0172C32.6177 44.1241 32.5546 44.2201 32.4703 44.2955C32.386 44.3709 32.2834 44.4232 32.1725 44.4473C32.0616 44.4714 31.9463 44.4663 31.838 44.4327C31.5324 44.3548 31.1183 43.9357 31.1133 43.6574C31.1133 43.3377 31.4973 43.013 31.7161 42.6899L32.1018 42.6916Z" fill="#C2202B"/>
<path d="M11.5706 43.7897C11.255 44.015 10.9644 44.3712 10.6188 44.4358C10.5091 44.4622 10.3945 44.4607 10.2856 44.4313C10.1767 44.4019 10.0771 44.3457 9.99602 44.2677C9.91498 44.1898 9.8552 44.0928 9.82219 43.9857C9.78918 43.8787 9.78404 43.7651 9.80727 43.6555C9.86905 43.3391 10.2615 42.8984 10.547 42.8653C10.8576 42.8289 11.215 43.1966 11.5489 43.3954L11.5706 43.7897Z" fill="#C2202B"/>
<path d="M95.6509 42.695C95.8529 43.0263 96.1853 43.3394 96.227 43.689C96.245 43.7997 96.2344 43.9131 96.1961 44.0186C96.1579 44.1241 96.0933 44.2182 96.0083 44.2922C95.9234 44.3662 95.821 44.4176 95.7106 44.4416C95.6002 44.4656 95.4854 44.4614 95.3771 44.4294C95.0699 44.3499 94.654 43.9209 94.6523 43.6459C94.6523 43.3262 95.0465 43.0048 95.2702 42.6851L95.6509 42.695Z" fill="#C2202B"/>
</g>
<defs>
<clipPath id="clip0_2_552">
<rect width="106" height="58" fill="white"/>
</clipPath>
</defs>
</svg>
