<svg width="77" height="67" viewBox="0 0 77 67" fill="none" xmlns="http://www.w3.org/2000/svg">
<path d="M59.2839 62.0482C61.4913 62.3998 61.4913 62.3998 61.7356 65.1943C62.1133 65.2124 62.5091 65.2465 62.9049 65.2465C66.7513 65.2465 70.5962 65.2465 74.4396 65.2465C74.7426 65.2465 75.0955 65.1648 75.3307 65.2941C75.6224 65.4551 75.9843 65.7908 76.0092 66.063C76.0341 66.3352 75.688 66.7435 75.4076 66.8705C75.0525 67.027 74.5979 66.9703 74.184 66.9703C50.0592 66.9703 25.9291 66.9703 1.79368 66.9703C1.08803 66.9703 0.0295536 67.238 0.00919832 66.1424C-0.0156804 64.9221 1.09934 65.2646 1.81856 65.2601C5.92581 65.2374 10.0331 65.2601 14.2466 65.2601C14.3122 64.3528 14.1086 63.3252 14.5203 62.7196C14.8731 62.2047 15.9384 62.1797 16.782 61.9076V52.2311C16.2731 51.6777 15.6918 51.3125 15.6059 50.8543C15.5539 50.5708 16.2618 50.1489 16.8408 49.5795C16.8408 48.7857 16.877 47.6538 16.8114 46.5265C16.7955 46.2565 16.4834 45.939 16.2256 45.7621C15.5086 45.2653 15.5313 44.6733 16.2369 44.1743C16.3945 44.0597 16.527 43.9141 16.6266 43.7464C16.7261 43.5787 16.7906 43.3924 16.8159 43.1989C16.8521 38.434 16.8521 33.6707 16.8159 28.9088C16.7781 28.4022 16.5718 27.9229 16.2301 27.5479C15.4747 26.7064 14.5927 25.9828 13.8192 25.1571C13.593 24.9303 13.3917 24.4086 13.5025 24.1841C13.6076 24.0205 13.746 23.881 13.9085 23.7747C14.071 23.6684 14.254 23.5976 14.4456 23.5671C15.1807 23.4764 15.9384 23.5399 16.8408 23.5399V19.0532C16.8408 17.3588 16.8634 17.3384 18.5348 17.3112C18.8311 17.3112 19.1274 17.2795 19.6069 17.2545V14.6664C19.6069 12.7792 19.643 12.7452 21.4637 12.6862C21.6899 12.6862 21.9025 12.6363 22.2598 12.5955C22.2598 10.5064 22.2598 8.43549 22.2598 6.36683C22.2598 4.57944 22.2802 4.55222 24.1144 4.55222C24.4156 4.53178 24.7179 4.53178 25.0191 4.55222C27.1587 4.84483 28.9952 4.25508 30.6304 2.81927C31.128 2.3815 31.4627 2.02764 31.3994 1.34036C31.3134 0.38315 31.7839 -0.0206016 32.7564 -0.00699196C36.3389 0.018715 39.9207 0.018715 43.5017 -0.00699196C44.4946 -0.00699196 45.0239 0.353665 44.9085 1.39253C44.8384 2.03218 45.1686 2.35881 45.6119 2.78524C47.4801 4.58624 49.7237 4.70193 52.112 4.57037C54.0322 4.46376 54.0956 4.60893 54.0956 6.50293V12.4299C54.2471 12.5456 54.3036 12.6272 54.3624 12.6272C56.9136 12.6794 56.6648 12.777 56.6716 15.2085C56.6716 15.8482 56.6716 16.4901 56.6716 17.1456C56.8259 17.2109 56.9866 17.2595 57.1511 17.2908C59.1753 17.4201 59.1753 17.4178 59.1753 19.5069C59.1753 20.7885 59.1753 22.0678 59.1753 23.5194C59.985 23.5194 60.7337 23.4514 61.4597 23.5467C61.8441 23.5988 62.344 23.8574 62.5068 24.1727C62.6244 24.3995 62.2807 24.8736 62.1269 25.2343C62.0892 25.3004 62.0345 25.3552 61.9685 25.393C59.5621 26.9944 58.8994 29.2105 59.112 32.0685C59.3721 35.6048 59.1731 39.175 59.1731 42.7294V43.9588L59.4151 43.8204C59.8018 44.1856 60.4622 44.5304 60.4939 44.9273C60.5256 45.2857 59.8697 45.7031 59.5168 46.0932L59.2522 45.9276V49.9402C59.4535 49.9946 59.7475 49.9924 59.9307 50.1375C60.1569 50.3372 60.4577 50.6479 60.4532 50.9087C60.4487 51.1696 60.1162 51.4168 59.9081 51.6573C59.7 51.8977 59.2138 52.1722 59.2093 52.433C59.1663 55.5337 59.1912 58.6345 59.2093 61.7329C59.2171 61.8413 59.2423 61.9478 59.2839 62.0482ZM45.0601 65.2011C45.0849 64.8654 45.1189 64.6068 45.1189 64.3505C45.1189 58.075 45.1189 51.7994 45.1189 45.5239C45.1203 45.1433 45.0847 44.7634 45.0126 44.3898C44.6842 42.6645 43.7318 41.1218 42.3383 40.058C40.9448 38.9941 39.2085 38.4842 37.463 38.6261C33.6679 38.9686 30.9041 41.9128 30.8792 45.6895C30.8566 51.8909 30.8792 58.0923 30.8792 64.2892C30.8792 64.5773 30.9357 64.8654 30.9697 65.1965L45.0601 65.2011ZM18.6592 31.9506V44.0336H25.9645C25.9645 41.0282 25.9849 38.1203 25.9645 35.2123C25.9645 34.203 26.3445 33.7493 27.3668 33.7833C28.5338 33.8219 29.7054 33.7833 30.8724 33.7833C36.7528 33.7833 42.6333 33.8015 48.5137 33.7833C49.5111 33.7833 50.0969 34.0397 50.0539 35.1829C50.0109 36.3261 50.0426 37.4511 50.0426 38.5853V44.0541H57.3976V31.9415L18.6592 31.9506ZM57.427 19.0782H18.58V23.465H57.427V19.0782ZM23.9651 12.625H52.2726V6.34642H23.9651V12.625ZM54.8668 14.5122H21.4366V17.2341H54.8668V14.5122ZM18.5552 62.0981H25.9034V51.8387H18.5552V62.0981ZM57.4858 62.0981C57.4858 58.8 57.4858 55.5678 57.4632 52.3446C57.4632 52.1472 57.1398 51.7888 56.9611 51.7866C54.6859 51.748 52.4083 51.7616 50.1014 51.7616V62.1049L57.4858 62.0981ZM18.6004 28.5505V30.1882H56.1718C57.6148 30.1882 57.6577 30.1269 57.3321 28.5505H18.6004ZM16.8928 25.3318C17.465 26.2641 17.9196 26.8039 18.9985 26.8016C31.664 26.7608 44.3295 26.7608 56.9951 26.8016C58.0988 26.8016 58.5963 26.2822 59.0012 25.3227L16.8928 25.3318ZM38.8811 35.5776V36.8478C43.072 37.5804 45.7046 40.0052 46.745 44.0427H48.2355V35.5776H38.8811ZM37.1192 35.598H27.7987V44.0881H29.2598C30.3183 39.944 32.9939 37.5691 37.1305 36.8296L37.1192 35.598ZM18.5122 49.9901H25.8808V45.821C23.5513 45.821 21.3054 45.821 19.0595 45.846C18.9337 45.8837 18.8197 45.9532 18.7282 46.0477C18.6367 46.1422 18.5709 46.2586 18.5371 46.3858C18.4896 47.5767 18.5122 48.772 18.5122 49.9901ZM50.0855 49.9788H57.4836C57.4836 48.7426 57.5085 47.5812 57.461 46.4221C57.461 46.2157 57.1466 45.8528 56.9724 45.8505C54.6949 45.812 52.4151 45.8256 50.0855 45.8256V49.9788ZM44.6869 4.48644C43.8704 3.65399 42.787 3.17085 43.1037 1.80536H33.0504C33.5774 3.31148 32.1864 3.61996 31.4084 4.48644H44.6869ZM27.7784 51.8183V65.2011H29.0336V51.8183H27.7784ZM48.2174 65.2011V51.7525L46.9599 51.807V65.1897L48.2174 65.2011ZM25.9012 63.9898H16.0379L16.1057 65.1875H25.9102L25.9012 63.9898ZM59.8697 65.2011V63.983H50.0403C50.0584 64.4231 50.0765 64.7837 50.0946 65.2011H59.8697ZM27.7761 45.8687V50.0604L29.0133 50.0014V45.8687H27.7761ZM46.9599 50.065L48.2061 50.0082V45.812L46.9599 45.8687V50.065Z" fill="#C2202B"/>
<path d="M21.9021 39.5902C21.5945 39.1207 20.998 38.608 21.059 38.1952C21.1269 37.7416 21.7556 37.1155 22.2238 37.0316C22.3832 37.0024 22.5473 37.0133 22.7014 37.0634C22.8556 37.1134 22.9949 37.2011 23.107 37.3184C23.219 37.4357 23.3003 37.5791 23.3435 37.7357C23.3868 37.8923 23.3906 38.0572 23.3547 38.2156C23.2574 38.7169 22.7621 39.1411 22.45 39.5993L21.9021 39.5902Z" fill="#C2202B"/>
<path d="M55.1875 38.447C54.7352 38.7691 54.2993 39.2771 53.7972 39.3655C53.0712 39.4948 52.6324 38.9436 52.6166 38.2042C52.6007 37.4647 53.1232 36.9294 53.7949 37.0179C54.2925 37.0859 54.7245 37.6303 55.1881 37.9615L55.1875 38.447Z" fill="#C2202B"/>
<path d="M30.4855 8.14307C30.827 8.59673 31.4668 9.08213 31.4283 9.50403C31.3899 9.92592 30.7657 10.5905 30.2975 10.7062C30.1399 10.7433 29.9756 10.7407 29.8192 10.6986C29.6629 10.6566 29.5193 10.5765 29.4013 10.4653C29.2834 10.3542 29.1946 10.2155 29.143 10.0616C29.0914 9.90775 29.0786 9.74347 29.1056 9.58341C29.1757 9.07532 29.6823 8.6262 29.9944 8.15213L30.4855 8.14307Z" fill="#C2202B"/>
<path d="M47.3578 9.88737C46.8806 10.18 46.4169 10.6767 45.9193 10.7153C45.7576 10.737 45.5931 10.7168 45.4413 10.6567C45.2896 10.5967 45.1557 10.4987 45.0523 10.3721C44.949 10.2455 44.8796 10.0944 44.8509 9.93339C44.8221 9.77233 44.8349 9.60656 44.888 9.45186C45.0237 8.9982 45.6321 8.41753 46.0324 8.41526C46.4848 8.41526 46.9371 9.00047 47.3895 9.32257L47.3578 9.88737Z" fill="#C2202B"/>
</svg>
