<svg width="114" height="114" viewBox="0 0 114 114" fill="none" xmlns="http://www.w3.org/2000/svg">
<g clip-path="url(#clip0_20_457)">
<path d="M29.9667 28.0358C28.6877 28.0358 27.4086 28.0524 26.1296 28.0358C24.6551 28.015 23.8191 27.4369 23.4385 26.2287C23.1036 25.1619 23.4613 24.2823 24.5886 23.3964C24.6135 23.3756 24.6738 23.3735 24.678 23.3527C25.0939 21.6767 26.7057 21.1214 27.7581 20.0255C29.2534 18.4888 31.3976 18.31 32.8492 19.8841C33.1362 20.194 33.3692 20.5288 33.8579 20.4706C33.8926 20.4678 33.9274 20.4729 33.9598 20.4855C33.9922 20.4981 34.0213 20.5179 34.0451 20.5433C34.8 21.7058 36.2953 22.0676 37.0107 23.2467C38.1775 25.1806 36.9837 27.7197 34.723 27.9318C33.1487 28.0815 31.5473 27.9609 29.9584 27.9609L29.9667 28.0358ZM30.1186 27.0709C31.5016 27.0709 32.8846 27.1104 34.2655 27.0605C35.53 27.0126 36.3827 26.1538 36.4326 24.9976C36.4825 23.8414 35.8087 22.9181 34.7355 22.7476C34.199 22.6603 33.6957 22.7143 33.9036 21.8846C34.0076 21.4687 33.548 21.346 33.2693 21.5061C32.7452 21.8097 32.6454 21.4937 32.4769 21.1298C32.0132 20.1441 31.2291 19.7365 30.1352 19.7989C28.5941 19.8904 28.251 21.8181 26.7224 21.9719C26.3688 22.0073 26.1172 22.5064 25.9945 22.9223C25.9178 23.1141 25.8681 23.3157 25.8468 23.5212C25.8631 23.6576 25.8275 23.7952 25.7469 23.9066C25.6664 24.0179 25.5468 24.0949 25.4121 24.1221C24.547 24.3966 24.1788 25.033 24.3723 25.8814C24.5802 26.8047 25.2957 27.0875 26.1796 27.0792C27.4919 27.0625 28.8042 27.0709 30.1186 27.0709Z" fill="#414042"/>
<path d="M80.5478 28.8176C80.0711 28.8197 79.5989 28.7265 79.1587 28.5436C78.7185 28.3608 78.3193 28.0919 77.9844 27.7528C77.6495 27.4137 77.3857 27.0111 77.2084 26.5687C77.0311 26.1263 76.9439 25.653 76.9519 25.1765C76.9568 24.6994 77.0557 24.2279 77.2428 23.7891C77.4299 23.3502 77.7017 22.9525 78.0426 22.6186C78.3834 22.2847 78.7867 22.0212 79.2294 21.8432C79.6721 21.6652 80.1455 21.5761 80.6226 21.581C81.0997 21.5859 81.5713 21.6848 82.0102 21.8719C82.4491 22.059 82.8469 22.3307 83.1808 22.6715C83.5147 23.0123 83.7782 23.4156 83.9562 23.8582C84.1343 24.3009 84.2234 24.7742 84.2185 25.2513C84.2037 26.2106 83.8089 27.1249 83.1207 27.7935C82.4325 28.4621 81.5072 28.8304 80.5478 28.8176ZM77.9689 25.2617C77.9724 25.6058 78.0438 25.9458 78.1787 26.2623C78.3137 26.5789 78.5097 26.8657 78.7555 27.1065C79.0014 27.3473 79.2923 27.5373 79.6115 27.6657C79.9308 27.7941 80.2723 27.8584 80.6164 27.8548C80.9605 27.8513 81.3006 27.78 81.6171 27.645C81.9337 27.5101 82.2206 27.3141 82.4614 27.0683C82.7022 26.8225 82.8923 26.5316 83.0207 26.2124C83.1491 25.8931 83.2134 25.5517 83.2098 25.2076C83.2063 24.8636 83.1349 24.5235 83 24.207C82.865 23.8905 82.669 23.6036 82.4232 23.3628C82.1773 23.122 81.8865 22.932 81.5672 22.8036C81.2479 22.6752 80.9065 22.611 80.5623 22.6145C80.2182 22.6181 79.8781 22.6894 79.5616 22.8243C79.245 22.9593 78.9581 23.1552 78.7173 23.4011C78.4765 23.6469 78.2864 23.9377 78.158 24.257C78.0296 24.5762 77.9653 24.9176 77.9689 25.2617Z" fill="#414042"/>
<path d="M14.7682 49.5772C13.2458 49.5772 11.7214 49.5772 10.1928 49.5772C9.85586 49.5772 9.42534 49.6438 9.39207 49.1613C9.35463 48.6123 9.80803 48.6019 10.1886 48.6019C13.2389 48.6019 16.2891 48.6019 19.3394 48.6019C19.7366 48.6019 20.1713 48.6394 20.1464 49.1613C20.1193 49.625 19.6909 49.5897 19.3436 49.5897L14.7682 49.5772Z" fill="#414042"/>
<path d="M92.6741 38.4996H96.0848C96.4051 38.4996 96.7545 38.4996 96.7815 38.9155C96.8148 39.4 96.4404 39.4479 96.0765 39.4479C93.7638 39.4479 91.4512 39.4479 89.1385 39.4479C88.8037 39.4479 88.3836 39.4687 88.3877 38.9633C88.3919 38.458 88.8036 38.5038 89.1447 38.5017C90.326 38.4851 91.5094 38.4975 92.6741 38.4996Z" fill="#414042"/>
<path d="M19.7595 57.4627C19.067 57.4627 18.3723 57.4627 17.6798 57.4627C17.3262 57.4627 17.0392 57.3941 17.0392 56.9782C17.0375 56.9079 17.051 56.8381 17.0787 56.7735C17.1064 56.7088 17.1477 56.651 17.1998 56.6038C17.2519 56.5566 17.3136 56.5212 17.3807 56.5001C17.4477 56.4789 17.5185 56.4725 17.5883 56.4812C19.0413 56.4715 20.4971 56.4715 21.9557 56.4812C22.2531 56.4812 22.5068 56.635 22.4985 56.9844C22.486 57.4003 22.1824 57.4585 21.8413 57.4564C21.1467 57.4585 20.4541 57.4627 19.7595 57.4627Z" fill="#414042"/>
<path d="M101.326 56.1861H99.2648C98.8821 56.1861 98.5577 56.0862 98.5868 55.6225C98.6117 55.2066 98.932 55.1733 99.2627 55.1733C100.637 55.1733 102.011 55.1733 103.387 55.1733C103.738 55.1733 104.011 55.2732 104.011 55.6724C104.011 56.0717 103.73 56.184 103.387 56.1861H101.326Z" fill="#414042"/>
<path d="M78.2475 36.4057C78.2466 36.6905 78.2313 36.9751 78.2018 37.2583C78.185 37.3609 78.135 37.4551 78.0595 37.5265C77.984 37.5979 77.8871 37.6425 77.7838 37.6534C77.6631 37.6743 77.5391 37.6485 77.4368 37.5813C77.3344 37.5141 77.2615 37.4106 77.2327 37.2916C77.1795 37.0219 77.1627 36.7464 77.1827 36.4723C77.1952 36.0106 77.0226 35.3473 77.7109 35.3306C78.4347 35.3078 78.1706 36.0044 78.2475 36.4057Z" fill="#414042"/>
<path d="M36.4242 36.5076C36.4461 36.7469 36.4461 36.9878 36.4242 37.2271C36.368 37.5328 36.1372 37.7449 35.8336 37.6305C35.1015 37.356 35.4654 36.6948 35.3926 36.1936C35.3365 35.7923 35.3927 35.3951 35.8856 35.3202C35.9536 35.3051 36.0241 35.3059 36.0918 35.3225C36.1595 35.3391 36.2224 35.3711 36.2757 35.4159C36.329 35.4608 36.3713 35.5173 36.3992 35.5811C36.4271 35.645 36.4399 35.7144 36.4367 35.7839C36.4512 36.0252 36.4367 36.2664 36.4367 36.5076H36.4242Z" fill="#414042"/>
<path d="M57.6104 27.3703C57.5854 27.7862 57.7414 28.4101 57.0863 28.3934C56.4312 28.3768 56.5955 27.7696 56.5955 27.3391C56.5955 26.9087 56.4728 26.2994 57.1154 26.316C57.7581 26.3326 57.5896 26.9482 57.6104 27.3703Z" fill="#414042"/>
<path d="M94.7043 55.953C94.2884 55.953 93.8724 55.8823 93.914 55.3895C93.9494 54.8571 94.436 54.9736 94.7958 54.9736C95.1556 54.9736 95.6422 54.9611 95.5923 55.4851C95.5466 55.9343 95.1015 55.9676 94.7043 55.953Z" fill="#414042"/>
<path d="M100.594 39.4522C100.216 39.4522 99.7456 39.5 99.6978 38.9926C99.6541 38.5226 100.064 38.479 100.43 38.4998C100.796 38.5206 101.364 38.3459 101.372 38.9864C101.378 39.4522 100.948 39.4459 100.594 39.4522Z" fill="#414042"/>
<path d="M22.5541 49.5773C22.1112 49.5773 21.6786 49.6001 21.6807 49.1302C21.6807 48.5313 22.1985 48.5937 22.6061 48.5937C22.9639 48.5937 23.3486 48.6269 23.3278 49.1177C23.2945 49.7145 22.8016 49.519 22.5541 49.5773Z" fill="#414042"/>
<path d="M13.8951 71.7573C13.8285 72.1441 14.0427 72.7077 13.5061 72.7201C12.9342 72.7326 13.1484 72.1628 13.1463 71.8322C13.1443 71.5015 12.9384 70.9276 13.4708 70.9027C14.0032 70.8777 13.816 71.4454 13.8951 71.7573Z" fill="#414042"/>
<path d="M13.4937 73.6913C13.1567 73.6039 12.5432 73.8659 12.5744 73.344C12.6097 72.768 13.2336 73.0778 13.6018 73.0445C13.9054 73.0154 14.4337 72.8512 14.4087 73.3544C14.3796 73.9159 13.8098 73.5852 13.4937 73.6913Z" fill="#414042"/>
<path d="M99.8783 73.03C100.215 73.134 100.785 72.8033 100.827 73.3315C100.872 73.9117 100.282 73.6871 99.9656 73.6871C99.6495 73.6871 99.0734 73.92 99.0339 73.4022C98.9965 72.7804 99.5892 73.1527 99.8783 73.03Z" fill="#414042"/>
<path d="M100.265 71.8256C100.205 72.1708 100.427 72.7489 99.9199 72.7447C99.4124 72.7406 99.5913 72.1625 99.5954 71.8193C99.5996 71.4762 99.4104 70.9044 99.9344 70.9127C100.459 70.921 100.184 71.5012 100.265 71.8256Z" fill="#414042"/>
<path d="M60.5469 75.022V77.7253C60.5469 78.0934 60.6426 78.4614 60.0166 78.476C59.3428 78.4926 59.4134 78.1058 59.4155 77.6837C59.4155 76.5067 59.3926 75.3318 59.428 74.1486C59.4467 73.5975 59.2616 73.4311 58.7209 73.4499C57.6145 73.4852 56.506 73.4977 55.3934 73.4499C54.7694 73.4207 54.6571 73.6724 54.6737 74.2255C54.7112 75.3651 54.6883 76.5129 54.6737 77.6484C54.6737 78.0455 54.8006 78.4698 54.1039 78.4801C53.48 78.4801 53.4467 78.1849 53.4634 77.7149C53.5382 75.6104 53.3157 73.4998 53.6422 71.4016C53.7195 70.8545 53.8794 70.3223 54.1164 69.8232C54.7049 68.6233 55.62 67.8373 57.028 67.8477C58.436 67.8581 59.3386 68.6088 59.923 69.8357C60.7299 71.491 60.522 73.2689 60.5469 75.022ZM56.9739 72.2812C57.5978 72.2812 58.2217 72.2687 58.8332 72.2812C59.1826 72.2916 59.297 72.1793 59.3094 71.8133C59.3573 70.5656 58.5191 69.2534 57.5354 69.0871C56.0942 68.8459 55.2956 69.4323 54.9046 71.021C54.5947 72.2687 54.5947 72.2687 55.8363 72.2687L56.9739 72.2812Z" fill="#414042"/>
<path d="M58.6362 76.7602C58.6362 77.0368 58.6362 77.3134 58.6362 77.592C58.6362 78.0287 58.7672 78.4883 58.0122 78.4737C57.3114 78.4571 57.4507 78.0329 57.4445 77.6419C57.4445 77.0867 57.4445 76.5336 57.4445 75.9783C57.4445 75.6831 57.511 75.288 57.0285 75.3191C56.6126 75.3441 56.6001 75.6914 56.6126 76.0137C56.6126 76.6022 56.5939 77.1907 56.6126 77.7792C56.6313 78.218 56.5835 78.4883 56.0178 78.4717C55.5249 78.4571 55.4521 78.2367 55.4646 77.8333C55.4833 77.1408 55.4417 76.4462 55.4791 75.7538C55.5353 74.714 56.1904 74.0735 57.093 74.0902C57.9956 74.1068 58.6029 74.7868 58.6486 75.8203C58.6507 76.1364 58.6341 76.4483 58.6362 76.7602Z" fill="#414042"/>
<path d="M61.3035 61.8214C61.2349 62.1957 61.1101 62.5077 60.6796 62.5035C60.1784 62.5035 60.0702 62.1604 60.0786 61.7424C60.0869 61.3244 60.2678 61.0499 60.6692 61.0603C61.1121 61.0707 61.2681 61.4263 61.3035 61.8214Z" fill="#414042"/>
<path d="M57.5979 61.8213C57.5708 62.1998 57.4107 62.4867 56.9948 62.4971C56.5102 62.5096 56.3708 62.2018 56.3708 61.7631C56.3708 61.3243 56.5788 61.0685 56.9469 61.0623C57.3733 61.056 57.5833 61.3846 57.5979 61.8213Z" fill="#414042"/>
<path d="M53.8668 61.5676C53.8834 62.1915 53.715 62.4784 53.3053 62.5034C52.8394 62.5325 52.6398 62.2497 52.6335 61.8005C52.6335 61.395 52.8415 61.1018 53.2055 61.0748C53.3584 61.0533 53.5136 61.093 53.6374 61.1853C53.7612 61.2776 53.8437 61.415 53.8668 61.5676Z" fill="#414042"/>
<path d="M39.1486 83.6103C39.1486 84.5793 39.1382 85.5504 39.1486 86.5216C39.1486 86.925 39.0883 87.1579 38.5913 87.162C38.0942 87.1662 38.0339 86.9271 38.038 86.5382C38.0526 85.3591 38.0152 84.18 38.0547 83.003C38.0755 82.4125 37.9944 82.1213 37.2894 82.1712C36.185 82.2378 35.0724 82.217 33.9618 82.1712C33.419 82.1525 33.2422 82.3106 33.2609 82.8637C33.3025 84.0761 33.2609 85.2884 33.2817 86.5008C33.2817 86.979 33.1673 87.1849 32.6432 87.1704C32.1587 87.1579 32.0651 86.9437 32.0776 86.5278C32.14 84.4483 31.9569 82.3688 32.2273 80.2893C32.2927 79.7764 32.4234 79.2739 32.6162 78.7942C33.1861 77.3676 34.3445 76.4797 35.6339 76.4818C36.9233 76.4838 38.1108 77.3759 38.6703 78.7879C39.3087 80.3455 39.1237 81.9862 39.1486 83.6103ZM35.5653 80.961C36.1892 80.961 36.8131 80.961 37.437 80.961C37.6595 80.961 37.88 81.0213 37.9361 80.6366C38.1961 78.9106 36.6758 77.4092 35.0245 77.8085C34.0928 78.0351 33.0737 79.5303 33.3607 80.6116C33.5791 81.4185 34.4734 80.7884 35.037 80.9589C35.2122 80.9837 35.3899 80.9844 35.5653 80.961Z" fill="#414042"/>
<path d="M34.0925 85.3321C34.0925 84.9869 34.0738 84.6417 34.0925 84.2924C34.159 83.3732 34.733 82.8118 35.5982 82.7931C35.7967 82.7795 35.9959 82.8053 36.1845 82.8688C36.373 82.9324 36.547 83.0325 36.6968 83.1635C36.8465 83.2945 36.9689 83.4537 37.057 83.6321C37.1451 83.8105 37.197 84.0045 37.21 84.203C37.2745 84.9911 37.21 85.7896 37.2433 86.5798C37.262 87.0644 37.0353 87.1392 36.6194 87.1454C36.1618 87.1454 36.0121 86.9791 36.0287 86.5382C36.0537 85.9144 36.0287 85.2905 36.0287 84.6792C36.0287 84.3735 36.0724 83.9617 35.6606 83.9534C35.2114 83.9534 35.1843 84.3568 35.1864 84.7187C35.1864 85.3425 35.176 85.9664 35.1864 86.5798C35.1864 86.95 35.1053 87.1454 34.6727 87.1475C34.2402 87.1496 34.0364 87.029 34.0676 86.5653C34.0967 86.1494 34.0676 85.7335 34.0676 85.3176L34.0925 85.3321Z" fill="#414042"/>
<path d="M32.4686 70.6113C32.4957 71.0147 32.3001 71.335 31.8572 71.3308C31.4828 71.3308 31.2582 71.0293 31.2457 70.6467C31.2312 70.2308 31.4017 69.9126 31.8801 69.9105C32.3106 69.9105 32.4665 70.1788 32.4686 70.6113Z" fill="#414042"/>
<path d="M39.19 71.3517C39.0955 71.3394 39.0046 71.3081 38.9226 71.2596C38.8406 71.2112 38.7693 71.1467 38.7129 71.0699C38.6565 70.9931 38.6163 70.9058 38.5946 70.813C38.573 70.7203 38.5703 70.6241 38.5869 70.5303C38.6118 70.1539 38.8156 69.8732 39.2524 69.9065C39.6891 69.9398 39.7869 70.2642 39.7827 70.6426C39.7786 71.0211 39.5997 71.2935 39.19 71.3517Z" fill="#414042"/>
<path d="M36.1624 70.5739C36.1395 70.9774 35.9689 71.308 35.5779 71.3309C35.11 71.3579 34.9332 71.021 34.954 70.5781C34.954 70.1747 35.11 69.9064 35.5571 69.9106C36.0043 69.9147 36.1166 70.2183 36.1624 70.5739Z" fill="#414042"/>
<path d="M79.069 85.4818C79.069 85.827 79.069 86.1743 79.069 86.5215C79.0857 86.9083 79.0503 87.1766 78.5325 87.1703C78.0583 87.1703 77.9418 86.979 77.9564 86.5465C77.9793 85.8873 77.9564 85.2302 77.9564 84.571C77.9564 84.2653 77.8524 83.9846 77.5238 83.9658C77.1515 83.9471 77.1079 84.2653 77.1079 84.5523C77.1079 85.2094 77.0767 85.8686 77.1079 86.5257C77.137 87.0539 76.8999 87.1496 76.4278 87.162C75.8912 87.162 75.9058 86.8563 75.9099 86.4903C75.9099 85.7979 75.8912 85.1054 75.9099 84.4109C75.9494 83.4002 76.6066 82.7743 77.5508 82.8034C78.4513 82.8325 79.0066 83.4273 79.042 84.4358C79.0794 84.7768 79.069 85.1241 79.069 85.4818Z" fill="#414042"/>
<path d="M81.2611 69.9854C81.4303 69.9957 81.5895 70.0688 81.7076 70.1903C81.8257 70.3119 81.8942 70.4731 81.8996 70.6425C81.9391 71.0584 81.8039 71.4057 81.3235 71.4411C80.9076 71.4702 80.71 71.2331 80.6829 70.8172C80.6559 70.4013 80.7932 70.0935 81.2611 69.9854Z" fill="#414042"/>
<path d="M73.8467 71.4535C73.3705 71.3745 73.2124 71.0626 73.2519 70.6425C73.2914 70.264 73.5285 69.9687 73.9132 70.0041C74.3562 70.0436 74.5101 70.3888 74.4831 70.8234C74.488 70.908 74.4749 70.9926 74.4445 71.0717C74.4142 71.1508 74.3674 71.2225 74.3072 71.2822C74.247 71.3418 74.1748 71.3879 74.0954 71.4174C74.016 71.4469 73.9313 71.4593 73.8467 71.4535Z" fill="#414042"/>
<path d="M78.1997 70.7361C78.1873 71.152 78.0146 71.4286 77.6049 71.439C77.137 71.4515 76.954 71.1603 76.9561 70.7112C76.9561 70.2953 77.1786 70.0228 77.5446 70.0104C77.9918 69.9958 78.1997 70.316 78.1997 70.7361Z" fill="#414042"/>
<path d="M33.8306 50.6169C33.8306 49.7165 33.8306 48.8161 33.8306 47.9136C33.8306 47.3043 34.0926 47.0485 34.7145 47.0568C37.7217 47.1005 37.2102 46.7241 37.2476 49.4774C37.2642 50.7583 37.2247 52.0393 37.26 53.3203C37.2788 54.0502 36.9585 54.306 36.266 54.2997C33.4646 54.2706 33.8597 54.5617 33.8327 51.9665C33.8264 51.5174 33.8306 51.0682 33.8306 50.6169ZM34.9682 50.6045C34.9682 51.2283 34.9807 51.8522 34.9682 52.476C34.9682 52.8649 34.9869 53.1269 35.5027 53.1165C35.9581 53.1165 36.0954 52.9688 36.0871 52.5197C36.0601 51.3094 36.0684 50.0971 36.0871 48.8847C36.0871 48.4958 36.0663 48.2359 35.5547 48.2422C35.0971 48.2422 34.9495 48.396 34.9723 48.841C34.9911 49.4254 34.9682 50.016 34.9682 50.6045Z" fill="#414042"/>
<path d="M37.4122 58.0179C37.3733 58.4854 37.1585 58.9208 36.8111 59.2361C36.4637 59.5514 36.0096 59.7232 35.5404 59.7169C35.0886 59.6741 34.6711 59.4576 34.3758 59.113C34.0805 58.7684 33.9305 58.3227 33.9574 57.8697C33.9844 57.4167 34.1862 56.9919 34.5203 56.6847C34.8544 56.3776 35.2947 56.2122 35.7484 56.2233C36.6427 56.2795 37.4475 57.1445 37.4122 58.0179ZM35.5404 57.4648C35.4778 57.4736 35.4177 57.4953 35.3638 57.5284C35.31 57.5616 35.2635 57.6055 35.2274 57.6574C35.1913 57.7093 35.1663 57.7682 35.1539 57.8302C35.1416 57.8922 35.1422 57.9561 35.1557 58.0179C35.1513 58.0859 35.1627 58.154 35.1891 58.2169C35.2154 58.2797 35.256 58.3356 35.3076 58.3801C35.3592 58.4247 35.4204 58.4566 35.4864 58.4735C35.5524 58.4904 35.6215 58.4918 35.6881 58.4775C35.7555 58.4739 35.8213 58.4567 35.8817 58.4267C35.9422 58.3968 35.9958 58.3549 36.0394 58.3034C36.0831 58.252 36.1157 58.1923 36.1354 58.1278C36.1551 58.0633 36.1615 57.9955 36.154 57.9285C36.148 57.8566 36.1269 57.7867 36.0922 57.7235C36.0574 57.6602 36.0098 57.6049 35.9524 57.5612C35.8949 57.5175 35.829 57.4863 35.7587 57.4697C35.6885 57.4531 35.6155 57.4514 35.5446 57.4648H35.5404Z" fill="#414042"/>
<path d="M79.6164 50.7082C79.6164 51.6045 79.6164 52.5029 79.6164 53.3991C79.6164 53.9897 79.3502 54.2975 78.7429 54.2954C75.7377 54.2954 76.1558 54.5678 76.1433 51.9289C76.1433 50.6188 76.1579 49.3067 76.1433 47.9966C76.1433 47.3457 76.3887 47.0504 77.0584 47.0608C79.8972 47.1045 79.6185 46.7052 79.6227 49.4668C79.6185 49.8806 79.6164 50.2944 79.6164 50.7082ZM78.4164 50.7894C78.4164 50.1343 78.3935 49.4772 78.4164 48.8221C78.4393 48.3688 78.275 48.2378 77.8299 48.242C77.3849 48.2461 77.3204 48.4312 77.3266 48.8034C77.3412 50.0511 77.3495 51.2884 77.3266 52.5299C77.3266 52.9895 77.4764 53.1121 77.9193 53.1121C78.3623 53.1121 78.431 52.9167 78.4206 52.5486C78.4081 51.9622 78.4081 51.3778 78.4081 50.7894H78.4164Z" fill="#414042"/>
<path d="M79.6554 57.9451C79.67 58.8185 78.8464 59.6794 77.9542 59.721C77.4983 59.7263 77.0584 59.5537 76.7278 59.2398C76.3972 58.9258 76.2022 58.4954 76.184 58.0399C76.1659 57.5844 76.3261 57.1398 76.6306 56.8006C76.9352 56.4613 77.36 56.2543 77.8148 56.2233C78.2837 56.2203 78.7359 56.3972 79.0783 56.7175C79.4206 57.0378 79.6272 57.4772 79.6554 57.9451ZM77.9001 57.4544C77.8325 57.4489 77.7645 57.458 77.7007 57.481C77.6369 57.504 77.5788 57.5403 77.5302 57.5875C77.4816 57.6348 77.4436 57.6919 77.4188 57.755C77.394 57.8181 77.383 57.8857 77.3864 57.9534C77.3765 58.021 77.3817 58.0899 77.4016 58.1553C77.4215 58.2206 77.4557 58.2807 77.5017 58.3312C77.5476 58.3817 77.6042 58.4214 77.6673 58.4474C77.7305 58.4735 77.7986 58.4851 77.8668 58.4816C77.9343 58.4838 78.0015 58.4727 78.0647 58.4489C78.1279 58.4251 78.1857 58.3891 78.2349 58.343C78.2842 58.2968 78.3239 58.2414 78.3517 58.1799C78.3796 58.1185 78.395 58.0521 78.3972 57.9846C78.3993 57.9172 78.3882 57.85 78.3644 57.7868C78.3406 57.7237 78.3047 57.6658 78.2585 57.6166C78.2123 57.5673 78.1569 57.5277 78.0954 57.4998C78.0339 57.472 77.9676 57.4566 77.9001 57.4544Z" fill="#414042"/>
<path d="M58.8578 41.7148C58.8578 42.6132 58.8432 43.5115 58.8578 44.4182C58.8723 45.0254 58.5916 45.3144 58.003 45.3352H57.899C54.952 45.3352 55.3846 45.5224 55.368 42.9916C55.368 41.6795 55.3784 40.3673 55.368 39.0551C55.368 38.4313 55.576 38.1007 56.2748 38.1131C59.2613 38.1693 58.8245 37.7347 58.8557 40.5836C58.8578 40.9558 58.8578 41.3364 58.8578 41.7148ZM57.6474 41.7419C57.6474 41.0868 57.6287 40.4318 57.6474 39.7788C57.664 39.3629 57.5288 39.2319 57.117 39.2465C56.7552 39.2589 56.5451 39.3047 56.5534 39.7497C56.5784 41.0237 56.5784 42.2985 56.5534 43.5739C56.5534 44.0251 56.6866 44.1686 57.1399 44.1624C57.5933 44.1561 57.6557 43.9731 57.6453 43.603C57.6307 42.9833 57.6453 42.3615 57.6432 41.7419H57.6474Z" fill="#414042"/>
<path d="M57.0655 47.2732C57.5183 47.2801 57.9522 47.4558 58.2823 47.7658C58.6123 48.0758 58.8148 48.4978 58.85 48.9493C58.8523 49.4032 58.6768 49.8401 58.3609 50.1663C58.0451 50.4924 57.6141 50.6819 57.1602 50.6941C56.7064 50.7064 56.2657 50.5404 55.9328 50.2317C55.5998 49.9231 55.401 49.4963 55.3789 49.0428C55.3873 48.5902 55.5652 48.1573 55.8776 47.8296C56.1899 47.5019 56.6138 47.3033 57.0655 47.2732ZM57.0905 48.4793C56.8222 48.5126 56.5914 48.6332 56.5831 48.9701C56.5712 49.047 56.5775 49.1256 56.6016 49.1996C56.6256 49.2736 56.6667 49.341 56.7215 49.3962C56.7763 49.4514 56.8434 49.493 56.9172 49.5176C56.9911 49.5422 57.0697 49.5491 57.1467 49.5378C57.2154 49.5384 57.2835 49.5246 57.3464 49.4971C57.4094 49.4696 57.4658 49.429 57.5119 49.3782C57.5581 49.3273 57.593 49.2672 57.6143 49.2019C57.6355 49.1366 57.6428 49.0675 57.6354 48.9992C57.6333 48.6748 57.4357 48.5146 57.0905 48.4793Z" fill="#414042"/>
<path d="M19.499 83.6974C19.524 83.215 19.4553 82.7034 19.5968 82.2584C19.8047 81.6346 20.3476 81.1376 20.9694 81.2187C21.3027 81.2489 21.6147 81.3959 21.8502 81.6337C22.0857 81.8715 22.2297 82.1848 22.2567 82.5183C22.3108 83.3501 22.2568 84.1819 22.2776 85.0137C22.2776 85.3984 22.1299 85.596 21.7451 85.6147C21.7112 85.6126 21.6772 85.6126 21.6432 85.6147C19.6238 85.8643 19.5198 85.7707 19.499 83.6974ZM21.4706 83.6974C21.4706 83.4562 21.456 83.2129 21.4706 82.9717C21.506 82.5038 21.3438 82.0609 20.8737 82.0692C20.4037 82.0775 20.2311 82.5121 20.2498 82.9883C20.2685 83.4645 20.2602 83.9553 20.2498 84.444C20.2394 84.9326 20.5618 84.8806 20.8737 84.889C21.1857 84.8973 21.4976 84.9056 21.4623 84.4294C21.4519 84.1757 21.4706 83.9303 21.4706 83.6891V83.6974Z" fill="#414042"/>
<path d="M57.1033 57.9038H54.6077C54.3997 57.9038 54.1418 57.9641 53.9942 57.8663C52.9917 57.1967 53.6552 56.1695 53.5033 55.3148C53.4077 54.772 53.7404 54.5059 54.3102 54.51C56.182 54.5225 58.0537 54.51 59.9255 54.51C60.0289 54.4938 60.1348 54.5038 60.2333 54.5391C61.2358 55.2254 60.5473 56.2443 60.7116 57.099C60.8177 57.648 60.4808 57.9142 59.911 57.9038C58.9751 57.8913 58.0392 57.9038 57.1033 57.9038ZM57.1886 55.6163C56.5647 55.6163 55.9512 55.6454 55.3335 55.6163C54.851 55.5872 54.6846 55.7265 54.6763 56.2402C54.6763 56.8162 54.9571 56.8183 55.3772 56.812C56.5439 56.7954 57.7127 56.7871 58.8794 56.812C59.3495 56.8245 59.5449 56.7205 59.547 56.1882C59.547 55.6142 59.2558 55.5997 58.8378 55.6142C58.2888 55.6371 57.7397 55.6226 57.1948 55.6226L57.1886 55.6163Z" fill="#414042"/>
<path d="M35.5279 66.8745H32.8243C32.4292 66.8745 31.9924 66.862 31.957 66.3587C31.9092 65.5665 31.9092 64.7721 31.957 63.9798C31.9841 63.5639 32.3397 63.4662 32.7286 63.4682C34.6004 63.4682 36.4721 63.4682 38.3439 63.4682C38.4458 63.4682 38.581 63.4412 38.6496 63.4953C39.6042 64.2356 38.9595 65.2712 39.1113 66.1612C39.2049 66.7019 38.8139 66.8724 38.3314 66.8703L35.5279 66.8745ZM35.5445 65.7619C36.2017 65.7619 36.859 65.7432 37.5141 65.7619C37.9841 65.7806 37.9903 65.5082 37.9924 65.1651C37.9945 64.822 37.9404 64.5766 37.4912 64.5829C36.2122 64.6036 34.9331 64.6078 33.6541 64.5829C33.1799 64.5829 33.0884 64.7721 33.0759 65.2067C33.0614 65.6808 33.2444 65.7952 33.679 65.7744C34.2988 65.7411 34.9227 65.7619 35.5445 65.7619Z" fill="#414042"/>
<path d="M77.6047 66.8745C76.7375 66.8745 75.8702 66.8475 75.0072 66.8745C74.2793 66.9036 74.0339 66.5917 74.0463 65.8847C74.0963 63.0545 73.7323 63.4953 76.3694 63.4662C77.6505 63.4517 78.9337 63.4912 80.2127 63.4517C80.9468 63.4309 81.3025 63.6596 81.2942 64.4436C81.263 67.3008 81.5229 66.8288 78.9545 66.8662C78.5052 66.8807 78.0539 66.8745 77.6047 66.8745ZM77.6172 65.762C78.2411 65.762 78.8651 65.7495 79.4724 65.762C79.8571 65.7745 80.1212 65.762 80.1066 65.2359C80.0921 64.7638 79.9861 64.5663 79.4703 64.5829C78.2682 64.6183 77.064 64.6224 75.8619 64.5829C75.3337 64.5642 75.238 64.7659 75.238 65.2317C75.2255 65.7412 75.471 65.7807 75.8619 65.7661C76.4484 65.7453 77.0328 65.762 77.6172 65.762Z" fill="#414042"/>
<mask id="mask0_20_457" style="mask-type:alpha" maskUnits="userSpaceOnUse" x="-1" y="-1" width="116" height="115">
<path d="M57.0753 -0.000304409C64.5805 0.00147636 72.0114 1.48685 78.9404 4.3704C85.8694 7.25394 92.1599 11.4787 97.4502 16.8018C102.74 22.1249 106.926 28.4413 109.766 35.3876C112.606 42.3339 114.045 49.7731 113.999 57.2773C113.895 88.7671 88.2628 114.102 56.6115 114C25.2743 113.9 -0.117042 88.214 -0.000577511 56.7075C0.115887 25.3217 25.6819 -0.0793252 57.0753 -0.000304409ZM107.197 77.9808C107.442 77.7042 107.586 77.2987 107.933 77.2633C108.488 77.2093 108.449 76.7518 108.557 76.4461C112.878 64.7053 113.359 52.8064 109.665 40.8472C101.417 14.1382 75.1585 -1.94879 47.4712 2.79246C33.4746 5.18388 22.0528 12.1502 13.4199 23.3795C3.27083 36.5863 -0.0296794 51.54 2.9776 67.8807C3.63117 71.352 4.66406 74.7411 6.05768 77.987C6.65248 76.7913 7.14326 77.255 7.52593 77.8165C8.90478 77.4692 9.51002 76.1966 10.5769 75.4895C11.4622 74.9043 12.5079 74.6097 13.5685 74.647C14.6292 74.6843 15.6517 75.0515 16.4937 75.6975C17.2798 76.3213 17.7686 77.2467 18.796 77.6314C19.135 77.7583 19.2348 77.9121 19.4677 77.5669C19.7818 77.0991 20.1208 77.151 20.4598 77.5669C20.5783 77.7167 20.7176 78.1139 20.963 77.725C21.587 76.7601 21.9841 77.4276 22.3855 77.9329C23.2465 77.0221 23.6022 77.0658 24.1325 78.1284C24.4167 78.6838 24.5636 79.2992 24.561 79.923C24.5422 81.8278 24.5485 83.7347 24.561 85.6395C24.561 86.5358 24.2532 87.7357 24.7065 88.2451C25.2348 88.8399 26.4639 88.3512 27.381 88.4531C28.0278 88.5238 28.1922 88.2951 28.1901 87.6546C28.1651 81.8008 28.1734 75.9449 28.1755 70.0891C28.1755 69.6732 28.2712 69.2573 27.6057 69.2448C27.5355 69.238 27.4674 69.2175 27.4053 69.1843C27.3431 69.1511 27.2881 69.106 27.2435 69.0515C27.1988 68.997 27.1654 68.9342 27.1451 68.8667C27.1248 68.7993 27.1181 68.7285 27.1252 68.6584C27.1303 68.5171 27.1883 68.3829 27.2877 68.2824C27.387 68.1818 27.5206 68.1223 27.6618 68.1156C28.1755 68.1156 28.1817 67.8183 28.1797 67.4377C28.1672 65.9135 28.1797 64.3892 28.1797 62.8628C28.1797 62.5426 28.215 62.2224 27.7284 62.239C27.65 62.2488 27.5704 62.241 27.4954 62.2163C27.4204 62.1915 27.3518 62.1503 27.2946 62.0958C27.2375 62.0412 27.1932 61.9747 27.165 61.9009C27.1368 61.8271 27.1253 61.748 27.1315 61.6692C27.1298 61.5987 27.1424 61.5286 27.1685 61.4632C27.1946 61.3977 27.2337 61.3382 27.2835 61.2883C27.3332 61.2383 27.3926 61.199 27.458 61.1726C27.5234 61.1462 27.5934 61.1334 27.6639 61.1348C28.1797 61.1348 28.1755 60.8166 28.1547 60.4402C28.0715 58.3974 28.1277 56.3513 28.3232 54.3161C28.5956 51.1033 29.0885 47.9362 30.5609 45.0083C30.694 44.7442 30.848 44.5924 30.4715 44.2742C29.9287 43.8209 30.2178 43.3904 30.8563 43.3281C31.5131 43.274 32.1732 43.274 32.8299 43.3281C33.3984 43.3655 33.6257 43.127 33.5121 42.6127C33.0753 40.6289 34.8057 39.9801 35.7852 38.8696C35.8601 38.7844 35.9245 38.7573 36.0119 38.8696C36.9706 39.9967 38.7155 40.631 38.2996 42.6127C38.1873 43.1326 38.4265 43.3613 38.988 43.3177C39.576 43.2823 40.1656 43.2823 40.7537 43.3177C41.2341 43.3405 41.5752 43.7814 41.2383 44.0496C40.5145 44.6298 41.0906 45.0436 41.2487 45.5053C41.4254 46.0252 41.6791 46.5201 41.8559 47.042C43.2889 51.3071 43.4594 55.7218 43.4115 60.1616C43.4115 60.5775 43.187 60.9934 43.84 61.2512C44.3786 61.4696 44.3038 62.083 43.7339 62.2182C43.2015 62.3471 43.2972 62.6341 43.2972 62.9626C43.2972 64.3829 43.2972 65.8032 43.2972 67.2235C43.2972 67.6519 43.2223 68.0137 43.8421 68.2363C44.3745 68.4255 44.3059 69.0369 43.7443 69.224C43.2764 69.38 43.2951 69.6399 43.2951 69.9851C43.2951 75.9096 43.3076 81.8382 43.2806 87.7586C43.2806 88.4053 43.5322 88.4781 44.0708 88.4677C45.5599 88.4365 47.0531 88.4073 48.5401 88.4677C49.3367 88.5051 49.5051 88.2597 49.5031 87.4882C49.4739 78.7211 49.4843 69.956 49.4823 61.1909C49.4823 60.775 49.6403 60.2551 48.8854 60.278C48.8148 60.2757 48.7454 60.2587 48.6818 60.2279C48.6182 60.1972 48.5618 60.1535 48.5162 60.0996C48.4705 60.0457 48.4367 59.9829 48.4168 59.9151C48.3969 59.8473 48.3915 59.7762 48.4008 59.7062C48.4154 59.4067 48.6088 59.1364 48.9124 59.1551C49.4823 59.1884 49.4968 58.8806 49.4927 58.4501C49.4739 56.9591 49.4698 55.4702 49.4927 53.9792C49.4927 53.5363 49.4656 53.2576 48.9082 53.2888C48.6046 53.3055 48.4195 53.0372 48.405 52.7336C48.3975 52.6636 48.4044 52.5928 48.4253 52.5256C48.4461 52.4583 48.4805 52.396 48.5262 52.3425C48.572 52.289 48.6282 52.2453 48.6913 52.2143C48.7545 52.1832 48.8234 52.1653 48.8937 52.1617C49.3097 52.1264 49.5176 52.0432 49.4573 51.5525C49.2493 49.6123 49.422 47.6721 49.553 45.7403C49.7776 42.384 50.2871 39.0755 51.8261 36.0228C51.9862 35.7067 51.9987 35.6069 51.7013 35.295C51.2043 34.7959 51.5058 34.407 52.163 34.3654C52.7508 34.3208 53.341 34.3208 53.9287 34.3654C54.5859 34.4237 54.8292 34.1575 54.7252 33.5336C54.4902 32.1424 55.1412 31.2004 56.2747 30.5267C56.6428 30.3187 56.859 29.9694 57.1793 29.6055C57.3498 30.1461 57.7741 30.3957 58.1797 30.6639C59.1488 31.3044 59.7311 32.1466 59.5232 33.3673C59.3817 34.1991 59.7478 34.407 60.4985 34.3134C60.982 34.2549 61.4708 34.2549 61.9543 34.3134C62.4743 34.38 62.9173 34.7564 62.414 35.1951C61.9419 35.611 62.1602 35.819 62.3329 36.185C62.6129 36.7773 62.8614 37.384 63.0774 38.0025C64.5332 42.2613 64.7058 46.6781 64.6788 51.1178C64.6788 51.5712 64.4937 52.0474 65.1571 52.299C65.5336 52.4404 65.5377 53.031 65.1946 53.1308C64.2545 53.3949 64.5457 54.0853 64.5332 54.6655C64.5103 55.8445 64.5228 57.0215 64.5332 58.2006C64.5332 58.6498 64.3918 59.0906 65.1093 59.2757C65.2105 59.3063 65.2988 59.3694 65.3605 59.4553C65.4222 59.5411 65.4538 59.6449 65.4505 59.7506C65.4472 59.8563 65.4091 59.9579 65.3422 60.0397C65.2752 60.1215 65.1831 60.179 65.0802 60.2032C64.4292 60.3862 64.5311 60.7875 64.5311 61.218V70.5757C64.5311 76.2236 64.5478 81.8715 64.5103 87.5194C64.5103 88.3055 64.7059 88.5238 65.4837 88.4822C66.7627 88.4136 68.048 88.424 69.3291 88.4822C69.9863 88.5092 70.1277 88.2971 70.1256 87.6671C70.1006 81.8112 70.1111 75.9553 70.109 70.1016C70.109 69.7065 70.2483 69.2427 69.5495 69.2698C69.2625 69.2843 69.0566 69.0431 69.0504 68.7124C69.0441 68.3818 69.2396 68.1219 69.5266 68.1385C70.1963 68.1739 70.1131 67.7538 70.1131 67.3379C70.1131 65.8823 70.1131 64.4266 70.1131 62.971C70.1131 62.5759 70.1693 62.1953 69.562 62.2535C69.2313 62.2868 69.0649 62.0456 69.0441 61.7295C69.0233 61.4134 69.2043 61.1576 69.5183 61.166C70.1776 61.1805 70.0861 60.7646 70.0882 60.3342C70.0882 58.5687 70.0299 56.799 70.1526 55.0377C70.3918 51.5816 70.8722 48.1629 72.4403 45.002C72.5547 44.7754 72.8188 44.555 72.3821 44.3387C72.0951 44.1973 72.0805 43.902 72.2157 43.6171C72.3509 43.3322 72.6504 43.3239 72.929 43.3239C73.4479 43.2948 73.9679 43.2948 74.4867 43.3239C75.2126 43.405 75.4185 43.0868 75.3186 42.436C75.1294 41.2194 75.6764 40.3565 76.6643 39.7326C77.0805 39.4513 77.4444 39.0994 77.7395 38.6929C77.987 39.2689 78.4819 39.5351 78.9332 39.8574C79.5145 40.2494 79.9313 40.8415 80.1041 41.521C80.2517 42.0991 79.7089 42.908 80.3682 43.2262C80.8736 43.4695 81.5911 43.2761 82.215 43.2802C82.388 43.269 82.5616 43.2766 82.7329 43.3031C83.2091 43.4196 83.4483 43.8708 83.0864 44.1141C82.4271 44.555 82.8784 44.8898 83.024 45.2661C83.2923 45.9752 83.6271 46.6615 83.8559 47.381C85.1703 51.5275 85.3575 55.805 85.3013 60.1075C85.3013 60.5525 85.11 61.0433 85.8067 61.2658C86.1956 61.3885 86.1748 61.9998 85.8337 62.0976C84.9166 62.343 85.2098 63.0105 85.189 63.5678C85.1641 64.7448 85.1766 65.9218 85.189 67.1029C85.189 67.5583 85.0601 68.0054 85.7402 68.2321C85.8454 68.2577 85.9388 68.3185 86.0049 68.4043C86.071 68.4902 86.1058 68.596 86.1036 68.7044C86.1015 68.8127 86.0624 68.917 85.9929 69.0002C85.9234 69.0833 85.8276 69.1403 85.7214 69.1616C85.0975 69.3696 85.189 69.7709 85.189 70.2014C85.189 75.3627 85.189 80.5254 85.189 85.6895C85.189 86.5795 84.8105 87.7544 85.345 88.2888C85.8795 88.8232 87.0608 88.372 87.9509 88.4614C88.6413 88.53 88.8161 88.2784 88.8036 87.6067C88.7641 85.1467 88.789 82.6867 88.789 80.2266C88.789 79.5674 88.8098 78.9103 89.0677 78.2885C89.5648 77.0866 89.9724 77.0138 90.823 77.9787C91.5883 77.0346 91.5883 77.0346 92.5055 77.9912C93.0109 76.8703 93.5807 77.2592 93.9613 77.7707C95.3547 77.5358 95.8642 76.3463 96.798 75.6497C98.9443 74.0505 102.205 74.402 103.748 76.5813C104.241 77.2758 105.167 77.1282 105.491 77.8893C105.572 78.0764 105.664 77.8893 105.699 77.8331C106.275 76.8079 106.749 77.3299 107.19 77.9766L107.197 77.9808ZM94.6206 97.1745H19.3783C40.3689 117.059 73.7485 116.973 94.6143 97.1703L94.6206 97.1745ZM50.5991 74.3146C50.5991 78.7509 50.5991 83.1823 50.5991 87.6088C50.5991 88.0892 50.5575 88.4635 51.2667 88.4573C51.9759 88.451 51.8178 88.0081 51.8199 87.6255C51.8199 85.2687 51.8199 82.9119 51.8199 80.5552C51.8199 80.1226 51.7658 79.7483 52.4251 79.7463C53.0844 79.7442 53.049 80.106 53.049 80.5448C53.049 82.9008 53.049 85.2548 53.049 87.6151C53.049 88.0871 52.9908 88.4573 53.7083 88.4573C54.4258 88.4573 54.3322 88.0268 54.3322 87.588C54.3322 85.232 54.3488 82.878 54.3197 80.5177C54.3197 79.9334 54.4799 79.7255 55.0767 79.74C56.3578 79.7691 57.6431 79.7795 58.9201 79.7067C59.6563 79.6652 59.7623 79.9584 59.7519 80.5947C59.7207 82.9154 59.7519 85.234 59.7353 87.5547C59.7353 88.0642 59.677 88.4697 60.4486 88.451C61.1703 88.4323 61.0996 88.0351 61.0996 87.5839C61.0996 85.2632 61.0996 82.9431 61.0996 80.6238C61.0996 80.2537 60.9124 79.7774 61.6279 79.7483C62.387 79.7171 62.2518 80.1954 62.2518 80.63C62.2518 82.9487 62.2518 85.2694 62.2518 87.5901C62.2518 87.9603 62.0646 88.4219 62.7862 88.4406C63.5079 88.4593 63.3582 88.0122 63.3582 87.6088C63.3582 78.7793 63.3582 69.9498 63.3769 61.1202C63.3769 60.4049 63.1544 60.2697 62.4972 60.2739C58.8265 60.3051 55.1558 60.3113 51.485 60.2739C50.7259 60.2739 50.5887 60.5172 50.5928 61.2117C50.6157 65.5891 50.6012 69.9518 50.5991 74.3146ZM29.363 78.7647C29.363 81.7093 29.3859 84.6518 29.3464 87.5943C29.3464 88.2867 29.5398 88.4552 30.2116 88.4489C33.8816 88.4157 37.5523 88.4157 41.2237 88.4489C41.8726 88.4489 42.1013 88.32 42.0992 87.6171C42.0673 81.7654 42.0673 75.9137 42.0992 70.062C42.0992 69.4049 41.9121 69.2635 41.2882 69.2677C37.5821 69.2989 33.876 69.3051 30.1721 69.2677C29.4358 69.2677 29.3401 69.5339 29.3526 70.1556C29.3776 73.017 29.363 75.8909 29.363 78.7647ZM83.9994 78.8791C83.9994 75.9678 83.9849 73.0565 84.0119 70.1452C84.0119 69.5214 83.9412 69.2386 83.1967 69.2469C79.4906 69.2885 75.7845 69.2781 72.0805 69.2469C71.4774 69.2469 71.2487 69.3446 71.2487 70.0246C71.2778 75.8777 71.2778 81.7301 71.2487 87.5818C71.2487 88.2722 71.4441 88.4406 72.1138 88.4344C75.7845 88.4011 79.4552 88.3949 83.1259 88.4344C83.9079 88.4344 84.014 88.164 84.0077 87.4841C83.9807 84.6289 83.9994 81.753 83.9994 78.8791ZM35.7498 61.0994C37.6881 61.0994 39.6264 61.0641 41.5731 61.1181C42.2781 61.1369 42.4403 60.9102 42.4549 60.2489C42.5178 58.0688 42.438 55.8869 42.2157 53.7172C41.9058 50.7955 41.4254 47.9071 40.0507 45.2453C39.7305 44.6215 39.381 44.3221 38.6261 44.3657C37.2119 44.4468 35.7894 44.4011 34.371 44.4052C31.7318 44.4052 31.7027 44.4052 30.8064 46.9006C29.2112 51.3403 29.0719 55.961 29.1426 60.6087C29.1426 61.1618 29.4774 61.1015 29.8289 61.1015C31.8004 61.0973 33.7728 61.0966 35.7457 61.0994H35.7498ZM77.6396 61.0994C79.58 61.0994 81.5204 61.0724 83.4629 61.114C84.1076 61.1285 84.2739 60.9372 84.2739 60.303C84.2739 57.9116 84.3239 55.5201 84.0244 53.1433C83.6812 50.3963 83.1925 47.6846 81.8906 45.1871C81.5911 44.6069 81.2313 44.3366 80.5242 44.3553C78.8604 44.4281 77.1966 44.5113 75.5329 44.3553C74.0874 44.2264 73.4532 44.8398 72.9623 46.0834C71.128 50.729 70.9304 55.5763 71.0178 60.4714C71.0282 61.0849 71.3485 61.0953 71.8143 61.0953C73.7547 61.0869 75.7034 61.0994 77.6355 61.0994H77.6396ZM57.0608 52.1077C58.8972 52.1077 60.7357 52.064 62.57 52.1264C63.4019 52.1555 63.7013 52.0037 63.6805 51.0867C63.6327 48.9053 63.693 46.7197 63.433 44.5508C63.0878 41.6624 62.6136 38.8072 61.2389 36.1829C60.9457 35.6256 60.615 35.3865 59.9537 35.4114C58.5353 35.4676 57.1128 35.4322 55.6923 35.4364C52.9305 35.4468 52.9055 35.4364 51.9987 38.0482C50.4847 42.3985 50.3058 46.9173 50.3599 51.4651C50.3599 52.0703 50.6553 52.1181 51.1357 52.1139C53.1052 52.0973 55.0809 52.1077 57.0566 52.1077H57.0608ZM107.014 80.1268C101.253 80.1268 95.6542 80.1268 90.0556 80.1268C89.5648 80.1268 89.492 80.3347 89.492 80.7506C89.5017 85.5931 89.5017 90.4369 89.492 95.2822C89.492 95.7771 89.6355 95.9455 90.1387 95.9351C91.5218 95.906 92.9089 95.8894 94.2982 95.9351C94.9762 95.9601 95.1613 95.7646 95.1634 95.0804C95.1738 92.3771 95.0282 89.6842 95.2528 86.9871C95.2972 86.3307 95.4765 85.6905 95.7796 85.1065C96.0827 84.5226 96.5031 84.0074 97.0143 83.5933C97.8316 82.9071 98.7759 82.3623 99.4372 81.493C99.6452 81.2269 99.9239 81.1499 100.132 81.4244C101.29 82.9549 103.376 83.558 104.083 85.6333C105.161 83.8538 106.137 82.0154 107.009 80.1268H107.014ZM6.97898 80.1122C7.77968 81.7758 8.50134 83.3064 9.47465 84.789C10.0591 83.978 10.762 83.4249 11.4732 82.8697C12.12 82.3623 12.7211 81.3371 13.3242 81.3579C13.9939 81.3807 14.5866 82.3976 15.2937 82.8489C17.3339 84.1631 18.1014 86.0617 18.0681 88.4053C18.0348 90.5846 18.0868 92.7722 18.0452 94.9432C18.0306 95.6585 18.1242 95.9996 18.9748 95.9434C20.291 95.8734 21.6101 95.8734 22.9263 95.9434C23.598 95.9725 23.7187 95.7355 23.7166 95.1116C23.6916 90.4064 23.6916 85.7012 23.7166 80.996C23.7166 80.2432 23.4837 80.0935 22.7828 80.0998C18.7336 80.131 14.6864 80.1143 10.6372 80.1143L6.97898 80.1122ZM95.9141 95.9871C98.4604 93.4416 100.755 90.656 102.765 87.6691C103.667 86.332 103.597 85.6312 102.436 84.4729C102.193 84.2317 101.906 84.0342 101.638 83.8158C101.051 83.3375 100.456 82.4725 99.8802 82.4849C99.2563 82.4974 98.6469 83.3459 98.0084 83.7805C96.5526 84.7537 95.9495 86.1594 95.9287 87.8397C95.8934 90.4723 95.9121 93.0945 95.9121 95.9871H95.9141ZM57.0608 53.2972C55.1599 53.2972 53.2569 53.3179 51.354 53.2868C50.7904 53.2764 50.5658 53.3991 50.5866 54.0187C50.6303 55.4744 50.6261 56.93 50.5866 58.3753C50.572 58.9596 50.7468 59.1343 51.3395 59.1301C55.1079 59.1052 58.8778 59.1052 62.649 59.1301C63.1731 59.1301 63.379 59.0075 63.3644 58.4439C63.3284 56.9591 63.3284 55.4723 63.3644 53.9834C63.3769 53.4344 63.2043 53.2805 62.6636 53.2888C60.798 53.3159 58.9284 53.2972 57.0608 53.2972ZM17.2736 95.1595C17.2736 93.3004 17.1467 91.6742 17.2985 90.0772C17.6043 86.908 16.7724 84.3523 13.8608 82.7241C13.7489 82.6426 13.6477 82.5476 13.5592 82.4413C13.5378 82.4144 13.5106 82.3927 13.4796 82.3778C13.4487 82.3629 13.4147 82.3552 13.3804 82.3552C13.346 82.3552 13.3121 82.3629 13.2811 82.3778C13.2501 82.3927 13.2229 82.4144 13.2015 82.4413C12.3093 83.4062 11.0386 83.9385 10.2629 85.0365C10.1282 85.1902 10.0515 85.3863 10.0462 85.5906C10.0409 85.795 10.1072 85.9947 10.2337 86.1553C12.276 89.3826 14.6343 92.3988 17.2736 95.1595ZM35.7956 62.2411C33.8927 62.2411 31.9918 62.2515 30.0888 62.2411C29.6022 62.2411 29.3319 62.2972 29.3485 62.8982C29.3901 64.4183 29.3714 65.9405 29.3485 67.4606C29.3485 67.8578 29.3776 68.0948 29.885 68.0844C33.7575 68.0664 37.6299 68.0664 41.5024 68.0844C41.962 68.0844 42.0868 67.9306 42.0805 67.4897C42.0577 65.9696 42.0494 64.4474 42.0805 62.9273C42.093 62.3804 41.9266 62.2223 41.3838 62.2307C39.5287 62.2598 37.6611 62.2411 35.7956 62.2411ZM77.7249 62.2411C75.8219 62.2411 73.919 62.2619 72.0181 62.2286C71.4421 62.2182 71.2424 62.37 71.259 62.971C71.3027 64.4266 71.2985 65.8823 71.259 67.3275C71.2424 67.8994 71.3817 68.0928 71.989 68.0886C75.7602 68.0623 79.5301 68.0623 83.2986 68.0886C83.935 68.0886 84.0202 67.8411 84.0077 67.3026C83.9765 65.9218 83.9599 64.5368 84.0077 63.156C84.0368 62.4469 83.8643 62.1974 83.1093 62.2223C81.3187 62.2806 79.5218 62.2411 77.7249 62.2411ZM49.3991 92.8096H49.4698C49.4698 92.0153 49.4323 91.2168 49.4823 90.4245C49.5197 89.8006 49.3533 89.5719 48.6878 89.5927C47.1322 89.6405 45.5682 89.6343 44.0167 89.5927C43.424 89.5781 43.2535 89.759 43.266 90.3454C43.3034 91.9716 43.3097 93.5978 43.266 95.2239C43.2473 95.8603 43.501 95.9642 44.048 95.9351C44.8071 95.8956 45.5703 95.9559 46.3357 95.9185C47.3589 95.8686 48.7294 96.376 49.3055 95.7105C49.7901 95.1366 49.3991 93.7995 49.3991 92.8034V92.8096ZM64.5062 92.7535C64.5062 93.6165 64.527 94.4795 64.5062 95.3404C64.4895 95.7896 64.6351 95.9434 65.0906 95.9351C66.5734 95.9123 68.0584 95.9102 69.5412 95.9351C70.0237 95.9351 70.1069 95.7417 70.1006 95.3113C70.084 93.6207 70.0778 91.93 70.1006 90.2415C70.1006 89.7486 69.9696 89.574 69.4642 89.5906C68.3953 89.6239 67.3263 89.5906 66.2552 89.5906C64.5104 89.5906 64.5103 89.5906 64.5103 91.2854L64.5062 92.7535ZM85.1516 92.7077V93.1236C85.1516 96.0828 85.1516 96.064 88.1007 95.9455C88.6871 95.9226 88.7786 95.7064 88.7703 95.2031C88.7454 93.5749 88.7412 91.9446 88.7703 90.3163C88.7703 89.7985 88.6788 89.5594 88.0965 89.5968C87.3347 89.6468 86.5705 89.6468 85.8088 89.5968C85.2202 89.5573 85.11 89.8048 85.1371 90.3205C85.1828 91.1065 85.1516 91.9051 85.1516 92.7015V92.7077ZM28.1672 92.845C28.1672 92.7077 28.1672 92.5684 28.1672 92.4291C28.1006 91.512 28.5831 90.256 27.9592 89.7673C27.3873 89.3057 26.179 89.6634 25.2556 89.5968C24.6316 89.5511 24.5193 89.8048 24.5297 90.3558C24.563 91.9799 24.5609 93.604 24.5297 95.2281C24.5193 95.7459 24.6296 95.9746 25.2036 95.9372C25.9654 95.889 26.7295 95.889 27.4913 95.9372C28.0569 95.9726 28.1984 95.7542 28.1734 95.2281C28.1401 94.4233 28.1693 93.6331 28.1693 92.8388L28.1672 92.845ZM55.5072 84.9096C55.5072 85.8433 55.5072 86.7812 55.5072 87.7086C55.5072 88.0746 55.4032 88.4531 56.0334 88.4593C56.6635 88.4656 56.5824 88.1162 56.5804 87.7294C56.5804 86.0367 56.5804 84.344 56.5804 82.6513C56.5804 82.302 56.4202 81.7758 56.9817 81.7509C57.6348 81.7218 57.4622 82.2999 57.4642 82.67C57.4809 84.3974 57.4809 86.1248 57.4642 87.8521C57.4642 88.2971 57.6015 88.4614 58.0569 88.451C58.4729 88.451 58.5873 88.2867 58.5852 87.8958C58.5686 85.9619 58.6039 84.0259 58.554 82.0919C58.5454 81.689 58.38 81.3053 58.0931 81.0222C57.8061 80.7392 57.4201 80.5791 57.0171 80.576C56.1852 80.576 55.5342 81.2601 55.5093 82.2146C55.4926 83.1067 55.5114 84.0051 55.5093 84.9034L55.5072 84.9096ZM34.2733 93.2172C34.2733 93.9097 34.2733 94.6001 34.2733 95.2967C34.2733 95.6752 34.2733 95.9518 34.8015 95.9476C35.2944 95.9476 35.363 95.7397 35.3589 95.3238C35.3402 94.0428 35.3464 92.7639 35.3589 91.4829C35.3589 91.1585 35.2632 90.7177 35.7977 90.7197C36.3322 90.7218 36.2261 91.1668 36.2282 91.4892C36.2407 92.7681 36.2469 94.049 36.2282 95.3279C36.2282 95.7438 36.303 95.9518 36.7897 95.9518C37.2764 95.9518 37.3408 95.7126 37.3367 95.3134C37.3242 93.9658 37.3533 92.61 37.3221 91.2667C37.2972 90.152 36.7585 89.6239 35.754 89.6447C34.8015 89.6613 34.319 90.177 34.2982 91.2542C34.2608 91.8967 34.2774 92.5518 34.2753 93.211L34.2733 93.2172ZM76.1194 93.1756C76.1194 93.866 76.1318 94.5564 76.1194 95.2551C76.1194 95.671 76.0965 95.9767 76.6892 95.958C77.2382 95.9434 77.1842 95.6294 77.1821 95.2822C77.1821 94.1779 77.1509 93.0717 77.1966 91.9695C77.2154 91.5224 76.8888 90.7218 77.6812 90.7509C78.4112 90.7801 78.0971 91.564 78.1263 92.0236C78.1658 93.1611 78.1533 94.311 78.1263 95.4402C78.1263 95.8686 78.3114 95.9663 78.6878 95.9476C78.979 95.931 79.2368 95.9476 79.2327 95.5317C79.216 94.0137 79.2722 92.4915 79.1932 90.9776C79.1454 90.0917 78.4278 89.6031 77.5294 89.6509C76.631 89.6987 76.1443 90.2435 76.1152 91.2168C76.1193 91.8531 76.1298 92.5081 76.1194 93.1756ZM96.3779 77.1261C96.4992 77.173 96.6123 77.239 96.7128 77.3216C97.0954 77.7707 97.422 78.0515 97.9065 77.3777C98.1769 76.9972 98.4286 77.3943 98.6511 77.5857C98.7946 77.7104 98.911 78.1575 99.1627 77.7624C99.7866 76.8017 100.173 77.4068 100.618 77.9953C101.157 77.0803 101.715 76.9743 102.22 77.9953C102.551 77.6293 102.788 77.2821 103.183 77.1115C101.284 74.8303 98.3433 74.8345 96.3862 77.1157L96.3779 77.1261ZM14.2019 77.9953C14.6636 77.3112 15.0192 76.9119 15.7034 77.7458C16.0486 78.1617 16.2109 77.3299 16.5935 77.1968C17.0095 77.0616 16.5935 76.8558 16.4979 76.7393C15.2729 75.3648 13.0621 75.0216 11.363 75.9179C10.8348 76.1966 10.294 76.5147 10.0798 77.0575C10.0258 77.1906 10.6622 77.5961 10.9908 77.8893C11.4774 76.9161 12.0306 77.1323 12.5963 77.9912C13.1287 76.9327 13.6694 77.0845 14.2019 77.9953ZM81.6556 92.7597C81.6556 91.9279 81.616 91.0961 81.668 90.2643C81.7055 89.6779 81.4601 89.5802 80.9485 89.5843C80.4743 89.5843 80.285 89.6945 80.2954 90.2082C80.3287 91.9037 80.3287 93.5985 80.2954 95.2926C80.2954 95.8124 80.4722 95.9164 80.9505 95.9164C81.4871 95.9268 81.6972 95.7875 81.666 95.2219C81.6223 94.4233 81.6556 93.5915 81.6556 92.7597ZM61.0767 92.7597C61.0767 91.9279 61.0393 91.0961 61.0892 90.2643C61.1245 89.6862 60.8979 89.5656 60.3759 89.5781C59.9162 89.5781 59.6979 89.6571 59.7083 90.202C59.7443 91.8988 59.7443 93.595 59.7083 95.2905C59.7083 95.8041 59.8684 95.933 60.3592 95.933C60.85 95.933 61.1245 95.8415 61.0892 95.251C61.0414 94.4233 61.0767 93.5915 61.0767 92.7597ZM57.4788 92.7036C57.4788 93.5707 57.4934 94.4358 57.4788 95.3009C57.4684 95.7168 57.5578 95.9247 58.0445 95.9247C58.5312 95.9247 58.6018 95.6918 58.5977 95.2863C58.5852 93.5915 58.579 91.8926 58.5977 90.1978C58.5977 89.7653 58.5083 89.5739 58.032 89.5739C57.5558 89.5739 57.4643 89.7819 57.4767 90.1978C57.4975 91.0483 57.4788 91.8801 57.4788 92.7098V92.7036ZM63.352 92.7597C63.352 91.8988 63.327 91.0379 63.352 90.1791C63.3707 89.7237 63.2251 89.5698 62.7717 89.5864C62.3953 89.601 62.2164 89.6821 62.2206 90.1105C62.2413 91.8656 62.2372 93.6227 62.2206 95.3778C62.2206 95.7708 62.337 95.9206 62.7488 95.9268C63.1606 95.933 63.3728 95.7999 63.3499 95.3425C63.3332 94.4899 63.352 93.6269 63.352 92.7597ZM82.814 92.6204C82.814 93.4522 82.814 94.284 82.814 95.1158C82.814 95.513 82.685 95.9372 83.3817 95.9476C84.0264 95.9476 84.0056 95.617 84.0056 95.1678C83.9932 93.5416 83.9932 91.9162 84.0056 90.2914C84.0056 89.8755 84.0056 89.5947 83.4316 89.5823C82.789 89.5698 82.7952 89.888 82.8077 90.3475C82.8327 91.0961 82.816 91.8655 82.814 92.6266V92.6204ZM51.8261 92.7202C51.8261 91.8572 51.797 90.9942 51.8261 90.1333C51.8511 89.6259 51.6056 89.5885 51.2022 89.5843C50.7987 89.5802 50.5783 89.6467 50.5783 90.1437C50.6074 91.8669 50.6074 93.5915 50.5783 95.3175C50.5783 95.8686 50.8237 95.9102 51.2646 95.9289C51.77 95.9518 51.8219 95.7209 51.8136 95.305C51.8053 94.4524 51.8178 93.5915 51.8178 92.7265L51.8261 92.7202ZM30.5984 92.6994C30.5984 91.8676 30.5693 91.0358 30.6088 90.204C30.6337 89.6862 30.432 89.5656 29.9537 89.5802C29.5107 89.5802 29.3568 89.7174 29.363 90.1749C29.3866 91.9009 29.3866 93.6276 29.363 95.3549C29.363 95.8311 29.5523 95.9081 29.9724 95.9289C30.4799 95.9538 30.6296 95.7854 30.6088 95.2863C30.5734 94.4337 30.5901 93.5687 30.5901 92.7057L30.5984 92.6994ZM31.8171 92.6994C31.8171 93.5312 31.8317 94.363 31.8171 95.1948C31.8171 95.6565 31.8171 95.9601 32.441 95.9559C33.0337 95.9559 33.1086 95.7168 33.1003 95.226C33.0795 93.6019 33.0857 91.9778 33.1003 90.3558C33.1003 89.9025 33.1003 89.5906 32.4764 89.5927C31.8816 89.5927 31.8046 89.838 31.8213 90.3267C31.8213 91.1065 31.8088 91.9009 31.8088 92.6953L31.8171 92.6994ZM39.7762 92.8076C39.7762 91.9446 39.7429 91.0795 39.7887 90.2186C39.8157 89.6862 39.6015 89.5947 39.1294 89.5947C38.6573 89.5947 38.4805 89.7486 38.4889 90.2435C38.5159 91.9071 38.5117 93.5707 38.4889 95.2177C38.4889 95.7064 38.5533 95.9497 39.1481 95.9518C39.7429 95.9538 39.797 95.6606 39.772 95.1927C39.7512 94.3921 39.7679 93.5915 39.7679 92.8034L39.7762 92.8076ZM53.0428 92.6994C53.0428 93.5312 53.0573 94.363 53.0428 95.1948C53.0428 95.6523 53.0428 95.9622 53.6667 95.9559C54.2511 95.9559 54.3384 95.7251 54.3322 95.2281C54.3072 93.604 54.3135 91.982 54.3322 90.3579C54.3322 89.9004 54.3322 89.5885 53.7083 89.5947C53.1259 89.5947 53.0261 89.8256 53.0448 90.3246C53.0573 91.1065 53.0344 91.9009 53.0344 92.6953L53.0428 92.6994ZM74.936 92.8096C74.936 91.9446 74.9027 91.0774 74.9485 90.2165C74.9755 89.6758 74.7405 89.5927 74.2809 89.5927C73.8212 89.5927 73.6258 89.7299 73.6341 90.2373C73.6653 91.9009 73.659 93.5645 73.6341 95.2177C73.6341 95.7126 73.7048 95.9476 74.2954 95.9476C74.8861 95.9476 74.9547 95.6731 74.9402 95.1948C74.911 94.3963 74.9298 93.5915 74.9277 92.8055L74.936 92.8096ZM42.0868 92.7015C42.0868 91.8697 42.0681 91.0379 42.0868 90.2061C42.0993 89.7777 41.9932 89.5947 41.5149 89.5823C41.0033 89.5823 40.9741 89.8401 40.9783 90.2311C40.9783 91.9279 40.9949 93.6248 40.9783 95.3217C40.9783 95.7563 41.076 95.9289 41.5502 95.931C42.0639 95.931 42.0951 95.6773 42.0889 95.2884C42.0702 94.4233 42.0805 93.5624 42.0785 92.6973L42.0868 92.7015ZM55.5197 92.7015C55.5197 93.5645 55.5197 94.4275 55.5197 95.2905C55.5197 95.6606 55.5197 95.9455 56.0396 95.9434C56.5263 95.9434 56.6032 95.748 56.5991 95.3196C56.5824 93.629 56.5991 91.9362 56.5991 90.2456C56.5991 89.8713 56.5991 89.5885 56.0791 89.5885C55.5904 89.5885 55.5093 89.7965 55.5218 90.2123C55.5301 91.0358 55.5114 91.8655 55.5114 92.6953L55.5197 92.7015ZM72.4341 92.7743C72.4341 91.9134 72.4174 91.0525 72.4341 90.1936C72.4466 89.7777 72.3426 89.5698 71.8663 89.5947C71.4317 89.6093 71.2611 89.7174 71.2653 90.1791C71.2881 91.8988 71.284 93.6206 71.2653 95.3425C71.2653 95.7771 71.3838 95.9434 71.8455 95.9414C72.3072 95.9393 72.4528 95.8124 72.4362 95.357C72.4071 94.4899 72.4278 93.629 72.4258 92.7597L72.4341 92.7743Z" fill="#414042"/>
</mask>
<g mask="url(#mask0_20_457)">
<path d="M74.0149 83.267C74.0503 81.7615 73.8569 80.048 74.6388 78.4509C75.2191 77.2614 76.155 76.5149 77.4735 76.5003C78.8337 76.4837 79.834 77.2178 80.3976 78.4613C80.6318 78.9614 80.7969 79.4909 80.8884 80.0355C81.2233 82.2023 81.0195 84.3899 81.0819 86.5692C81.0943 87.0434 80.8739 87.1432 80.458 87.1536C79.9859 87.164 79.8673 86.9789 79.8756 86.5422C79.8964 85.2945 79.861 84.0468 79.8922 82.7991C79.9047 82.3001 79.7508 82.142 79.2496 82.1566C78.1432 82.1898 77.0326 82.2002 75.9221 82.1566C75.2981 82.1295 75.0715 82.2793 75.1047 82.9468C75.1651 84.1217 75.1047 85.3028 75.1297 86.4819C75.1297 86.9477 75.0361 87.1682 74.5058 87.1619C73.9754 87.1557 74.0191 86.8042 74.017 86.4653C74.0128 85.4567 74.0149 84.4523 74.0149 83.267ZM77.5338 80.9609H78.3657C80.0981 80.9609 80.1023 80.938 79.5324 79.2785C79.1914 78.2825 78.5695 77.7085 77.4798 77.7252C76.39 77.7418 75.8555 78.1993 75.4645 79.447C75.0028 80.9213 75.0299 80.9609 76.5044 80.9609H77.5338Z" fill="#414042"/>
<path d="M90.886 83.666C90.9692 83.1753 90.6947 82.5535 91.0649 82.0274C91.3851 81.572 91.8406 81.0729 92.398 81.2393C93.0427 81.4306 93.6458 81.8486 93.6229 82.7136C93.6021 83.4394 93.5979 84.1693 93.6229 84.893C93.6458 85.417 93.4607 85.6208 92.922 85.6624C90.886 85.8204 90.886 85.837 90.886 83.666ZM92.8492 83.6432C92.8492 83.404 92.8347 83.1649 92.8492 82.9257C92.8784 82.4891 92.6704 82.094 92.2877 82.0773C91.8343 82.0648 91.6409 82.4787 91.6638 82.9507C91.6867 83.4227 91.6908 83.9094 91.6638 84.3856C91.6326 84.9221 91.9737 84.8659 92.3272 84.8867C92.7286 84.9075 92.8929 84.7661 92.8576 84.3627C92.8264 84.1256 92.843 83.8844 92.8451 83.6432H92.8492Z" fill="#414042"/>
<path d="M30.2596 33.7916L8.42247 40.342C12.3046 41.8323 20.4224 44.8961 21.8367 45.2288C23.2509 45.5615 24.8523 46.6845 25.4762 47.2043C25.5455 51.6753 25.6425 60.8666 25.4762 61.8648C25.2682 63.1125 21.8367 66.8556 20.0689 66.8556C18.3011 66.8556 3.22317 50.4276 2.59925 51.2594C1.97533 52.0912 2.18331 56.874 4.57499 71.1185C6.48833 82.5142 16.88 94.0276 21.8367 98.3599C29.0811 100.439 44.7344 104.598 49.393 104.598C55.2162 104.598 79.8609 104.39 90.8835 98.3599C99.7015 93.5355 106.065 81.9319 108.145 76.7332L105.753 68.6231L94.107 66.8556L88.0758 64.4642C88.1452 61.2409 88.2422 54.4826 88.0758 53.2349C87.9095 51.9872 85.0949 43.08 83.7084 38.7824L79.8609 33.7916C76.4987 31.9894 69.5455 28.3433 68.6304 28.177C67.7154 28.0106 60.6235 25.127 57.192 23.7061L30.2596 33.7916Z" fill="#414042"/>
</g>
</g>
<defs>
<clipPath id="clip0_20_457">
<rect width="114" height="114" fill="white"/>
</clipPath>
</defs>
</svg>
