<svg width="68" height="67" viewBox="0 0 68 67" fill="none" xmlns="http://www.w3.org/2000/svg">
<g clip-path="url(#clip0_20_197)">
<path d="M56.0368 35.1949C56.7468 35.1949 57.3195 35.2053 57.8941 35.1949C58.6127 35.1794 58.9825 35.5313 58.9842 36.2301C58.9946 38.4142 59.038 40.6018 58.9495 42.786C58.9286 43.3226 58.552 43.9298 58.1684 44.3508C57.1529 45.467 56.8787 46.7144 56.8995 48.2016C56.9759 53.5188 56.9308 58.8377 56.9308 64.1549V65.2073C57.2658 65.2228 57.5696 65.247 57.8733 65.247C60.7947 65.247 63.716 65.247 66.6373 65.247C66.922 65.247 67.2831 65.2004 67.4741 65.3488C67.7327 65.5472 68.0243 65.9302 67.9948 66.2114C67.9653 66.4926 67.6007 66.7859 67.3108 66.9395C67.0834 67.0602 66.745 66.9791 66.4568 66.9791H1.55524C0.381843 66.9791 -0.0677158 66.7462 0.00692363 66.1027C0.124958 65.0986 0.932061 65.2556 1.61076 65.2539C4.38804 65.247 7.16532 65.247 9.9426 65.2539H10.9668V64.1549C10.9668 58.4909 10.9529 52.8269 10.9824 47.1647C10.9824 46.3728 10.8522 45.6861 10.3141 45.1082C9.21706 43.9333 8.92543 42.5479 9.03826 40.9814C9.13546 39.5511 9.05568 38.1071 9.05741 36.6683C9.05741 35.4054 9.25704 35.2052 10.4964 35.2052H11.8642C11.8642 33.499 11.9718 31.8859 11.8121 30.3004C11.7461 29.6275 11.1768 28.9668 10.7341 28.375C9.78118 27.0966 10.1821 25.675 10.2464 24.3C10.255 24.0791 10.7428 23.8203 11.0553 23.6927C11.2983 23.5926 11.6142 23.672 12.0013 23.672V21.4688C12.0013 19.5141 12.0187 17.5577 11.9839 15.603C11.96 15.2568 11.8263 14.927 11.602 14.661C11.1368 14.1072 11.1368 10.5791 11.602 10.0304C11.806 9.78375 11.9354 9.48465 11.9753 9.16783C12.034 8.65205 12.0369 8.1315 11.9839 7.6151C11.8104 5.86915 12.246 4.32677 13.3986 2.969C13.6312 2.69469 13.6815 2.24612 13.7458 1.86657C13.8013 1.55947 13.7458 1.2334 13.7683 0.919406C13.8152 0.370777 14.0617 -0.0277549 14.6849 0.00329956C15.2577 0.0309035 15.5527 0.410457 15.4711 0.929757C15.2976 2.13743 15.9242 2.96383 16.53 3.89719C16.99 4.60454 17.2156 5.51029 17.358 6.36083C17.4934 7.1717 17.3875 8.02225 17.3875 8.85555C17.3875 9.33344 17.2903 9.80788 17.9342 10.0632C18.1408 10.1443 18.2675 10.6412 18.2814 10.9569C18.3283 11.8747 18.3196 12.796 18.2814 13.7173C18.2692 14.0158 18.1912 14.4971 18.0124 14.5678C17.2261 14.8767 17.3857 15.4977 17.384 16.0774C17.384 18.2627 17.384 20.4481 17.384 22.6334V23.3424C18.0992 23.6875 18.8664 23.8324 19.1476 24.2758C19.4288 24.7192 19.2674 25.4835 19.3021 26.1736H48.5625C48.7083 25.047 48.0417 23.2217 50.484 23.6944V22.6593C50.484 20.5027 50.484 18.3461 50.484 16.1896C50.484 15.5564 50.6575 14.8767 49.9129 14.4488C49.7601 14.3608 49.7393 13.9778 49.7272 13.7294C49.7081 12.8115 49.6768 11.8868 49.7428 10.969C49.7688 10.6239 50.0431 10.2789 50.2011 9.93383C50.3 9.71817 50.4545 9.50423 50.4719 9.27995C50.5171 8.76335 50.5171 8.24382 50.4719 7.72723C50.2983 5.89674 50.7114 4.27673 51.923 2.83443C52.2337 2.4635 52.1886 1.76305 52.2216 1.20925C52.2563 0.588157 52.3066 0.00157305 53.0981 -0.00877844C53.8896 -0.0191299 54.032 0.577806 53.966 1.19889C53.8619 2.08912 54.1396 2.80855 54.7419 3.46242C55.1556 3.90722 55.4712 4.43303 55.6685 5.00613C55.8658 5.57923 55.9404 6.18699 55.8876 6.79043C55.8459 7.48053 55.8876 8.17063 55.8772 8.86073C55.8685 9.34897 55.8233 9.7958 56.4239 10.0563C56.6183 10.1408 56.7294 10.5894 56.7433 10.8775C56.7832 11.7402 56.7433 12.6028 56.7624 13.4654C56.7729 14.0347 56.7624 14.5575 56.1132 14.8301C55.99 14.8818 55.8911 15.1458 55.8911 15.3114C55.8789 17.9856 55.8911 20.6597 55.8911 23.3321C55.9077 23.4253 55.9369 23.5158 55.9779 23.6012C56.2035 23.6185 56.4291 23.6513 56.6548 23.6478C57.422 23.6375 57.7136 24.0325 57.7726 24.764C57.9011 26.4151 57.6841 27.9264 56.5889 29.2894C56.2191 29.75 56.0889 30.485 56.0507 31.1078C55.983 32.4345 56.0368 33.7561 56.0368 35.1949ZM41.4856 65.1987C41.4856 62.1364 41.4422 59.15 41.5047 56.167C41.5359 54.6522 40.9579 53.4963 39.8452 52.544C38.2327 51.1638 36.3216 50.3702 34.3237 49.7526C34.1298 49.6973 33.924 49.6973 33.73 49.7526C31.8102 50.3236 29.9582 51.0499 28.3786 52.3145C27.1636 53.2859 26.4796 54.4953 26.5421 56.1101C26.6116 57.8905 26.5577 59.6744 26.5577 61.4584V65.1952L41.4856 65.1987ZM30.7358 35.1483C30.7358 34.5669 30.7254 34.0286 30.7358 33.4904C30.7479 32.9193 31.0361 32.5294 31.6245 32.5398C32.213 32.5501 32.4785 32.9417 32.4716 33.5214C32.4716 34.0562 32.4716 34.5911 32.4716 35.1311H35.5718C35.5718 34.6135 35.5874 34.1598 35.5718 33.7043C35.5457 33.0867 35.7054 32.557 36.4119 32.5449C37.1739 32.5329 37.3318 33.097 37.3162 33.7405C37.3058 34.1925 37.3162 34.6445 37.3162 35.138H40.4025C40.4025 34.5738 40.4025 34.0631 40.4025 33.5525C40.3938 32.9866 40.6212 32.5622 41.2183 32.5398C41.8675 32.5139 42.1227 32.9624 42.1365 33.5542C42.1487 34.0839 42.1365 34.6152 42.1365 35.1397H45.2002C45.2002 34.5755 45.1898 34.0631 45.2002 33.5525C45.2141 33.0073 45.4224 32.5484 46.0317 32.5398C46.6722 32.5294 46.9308 32.9538 46.9169 33.5749C46.9065 34.1028 46.9169 34.6325 46.9169 35.1483H50.2862V30.5833H17.6062V35.1535H21.1264C21.1264 34.5963 21.1264 34.0873 21.1264 33.5784C21.1177 33.0176 21.3225 32.5812 21.9266 32.5432C22.5792 32.5104 22.8379 32.9504 22.8518 33.5456C22.8657 34.0769 22.8518 34.61 22.8518 35.1414H25.9103C25.9103 34.5773 25.9016 34.0649 25.9103 33.5542C25.9224 32.9573 26.1845 32.5191 26.8302 32.5415C27.4256 32.5656 27.653 32.9866 27.6391 33.5594C27.6252 34.089 27.6391 34.6187 27.6391 35.1501L30.7358 35.1483ZM24.7664 61.8897V43.8574C23.2719 43.8574 21.8346 43.8574 20.3956 43.8574C20.2863 43.8574 20.1231 43.8798 20.0763 43.9505C19.4444 44.9063 18.4064 45.5999 18.4185 46.9525C18.4567 51.5226 18.4342 56.0963 18.4342 60.6647V61.8897H24.7664ZM49.4617 61.9121C49.4617 61.517 49.4617 61.2082 49.4617 60.8994C49.4617 56.305 49.4148 51.709 49.4911 47.1146C49.5137 45.7638 48.6111 44.9995 48.0209 44.0092C47.9855 43.9649 47.941 43.9286 47.8904 43.9028C47.8399 43.8769 47.7844 43.862 47.7275 43.8591C46.24 43.8591 44.7524 43.8591 43.2857 43.8591V61.9156L49.4617 61.9121ZM26.5872 51.6124C28.4654 49.8871 30.59 48.9538 32.8101 48.1981C33.6021 47.9199 34.4674 47.9278 35.2541 48.2205C37.4742 48.9831 39.5623 49.9716 41.4353 51.6141V43.9212H26.5872V51.6124ZM20.5328 39.2786H47.4776V36.9857H20.5328V39.2786ZM12.779 46.7178V61.8828H16.6342V46.7178H12.779ZM55.1499 61.9V46.7075H51.2634V61.9H55.1499ZM10.8522 36.9564V42.0735H18.7015V36.9564H10.8522ZM57.2085 36.9961H49.3419V42.051H57.1981L57.2085 36.9961ZM47.5331 41.1367H20.4911C20.5084 41.4921 20.5224 41.7681 20.5362 42.0579H47.5279L47.5331 41.1367ZM49.3141 28.7632L49.4373 28.4889C49.0902 28.3163 48.743 27.9885 48.3958 27.9868C38.7668 27.9592 29.1377 27.9592 19.5087 27.9868C19.1615 27.9868 18.8143 28.3215 18.4672 28.5044L18.5939 28.7649L49.3141 28.7632ZM50.4458 25.4248C50.0397 26.8775 50.7045 28.111 51.6609 28.6528C52.4698 29.1134 53.8358 28.9288 54.8339 28.6303C55.7105 28.3664 56.1774 26.4721 55.9049 25.4248H50.4458ZM17.4448 25.4352H11.9995C11.7704 26.4893 12.3033 28.4699 13.0983 28.6597C14.1224 28.9047 15.4642 29.0944 16.2766 28.6303C17.2261 28.0765 17.8839 26.8413 17.4482 25.4283L17.4448 25.4352ZM13.8031 14.868V23.5892H15.5874V14.868H13.8031ZM54.0858 23.6168V14.8939H52.2858V23.6168H54.0858ZM54.2455 30.5954H52.1626V35.1414H54.2455V30.5954ZM15.7645 30.5799H13.6815V35.1431H15.7645V30.5799ZM24.7577 65.2073V63.7184H18.4897V65.2073H24.7577ZM43.2631 65.1918H49.3991V63.7288H43.2631V65.1918ZM13.6989 9.78891H15.7003C15.3896 7.92219 16.3668 5.91572 14.6744 4.28537C13.1087 5.94333 13.9766 7.91357 13.6989 9.78891ZM54.0563 9.78891C54.2298 6.16589 54.4034 5.22735 53.0322 4.38198C51.6227 6.04167 52.468 7.97395 52.2233 9.78891H54.0563ZM12.7442 65.1987H16.6463V63.7288H12.7442V65.1987ZM55.1655 63.7253H51.2616V65.1676H55.1655V63.7253ZM17.778 43.9212H11.7201C12.2252 44.927 12.2252 44.9287 13.1556 44.9322C14.2249 44.9322 15.2959 44.8856 16.3617 44.9477C17.1532 45.0012 17.4968 44.5992 17.778 43.9212ZM50.1889 43.897C50.432 44.6217 50.7913 44.9926 51.5776 44.9477C52.6761 44.8889 53.7771 44.8889 54.8756 44.9477C55.6671 44.9874 55.9917 44.5768 56.2364 43.8988L50.1889 43.897ZM51.522 13.06H54.9676V11.5987H51.522V13.06ZM16.5318 11.6297H13.0602V13.1135H16.5318V11.6297Z" fill="#414042"/>
<path d="M41.4857 65.1988H26.5578V61.462C26.5578 59.6798 26.6117 57.8959 26.5423 56.1137C26.4798 54.4937 27.1672 53.2843 28.3787 52.3182C29.9583 51.0535 31.8104 50.3272 33.7301 49.7561C33.9241 49.7009 34.1299 49.7009 34.3239 49.7561C36.3218 50.3738 38.2328 51.176 39.8454 52.5476C40.958 53.4948 41.5361 54.6507 41.5048 56.1706C41.4423 59.1501 41.4857 62.1365 41.4857 65.1988Z" fill="white"/>
<path d="M30.7357 35.1485H27.6391C27.6391 34.6171 27.6287 34.0874 27.6391 33.5578C27.653 32.985 27.4256 32.564 26.8302 32.5399C26.1845 32.514 25.9224 32.9557 25.9102 33.5526C25.8998 34.0702 25.9102 34.5757 25.9102 35.1398H22.8517C22.8517 34.6084 22.8622 34.0753 22.8517 33.544C22.8379 32.9488 22.5792 32.5088 21.9265 32.5416C21.3225 32.5727 21.1177 33.0091 21.1264 33.5768C21.1264 34.0943 21.1264 34.5947 21.1264 35.1519H17.6062V30.5817H50.2809V35.1467H46.9117C46.9117 34.6292 46.9031 34.1012 46.9117 33.5733C46.9256 32.9608 46.667 32.5382 46.0265 32.5382C45.4172 32.5382 45.2089 33.0057 45.195 33.5509C45.1829 34.0684 45.195 34.5739 45.195 35.1381H42.1313C42.1313 34.6205 42.1418 34.0822 42.1313 33.5526C42.1175 32.9608 41.8623 32.5174 41.2131 32.5382C40.616 32.5606 40.3886 32.985 40.3972 33.5509C40.3972 34.0684 40.3972 34.5722 40.3972 35.1364H37.311C37.311 34.6429 37.3023 34.1909 37.311 33.7389C37.3266 33.0954 37.1687 32.5313 36.4067 32.5433C35.7002 32.5554 35.5387 33.0851 35.5665 33.7027C35.5856 34.1582 35.5665 34.6136 35.5665 35.1295H32.4664C32.4664 34.5895 32.4664 34.0546 32.4664 33.5198C32.4664 32.9401 32.2078 32.5485 31.6193 32.5382C31.0309 32.5278 30.7427 32.9177 30.7306 33.4888C30.7254 34.0288 30.7357 34.567 30.7357 35.1485Z" fill="white"/>
<path d="M24.7669 61.8931H18.4347V60.6682C18.4347 56.098 18.4572 51.5244 18.4191 46.9559C18.4069 45.6033 19.445 44.9098 20.0768 43.954C20.1237 43.8833 20.2868 43.8608 20.3962 43.8608C21.8351 43.8608 23.2724 43.8608 24.7669 43.8608V61.8931ZM20.8127 53.4101C20.8127 53.5826 20.8127 53.7551 20.8127 53.9277C20.8023 54.4935 21.0297 54.8817 21.639 54.9007C22.3004 54.9214 22.5329 54.4953 22.5485 53.9087C22.5589 53.5636 22.5589 53.222 22.5485 52.8839C22.5294 52.2904 22.2708 51.8798 21.6199 51.9074C21.0071 51.9333 20.8041 52.3473 20.8145 52.9029C20.8162 53.065 20.8127 53.2376 20.8127 53.4101ZM20.8127 58.8256C20.8127 58.9982 20.8127 59.1707 20.8127 59.3432C20.8006 59.9194 21.0783 60.3128 21.6511 60.3283C22.2239 60.3438 22.519 59.954 22.5485 59.3881C22.5589 59.2155 22.5572 59.043 22.5485 58.8705C22.5294 58.1976 22.6787 57.3419 21.6806 57.3178C20.6235 57.2781 20.8544 58.17 20.8127 58.8222V58.8256ZM20.8127 47.9566V48.557C20.8127 49.1297 21.094 49.5921 21.6616 49.48C21.9966 49.4161 22.3941 48.9779 22.5069 48.6173C22.6436 48.1485 22.6357 47.6497 22.4843 47.1854C22.3853 46.8835 21.9202 46.4729 21.6737 46.5056C21.3595 46.5488 21.0575 46.9628 20.8371 47.2768C20.7312 47.4373 20.8197 47.7271 20.8197 47.9548L20.8127 47.9566Z" fill="white"/>
<path d="M49.4621 61.9158H43.2861V43.8662C44.7529 43.8662 46.237 43.8662 47.728 43.8662C47.7848 43.8691 47.8403 43.884 47.8909 43.9099C47.9415 43.9357 47.986 43.972 48.0214 44.0163C48.6115 44.998 49.5142 45.7623 49.4916 47.1218C49.4152 51.7161 49.4621 56.3121 49.4621 60.9065C49.4604 61.2118 49.4621 61.5189 49.4621 61.9158ZM45.4541 48.0016C45.4541 48.1155 45.4541 48.2311 45.4541 48.3467C45.4246 48.9453 45.5444 49.4922 46.2682 49.5078C47.0285 49.525 47.1952 48.9695 47.1882 48.3329C47.1882 48.2178 47.1882 48.1028 47.1882 47.9878C47.1882 47.3219 47.2629 46.5938 46.3446 46.4679C45.7145 46.3851 45.4524 46.8716 45.4541 48.0016ZM45.4541 58.7792C45.4541 58.9518 45.4541 59.1243 45.4541 59.2968C45.4281 59.861 45.652 60.2854 46.2422 60.3164C46.8705 60.3492 47.1621 59.9334 47.183 59.3365C47.1986 58.938 47.2975 58.4877 47.1465 58.1547C46.9955 57.8217 46.6171 57.3973 46.2786 57.3266C45.7579 57.2179 45.4749 57.6475 45.4645 58.1892C45.4541 58.379 45.4576 58.586 45.4576 58.7792H45.4541ZM45.4541 53.4034C45.4541 53.5759 45.4541 53.7484 45.4541 53.9209C45.4437 54.492 45.6676 54.8888 46.289 54.8974C46.9105 54.9061 47.1569 54.511 47.1795 53.952C47.1968 53.5224 47.2889 53.0445 47.1379 52.6736C47.0042 52.351 46.5754 51.949 46.2786 51.949C45.9818 51.949 45.6885 52.4096 45.4784 52.7271C45.3708 52.8927 45.4594 53.1739 45.4594 53.4103L45.4541 53.4034Z" fill="white"/>
<path d="M26.5869 51.616V43.9214H41.435V51.6177C39.562 49.9753 37.4739 48.9867 35.2538 48.2241C34.4671 47.9314 33.6018 47.9235 32.8098 48.2017C30.5897 48.9574 28.4651 49.8821 26.5869 51.616Z" fill="white"/>
<path d="M20.5332 39.2821V36.9858H47.478V39.2821H20.5332Z" fill="white"/>
<path d="M55.1502 61.9123H51.2637V46.7197H55.1502V61.9123Z" fill="white"/>
<path d="M57.1977 36.9961V42.0511H49.3311V36.9961H57.1977Z" fill="white"/>
<path d="M47.5281 41.1299V42.0512H20.5364C20.5225 41.7613 20.5086 41.4853 20.4912 41.1299H47.5281Z" fill="white"/>
<path d="M49.3084 28.7563H18.5847L18.458 28.4958C18.8052 28.3233 19.1523 27.9782 19.4995 27.9782C29.1286 27.9506 38.7577 27.9506 48.3868 27.9782C48.7339 27.9782 49.0811 28.306 49.4282 28.4803L49.3084 28.7563Z" fill="white"/>
<path d="M50.4409 25.418H55.8965C56.169 26.4652 55.7021 28.3509 54.8255 28.6235C53.8274 28.9219 52.4613 29.1065 51.6524 28.6459C50.6995 28.1042 50.0347 26.8706 50.4409 25.418Z" fill="white"/>
<path d="M54.0879 23.6169H52.2861V14.894H54.0879V23.6169Z" fill="white"/>
<path d="M54.2473 30.5955V35.1415H52.1643V30.5955H54.2473Z" fill="white"/>
<path d="M24.76 65.2076H18.4902V63.7188H24.753L24.76 65.2076Z" fill="white"/>
<path d="M43.2649 65.1919V63.7289H49.401V65.1919H43.2649Z" fill="white"/>
<path d="M54.0559 9.78926H52.2229C52.4676 7.97429 51.6223 6.04201 53.0318 4.38232C54.4065 5.2277 54.226 6.16451 54.0559 9.78926Z" fill="white"/>
<path d="M55.1674 63.7256V65.1679H51.2637V63.7256H55.1674Z" fill="white"/>
<path d="M50.1895 43.9043H56.2335C55.9887 44.5823 55.6642 44.9929 54.8726 44.9532C53.7741 44.8944 52.6732 44.8944 51.5746 44.9532C50.7918 44.9998 50.429 44.6289 50.1895 43.9043Z" fill="white"/>
<path d="M51.5225 13.0673V11.606H54.968V13.0673H51.5225Z" fill="white"/>
<path d="M20.8126 53.4104C20.8126 53.2378 20.8126 53.0653 20.8126 52.8928C20.8022 52.3372 21.0053 51.9232 21.618 51.8973C22.2689 51.8697 22.5276 52.2803 22.5467 52.8738C22.5583 53.2189 22.5583 53.5604 22.5467 53.8986C22.5311 54.4852 22.2984 54.9113 21.6371 54.8906C21.0278 54.8716 20.8005 54.4834 20.8109 53.9176C20.8144 53.7554 20.8126 53.5829 20.8126 53.4104Z" fill="#414042"/>
<path d="M20.8109 58.8224C20.8543 58.1703 20.6235 57.2783 21.6788 57.3094C22.6769 57.3387 22.5276 58.1944 22.5467 58.8621C22.5467 59.0346 22.5467 59.2072 22.5467 59.3797C22.5172 59.9456 22.2221 60.3355 21.6493 60.32C21.0765 60.3044 20.7988 59.9111 20.8109 59.3348C20.8144 59.1657 20.8127 58.995 20.8109 58.8224Z" fill="#414042"/>
<path d="M20.8192 47.955C20.8192 47.7272 20.7306 47.4374 20.8382 47.2838C21.0587 46.9698 21.359 46.5558 21.675 46.5126C21.9214 46.4799 22.3866 46.8905 22.4856 47.1924C22.6369 47.6567 22.6448 48.1555 22.5081 48.6244C22.3953 48.9694 21.9978 49.4145 21.6627 49.487C21.0951 49.5939 20.8123 49.1419 20.814 48.564V47.9636L20.8192 47.955Z" fill="#414042"/>
<path d="M45.454 48.0013C45.454 46.8713 45.7143 46.3848 46.3427 46.4693C47.2609 46.5953 47.1915 47.3319 47.1863 47.9893C47.1863 48.1043 47.1863 48.2193 47.1863 48.3343C47.1863 48.9709 47.0266 49.5265 46.2663 49.5092C45.5425 49.4937 45.4227 48.9468 45.4523 48.3481C45.4592 48.2342 45.454 48.1152 45.454 48.0013Z" fill="#414042"/>
<path d="M45.4568 58.779C45.4568 58.5789 45.4568 58.3787 45.4568 58.1803C45.4672 57.6421 45.7484 57.2125 46.2709 57.3177C46.618 57.3885 46.9877 57.7973 47.1388 58.1458C47.2898 58.4943 47.1908 58.9291 47.1752 59.3276C47.1544 59.9246 46.8628 60.3403 46.2344 60.3076C45.6442 60.2765 45.4203 59.8521 45.4464 59.2879C45.455 59.1154 45.4464 58.9429 45.4464 58.7704L45.4568 58.779Z" fill="#414042"/>
<path d="M45.4588 53.4102C45.4588 53.1807 45.3703 52.8926 45.4779 52.7339C45.6879 52.4165 45.9986 51.9558 46.2781 51.9558C46.5575 51.9558 47.0037 52.3578 47.1373 52.6804C47.2883 53.0514 47.1963 53.5293 47.1789 53.9588C47.1546 54.5178 46.903 54.9146 46.2885 54.9043C45.674 54.8939 45.4432 54.4988 45.4536 53.9278C45.4536 53.7553 45.4536 53.5827 45.4536 53.4102H45.4588Z" fill="#414042"/>
</g>
<defs>
<clipPath id="clip0_20_197">
<rect width="68" height="67" fill="white"/>
</clipPath>
</defs>
</svg>
