<svg width="61" height="61" viewBox="0 0 61 61" fill="none" xmlns="http://www.w3.org/2000/svg">
<g clip-path="url(#clip0_20_68)">
<path d="M60.845 46.7311C60.8877 46.8266 60.9228 46.9254 60.9499 47.0264C61.1335 49.953 60.9285 50.053 58.2367 50.0483C39.7209 50.0197 21.2036 50.0197 2.68462 50.0483C0.360018 50.0483 -0.338557 50.2483 0.150206 46.7287C1.42814 46.7287 2.72754 46.7144 4.02693 46.7287C4.79226 46.7406 5.43362 46.5477 5.43601 45.6738C5.43839 44.7999 4.80894 44.5665 4.046 44.5665C2.74183 44.5665 1.44006 44.5665 0.0572187 44.5665C0.0333766 44.0759 0 43.6902 0 43.3068C0 32.0733 0 20.8413 0 9.61102C0 7.85599 0.221726 7.63929 1.99081 7.63929H17.6074V14.1236C16.5083 14.1236 15.4139 14.1236 14.3196 14.1236C12.0164 14.1403 10.9268 15.0762 10.4571 17.3289C9.01231 24.3046 7.56112 31.2771 6.10357 38.2464C5.62673 40.5659 7.0358 42.3995 9.38902 42.4019C23.4559 42.4161 37.5227 42.4161 51.5895 42.4019C53.9475 42.4019 55.3733 40.5706 54.894 38.2607C53.4349 31.2073 51.9726 24.1562 50.5071 17.1074C50.1041 15.1667 48.9216 14.1713 46.9308 14.126C45.7863 14.1022 44.6419 14.126 43.3878 14.126V7.69644C43.6247 7.66048 43.8636 7.63981 44.1031 7.63453C49.1886 7.63453 54.2741 7.64643 59.362 7.62024C60.4349 7.62024 61.0119 7.97744 61.0119 9.11333C61.0024 20.7818 60.9976 32.4503 60.9976 44.1188C60.9797 44.2662 60.9534 44.4125 60.9189 44.557H9.75619C8.85258 44.557 7.68192 44.3807 7.69146 45.6928C7.701 47.005 8.88356 46.7049 9.70849 46.7049C26.2787 46.7049 42.849 46.7049 59.4193 46.7049L60.845 46.7311Z" fill="#C2202B"/>
<path d="M27.8615 32.6503C26.1186 32.6503 24.6571 32.6623 23.1932 32.6503C22.4016 32.6503 21.8271 32.9147 21.8533 33.7767C21.8795 34.5673 22.4398 34.8126 23.1741 34.8102C28.0617 34.8102 32.9486 34.8102 37.8346 34.8102C38.5761 34.8102 39.1245 34.5435 39.1388 33.76C39.1555 32.898 38.569 32.6408 37.7822 32.6503C36.323 32.6694 34.8639 32.6503 33.2021 32.6503C34.2726 31.3501 35.2382 30.2214 36.1538 29.0522C38.991 25.4373 41.2369 21.5034 42.646 17.1074C42.7318 16.9187 42.8605 16.7527 43.022 16.6224C43.1834 16.4922 43.3731 16.4014 43.5758 16.3573C44.6797 16.2621 45.7979 16.324 46.9137 16.3216C47.7529 16.3216 48.2083 16.7121 48.3824 17.5551C49.801 24.461 51.2434 31.3454 52.674 38.2417C53.0125 39.8872 52.6739 40.2634 50.9287 40.2634H10.0419C8.3205 40.2634 7.98195 39.8848 8.32528 38.2203C9.75581 31.3144 11.1863 24.4324 12.6169 17.5361C12.7766 16.7598 13.1819 16.3454 13.983 16.3264H14.2214C15.4517 16.3383 16.9299 15.9406 17.8383 16.4883C18.6417 16.9646 18.8229 18.5053 19.2688 19.584C21.0617 24.0538 23.7487 27.9544 26.8982 31.5573C27.1534 31.8407 27.4085 32.1336 27.8615 32.6503Z" fill="#C2202B"/>
<path d="M30.4395 32.2122C25.0131 26.2588 20.3209 20.0317 19.6224 11.6804C19.1455 5.95329 23.5372 0.714381 29.3785 0.0642798C35.1412 -0.576296 40.5676 3.72199 41.2591 9.45384C41.6739 12.9068 40.8108 16.1215 39.5066 19.2649C37.728 23.5346 34.0301 28.795 30.4395 32.2122ZM36.9842 10.966C36.9898 9.68476 36.615 8.43064 35.9072 7.36211C35.1994 6.29359 34.1903 5.45865 33.0074 4.96281C31.8246 4.46698 30.5211 4.33251 29.2618 4.57641C28.0025 4.8203 26.8438 5.43162 25.9323 6.33308C25.0207 7.23454 24.3972 8.38569 24.1405 9.64101C23.8839 10.8963 24.0056 12.1995 24.4903 13.3857C24.9749 14.572 25.8008 15.5881 26.8636 16.3056C27.9263 17.0232 29.1782 17.4099 30.461 17.417C32.1805 17.4189 33.8311 16.7419 35.053 15.5336C36.2749 14.3252 36.9691 12.6834 36.9842 10.966Z" fill="#88161F"/>
<path d="M39.8 56.6374H21.2031L22.8578 52.2462H38.1453C38.6794 53.6679 39.2206 55.0871 39.8 56.6374Z" fill="#C2202B"/>
<path d="M30.4464 60.9905C26.2812 60.9905 22.116 60.9905 17.9508 60.9905C17.0472 60.9905 16.2628 60.7785 16.2818 59.776C16.3009 58.7735 17.1044 58.5853 17.9961 58.5853C26.3265 58.5996 34.6569 58.5996 42.9874 58.5853C43.8695 58.5853 44.6968 58.7401 44.7159 59.745C44.735 60.8381 43.8695 60.9833 42.9444 60.9786C38.7768 60.9786 34.6116 60.9905 30.4464 60.9905Z" fill="#C2202B"/>
<path d="M34.8143 10.8612C34.8143 11.7146 34.5608 12.5489 34.0858 13.2583C33.6108 13.9678 32.9358 14.5205 32.1461 14.8466C31.3565 15.1727 30.4877 15.2574 29.6498 15.09C28.8119 14.9226 28.0425 14.5107 27.4391 13.9064C26.8358 13.3021 26.4255 12.5325 26.2602 11.6952C26.095 10.8579 26.1822 9.99036 26.5108 9.20255C26.8395 8.41474 27.3947 7.74204 28.1064 7.2696C28.818 6.79717 29.654 6.54624 30.5084 6.5486C31.6515 6.55175 32.7467 7.0075 33.5539 7.81592C34.3611 8.62435 34.8143 9.71947 34.8143 10.8612Z" fill="#88161F"/>
</g>
<defs>
<clipPath id="clip0_20_68">
<rect width="61" height="61" fill="white"/>
</clipPath>
</defs>
</svg>
