<svg width="71" height="58" viewBox="0 0 71 58" fill="none" xmlns="http://www.w3.org/2000/svg">
<g clip-path="url(#clip0_20_80)">
<path d="M0.333984 45.4354C0.806693 39.1306 1.22589 33.4787 1.67184 27.8179C1.82792 25.7958 2.07767 23.7648 2.1847 21.7652C2.26497 20.2025 3.03648 19.6396 4.48582 19.7792C4.6338 19.7995 4.7838 19.7995 4.93177 19.7792C9.73468 18.9911 13.3157 20.0945 15.4607 25.1834C16.58 27.8314 19.0595 29.9075 20.9816 32.1907C21.7809 33.0533 22.6234 33.8739 23.5057 34.6496C27.4674 30.8532 30.8061 26.4448 33.3969 21.5896C34.1505 20.162 34.9845 19.6756 36.5185 19.7567C38.668 19.8738 40.8264 19.8153 42.9804 19.7567C44.4654 19.7297 45.2102 20.3241 45.0942 21.9003C44.6483 29.1059 44.1711 36.2709 43.7564 43.4584C43.685 44.7148 43.2168 45.1157 41.9726 45.1021C36.474 45.0526 30.9754 45.1021 25.4723 45.0481C24.469 45.0481 23.4878 44.4221 22.4755 44.3365C21.1575 44.2585 19.8356 44.2751 18.5199 44.3861C12.5754 44.7104 6.62637 45.0751 0.333984 45.4354Z" fill="#C2202B"/>
<path d="M64.6893 52.2131C63.7082 47.0026 61.0325 44.305 57.0635 44.278C52.885 44.2464 50.4144 46.7053 49.3174 52.1095C48.635 52.141 47.9126 52.1545 47.1902 52.2176C45.277 52.3842 44.7909 51.4925 44.9158 49.6416C45.5134 40.8103 46.0039 31.97 46.5034 23.1343C46.6639 20.2611 47.101 19.7972 49.9907 19.7837C51.7032 19.7837 53.4112 19.7837 55.1192 19.7837C58.1026 19.7837 60.2342 21.1347 61.4428 23.8998C62.6513 26.665 63.8777 29.3761 64.9524 32.1682C65.5634 33.7444 66.4151 34.8703 68.0741 35.3476C70.3484 36.0051 71.1958 37.5183 70.9549 39.9367C70.6562 43.0891 70.5536 46.2415 70.509 49.3939C70.509 51.4385 69.8846 52.5463 67.6504 52.2491C66.6651 52.1744 65.6761 52.1624 64.6893 52.2131ZM61.0281 32.3978C60.1005 30.0921 59.3245 28.1691 58.5575 26.2461C57.5273 23.6747 53.206 22.0174 50.8068 23.3009C50.6549 23.3896 50.5237 23.5104 50.4221 23.6549C50.3205 23.7995 50.251 23.9644 50.2182 24.1385C50.0398 26.8406 49.9194 29.5877 49.7722 32.3978H61.0281Z" fill="#C2202B"/>
<path d="M23.4664 33.0599C18.0481 27.4891 13.1783 21.8012 11.7914 13.9652C11.3492 11.5835 11.6496 9.12184 12.6512 6.91979C13.6528 4.71774 15.3063 2.88376 17.3837 1.67078C21.4864 -0.82864 26.5122 -0.508878 30.557 2.50393C34.3387 5.31859 35.9531 10.2093 34.6375 15.1676C32.769 22.193 28.3719 27.6242 23.4664 33.0599ZM23.2568 6.61108C21.9776 6.64398 20.7617 7.18037 19.8686 8.10585C18.9754 9.03133 18.4758 10.2726 18.4762 11.5649C18.5148 12.8522 19.0418 14.0753 19.9481 14.9813C20.8545 15.8874 22.071 16.4071 23.346 16.4331C24.6328 16.4212 25.8622 15.8935 26.7638 14.9662C27.6653 14.0388 28.1652 12.7878 28.1533 11.4883C28.1415 10.1888 27.619 8.94729 26.7007 8.03686C25.7825 7.12642 24.5436 6.62165 23.2568 6.63359V6.61108Z" fill="#88161F"/>
<path d="M26.7305 46.6558H43.4938C43.4314 48.0068 43.5652 49.3263 43.2441 50.4972C43.0657 51.1412 42.1292 52.0104 41.5093 52.0284C37.1568 52.159 32.7954 52.1004 28.5767 52.1004L26.7305 46.6558Z" fill="#C2202B"/>
<path d="M26.7085 51.7492C26.6416 55.3069 24.0774 57.7883 20.5276 57.7297C19.7258 57.7209 18.934 57.5492 18.1994 57.2249C17.4647 56.9005 16.8022 56.4302 16.2513 55.8419C15.7003 55.2537 15.2723 54.5594 14.9926 53.8006C14.7129 53.0417 14.5872 52.2338 14.6232 51.4249C14.7481 47.9618 17.2677 45.4984 20.6703 45.5119C22.2899 45.5309 23.8358 46.1986 24.9681 47.3682C26.1003 48.5378 26.7263 50.1136 26.7085 51.7492ZM23.676 51.7852C23.679 50.9946 23.3877 50.2317 22.8599 49.6479C22.3321 49.064 21.6063 48.7017 20.8264 48.6328C20.0322 48.6011 19.2581 48.8894 18.6743 49.4341C18.0906 49.9789 17.745 50.7355 17.7137 51.5375C17.6823 52.3395 17.9678 53.1213 18.5072 53.7108C19.0466 54.3003 19.7958 54.6493 20.59 54.6809C20.9807 54.6972 21.3707 54.6349 21.7373 54.4977C22.1039 54.3605 22.44 54.1511 22.7258 53.8817C23.0117 53.6123 23.2417 53.2883 23.4025 52.9284C23.5633 52.5685 23.6518 52.1799 23.6627 51.7852H23.676Z" fill="#C2202B"/>
<path d="M56.9209 45.7957C57.7219 45.7654 58.5207 45.9009 59.268 46.1938C60.0153 46.4868 60.6953 46.931 61.2663 47.4992C61.8373 48.0674 62.2871 48.7475 62.5882 49.4977C62.8893 50.248 63.0352 51.0525 63.017 51.8618C63.017 55.4286 60.4617 58.0181 56.9788 58C55.4014 57.9692 53.8965 57.3251 52.7775 56.2019C51.6585 55.0786 51.0118 53.5627 50.9719 51.9699C50.9094 48.3762 53.3622 45.8317 56.9209 45.7957ZM56.9476 54.8701C57.3364 54.8968 57.7265 54.8421 58.0934 54.7095C58.4604 54.577 58.7962 54.3693 59.0801 54.0996C59.3639 53.8299 59.5895 53.504 59.7428 53.1422C59.8962 52.7804 59.9739 52.3905 59.9712 51.9969C59.9991 51.6052 59.9479 51.2117 59.821 50.8405C59.694 50.4692 59.4937 50.1278 59.2324 49.8369C58.971 49.546 58.6539 49.3117 58.3003 49.1481C57.9467 48.9845 57.5639 48.895 57.1751 48.8851C56.7711 48.8405 56.3624 48.8847 55.9769 49.0146C55.5914 49.1445 55.2384 49.357 54.9419 49.6376C54.6454 49.9183 54.4124 50.2603 54.2591 50.6403C54.1057 51.0203 54.0356 51.4294 54.0534 51.8393C54.0473 52.6265 54.3469 53.3847 54.8879 53.9513C55.429 54.5179 56.1685 54.8478 56.9476 54.8701Z" fill="#C2202B"/>
<path d="M14.5153 46.5117C13.882 48.5473 13.3513 50.2315 12.7716 52.078C9.15044 52.078 5.45799 52.078 1.76551 52.078C0.262654 52.078 -0.227898 51.1097 0.0887283 49.8262C0.383057 48.6598 -0.803195 46.6018 1.57373 46.5387C5.84595 46.4486 10.1271 46.5117 14.5153 46.5117Z" fill="#C2202B"/>
</g>
<defs>
<clipPath id="clip0_20_80">
<rect width="71" height="58" fill="white"/>
</clipPath>
</defs>
</svg>
