<svg width="67" height="58" viewBox="0 0 67 58" fill="none" xmlns="http://www.w3.org/2000/svg">
<g clip-path="url(#clip0_20_75)">
<path d="M20.9709 40.4936C20.9709 38.7793 20.9426 36.9843 20.9709 35.1924C21.0401 31.7823 19.813 29.1782 16.4306 27.808C16.0876 27.6685 15.7635 27.0422 15.7478 26.633C15.6377 23.3841 15.5811 20.1228 15.5465 16.8832C15.5181 14.0931 15.5716 11.303 15.5244 8.51286C15.5244 7.56423 15.7101 7.08061 16.783 6.7861C24.627 4.61602 32.4365 2.33124 40.2742 0.136364C40.9712 -0.0435791 41.7044 -0.0371591 42.3981 0.154964C50.1823 2.34054 57.9477 4.59123 65.732 6.77371C66.6444 7.02791 67.022 7.36273 66.9905 8.32376C66.8898 14.5705 67.0125 20.8234 66.7419 27.0608C66.1693 40.3045 55.0435 53.6691 42.0331 56.9614C41.484 57.1086 40.9025 57.0881 40.3655 56.9025C37.7193 55.8144 35.1172 54.6301 32.4994 53.511C31.5555 53.108 31.3761 52.4508 31.5555 51.53C31.933 49.67 32.2477 47.782 32.6032 45.9095C32.7233 45.2759 32.7015 44.6242 32.5394 43.9997C32.3773 43.3753 32.0788 42.7933 31.6647 42.2943C31.2506 41.7954 30.7309 41.3916 30.1419 41.1111C29.553 40.8305 28.9089 40.6801 28.2548 40.6703C25.9517 40.6176 23.6453 40.6238 21.3327 40.6021C21.2096 40.5747 21.0887 40.5384 20.9709 40.4936ZM41.108 41.4237C48.3228 41.5663 54.3576 35.7598 54.4363 28.6016C54.5149 21.648 48.6437 15.6865 41.6114 15.5811C38.1186 15.507 34.7381 16.7986 32.2092 19.1735C29.6803 21.5484 28.2088 24.8134 28.1164 28.2544C27.9465 35.3474 33.78 41.2718 41.0986 41.4237H41.108Z" fill="#C2202B"/>
<path d="M18.602 57.9907C16.2453 57.9907 13.8823 58.0155 11.532 57.9907C9.32946 57.9597 8.52395 57.1475 8.51766 54.9991C8.51766 51.589 8.56487 48.1789 8.4925 44.7688C8.46733 43.6124 8.80715 42.7816 9.79198 42.1802C13.2782 40.0442 14.5116 37.0185 13.6684 33.0503C13.4387 31.9715 13.0391 30.4679 14.499 29.9099C15.959 29.3519 17.2049 30.3191 17.8814 31.5189C18.4324 32.5568 18.7541 33.6978 18.8254 34.867C18.9701 36.9224 18.9072 38.9933 18.8505 41.0672C18.8159 42.3228 19.3099 42.8529 20.5999 42.825C22.9031 42.7754 25.2063 42.8033 27.5221 42.825C29.9574 42.825 30.8133 43.8728 30.3759 46.2103C29.8096 49.2453 29.2747 52.2896 28.7177 55.3278C28.359 57.2684 27.5064 57.9907 25.5241 58.0093C23.2115 58.0062 20.9052 57.9907 18.602 57.9907Z" fill="#88161F"/>
<path d="M6.27081 43.8821V57.3738H0V43.8821H6.27081Z" fill="#88161F"/>
<path d="M39.8936 31.5808L46.5703 23.9979C46.7779 23.7654 46.9415 23.3965 47.1995 23.3252C47.7169 23.2166 48.2438 23.1584 48.7728 23.1516C48.7916 23.66 49.0465 24.3576 48.8011 24.6459C46.2304 27.6964 43.6063 30.7066 40.9067 33.6362C40.6267 33.9462 39.5726 33.9648 39.1825 33.692C37.4321 32.4786 35.7514 31.1704 34.1482 29.7735C33.7863 29.4634 33.8335 28.6791 33.6951 28.1149C34.2835 28.1149 35.0229 27.9289 35.4351 28.2048C36.9265 29.2185 38.3203 30.3811 39.8936 31.5808Z" fill="#C2202B"/>
</g>
<defs>
<clipPath id="clip0_20_75">
<rect width="67" height="58" fill="white"/>
</clipPath>
</defs>
</svg>
