<svg width="45" height="62" viewBox="0 0 45 62" fill="none" xmlns="http://www.w3.org/2000/svg">
<g clip-path="url(#clip0_20_64)">
<path d="M26.4434 0.00976562C32.0188 1.24492 37.4328 3.35437 43.3116 2.91602C44.8211 2.80461 44.9924 3.05648 44.9948 4.57984C44.9948 6.75953 44.9801 8.93922 44.9948 11.1189C44.9948 11.9109 44.7502 12.3298 43.8939 12.572C42.4652 12.962 40.8897 13.2695 39.735 14.1002C36.1118 16.7037 32.3296 16.9266 28.2562 15.4952C24.8581 14.3013 21.3817 13.4948 17.7365 13.5093C16.4864 13.5093 15.6643 12.6907 15.6741 11.5912C15.6839 10.4916 16.4888 9.7118 17.7609 9.70211C21.1028 9.68032 24.4471 9.70211 27.7914 9.68516C28.1916 9.71302 28.5917 9.62911 28.9461 9.44297C29.1785 9.28313 29.3914 8.75031 29.2886 8.52992C29.1345 8.19328 28.7014 7.75734 28.3809 7.75249C24.6721 7.71374 20.9584 7.65077 17.2545 7.79851C15.3512 7.87601 13.8026 9.64156 13.6803 11.3853C13.5481 13.2501 14.698 14.7759 16.7187 15.3838C16.9071 15.4419 17.093 15.5098 17.2765 15.5727C15.608 17.268 14.0056 18.99 12.2907 20.5884C11.843 21.005 11.0503 21.2254 10.4069 21.2448C8.00449 21.3198 5.59719 21.2714 3.18988 21.2738C1.84433 21.2738 0.809482 20.7531 0.254138 19.5034C-0.301206 18.2537 0.070641 17.1276 1.00519 16.1879C5.12256 12.0441 9.22036 7.88086 13.3818 3.78063C15.312 1.87945 17.7487 0.859842 20.3884 0.295545C20.6958 0.216046 20.9987 0.120656 21.296 0.00976562H26.4434Z" fill="#C2202B"/>
<path d="M19.3462 62.0097C13.4037 60.9804 7.71329 58.4834 1.49931 59.055C0.488928 59.1494 -0.0125931 58.7208 0.00208562 57.6624C0.031443 55.402 0.031443 53.1416 0.00208562 50.8812C-0.0125931 49.8785 0.400855 49.5564 1.40635 49.3481C2.72987 49.0744 4.15128 48.6603 5.21304 47.8829C8.85091 45.2188 12.6771 45.0251 16.7896 46.4709C20.1853 47.6673 23.6666 48.4399 27.3094 48.452C28.5522 48.452 29.3717 49.3166 29.335 50.3895C29.2983 51.4624 28.4592 52.235 27.1944 52.2447C23.9333 52.2665 20.6721 52.2447 17.4086 52.2592C17.1639 52.2592 16.8532 52.1648 16.6746 52.2786C16.3023 52.5653 15.953 52.8803 15.63 53.2207C15.9603 53.5573 16.2856 54.1894 16.6233 54.1894C20.2929 54.2524 23.9626 54.3299 27.6323 54.1628C29.6996 54.0683 31.2408 52.2762 31.3289 50.4186C31.4169 48.561 30.1203 47.0788 27.8745 46.4055C29.4843 44.7102 31.1136 42.9229 32.8433 41.2324C33.22 40.8643 33.9515 40.719 34.5239 40.7069C36.9704 40.6487 39.4168 40.6899 41.8633 40.6778C43.2284 40.6778 44.2241 41.2494 44.7599 42.4942C45.2957 43.739 44.9214 44.7998 44.026 45.7032C39.8841 49.8761 35.7643 54.0684 31.5662 58.1855C29.5429 60.1715 26.9864 61.2153 24.195 61.7118C23.7987 61.782 23.4146 61.9007 23.0232 61.9976L19.3462 62.0097Z" fill="#C2202B"/>
<path d="M22.4926 21.3221C25.0699 21.3221 27.5428 22.3303 29.3725 24.1271C31.2023 25.924 32.2406 28.3639 32.2613 30.9152C32.2833 36.2215 27.9286 40.6027 22.6174 40.6439C21.3358 40.652 20.0652 40.4101 18.8781 39.9321C17.6909 39.4541 16.6105 38.7493 15.6985 37.8579C14.7865 36.9666 14.0608 35.9061 13.5628 34.7371C13.0648 33.5681 12.8043 32.3134 12.7961 31.0448C12.7879 29.7761 13.0322 28.5182 13.5151 27.343C13.9979 26.1678 14.7099 25.0982 15.6103 24.1954C16.5107 23.2926 17.5819 22.5742 18.7628 22.0812C19.9437 21.5882 21.211 21.3303 22.4926 21.3221ZM21.9397 26.0327C21.7244 26.0932 21.5703 26.1296 21.4186 26.1756C19.8137 26.66 18.9036 27.9266 19.0896 29.4064C19.2755 30.8861 20.5134 31.9082 22.1672 31.9711C22.4119 31.9711 22.7103 31.8864 22.8889 31.9953C23.2541 32.2473 23.5985 32.5275 23.9188 32.8333C23.5886 33.1772 23.3146 33.6979 22.9183 33.819C22.3605 33.9885 21.6951 33.8311 21.0981 33.8723C20.3079 33.928 19.1189 33.5478 19.1556 34.8265C19.1703 35.3109 20.1342 35.7565 20.6235 36.1852L22.0498 37.7618C22.5032 37.2064 22.9542 36.651 23.4027 36.0956C23.4027 35.8268 23.6351 35.7662 23.8626 35.6814C25.306 35.1535 26.1256 33.8626 25.8931 32.4894C25.6485 30.9927 24.5109 30.0506 22.9036 29.9949C22.7813 29.9949 22.6589 29.9949 22.5366 29.9949C21.8467 29.9949 21.1421 29.9416 21.1152 29.0625C21.0883 28.1833 21.7856 28.0937 22.4853 28.0937C23.0553 28.0937 23.6253 28.0937 24.1978 28.0937C24.9317 28.0937 25.8222 28.193 25.9103 27.1952C26.0057 26.0666 25.0491 26.1392 24.2834 26.069C24.2149 26.069 24.1513 25.9867 24.0852 25.9431L24.3299 25.7227C23.8895 25.2117 23.4981 24.3301 22.999 24.2696C21.8907 24.1218 22.0204 25.1705 21.9397 26.023V26.0327Z" fill="#88161F"/>
</g>
<defs>
<clipPath id="clip0_20_64">
<rect width="45" height="62" fill="white"/>
</clipPath>
</defs>
</svg>
