<svg width="22" height="23" viewBox="0 0 22 23" fill="none" xmlns="http://www.w3.org/2000/svg">
<path d="M21.7144 6.51295C21.6964 5.59634 21.5255 4.68951 21.2089 3.83115C20.9297 3.09343 20.502 2.4232 19.9533 1.86342C19.4047 1.30364 18.7471 0.866654 18.0227 0.580477C17.1769 0.259337 16.2836 0.0866093 15.3809 0.0696572C14.2157 0.0127705 13.8448 0 10.8892 0C7.93351 0 7.56263 0.0127705 6.4009 0.0650134C5.4983 0.0832238 4.60533 0.257532 3.7602 0.580477C3.03213 0.857278 2.37262 1.29321 1.82818 1.85753C1.27528 2.4111 0.846997 3.0801 0.572874 3.81838C0.255802 4.67942 0.0848538 5.58901 0.0673299 6.50831C0.012553 7.6948 0 8.07095 0 11.079C0 14.087 0.012553 14.4632 0.0582004 15.6439C0.0773881 16.5628 0.250277 17.4716 0.569451 18.3315C0.849685 19.0675 1.2778 19.736 1.82643 20.2941C2.37506 20.8522 3.03213 21.2878 3.75564 21.5729C4.60122 21.8956 5.49453 22.0699 6.39748 22.0883C7.55806 22.1406 7.92895 22.1533 10.8846 22.1533C13.8403 22.1533 14.2112 22.1406 15.3717 22.0883C16.2747 22.0703 17.1681 21.896 18.0136 21.5729C18.7373 21.2881 19.3946 20.8527 19.9432 20.2946C20.4919 19.7364 20.9199 19.0677 21.1998 18.3315C21.5168 17.4712 21.6881 16.5624 21.7065 15.6439C21.7578 14.462 21.7704 14.0859 21.7704 11.0778C21.7704 8.06979 21.7704 7.69364 21.7156 6.51179L21.7144 6.51295ZM19.7539 15.5568C19.7469 16.259 19.6203 16.9547 19.3796 17.6128C19.1981 18.0908 18.9204 18.5248 18.5643 18.8871C18.2082 19.2494 17.7815 19.5319 17.3118 19.7165C16.6647 19.961 15.9809 20.0898 15.2907 20.0973C14.1427 20.1495 13.7981 20.1623 10.8926 20.1623C7.98715 20.1623 7.63794 20.1495 6.49448 20.0973C5.80421 20.0903 5.12039 19.9614 4.47344 19.7165C3.99914 19.5407 3.57002 19.2581 3.21814 18.8899C2.85713 18.5311 2.57952 18.0948 2.40562 17.6128C2.1673 16.9542 2.0426 16.2586 2.03701 15.5568C1.98566 14.3958 1.97311 14.0475 1.97311 11.0871C1.97311 8.12668 1.98566 7.77839 2.03701 6.61744C2.04392 5.91522 2.17057 5.21955 2.41132 4.56139C2.58417 4.07777 2.86369 3.6409 3.22841 3.28434C3.58094 2.91692 4.00987 2.63448 4.48371 2.45774C5.13081 2.21336 5.81454 2.08454 6.50475 2.07695C7.64821 2.02587 7.99285 2.01193 10.8994 2.01193C13.806 2.01193 14.1541 2.0247 15.2976 2.07695C15.9878 2.08402 16.6716 2.21287 17.3186 2.45774C17.7929 2.63348 18.2221 2.91606 18.5739 3.28434C18.9349 3.64308 19.2126 4.0794 19.3864 4.56139C19.6243 5.22012 19.7486 5.91568 19.7539 6.61744C19.8007 7.77839 19.8178 8.12668 19.8178 11.0871C19.8178 14.0475 19.8052 14.3889 19.7539 15.5579V15.5568Z" fill="#272727"/>
<path d="M10.8899 5.3877C9.78394 5.3877 8.70283 5.72133 7.78326 6.34641C6.8637 6.97149 6.14698 7.85994 5.72375 8.89941C5.30052 9.93888 5.18978 11.0827 5.40554 12.1862C5.6213 13.2897 6.15387 14.3033 6.9359 15.0989C7.71793 15.8944 8.71428 16.4362 9.79899 16.6557C10.8837 16.8752 12.008 16.7626 13.0298 16.332C14.0516 15.9015 14.9249 15.1723 15.5393 14.2368C16.1537 13.3013 16.4817 12.2015 16.4817 11.0764C16.4817 9.56763 15.8926 8.1207 14.8439 7.05387C13.7952 5.98703 12.3729 5.3877 10.8899 5.3877ZM10.8899 14.7705C10.1722 14.7705 9.47054 14.554 8.87376 14.1483C8.27698 13.7427 7.81184 13.1661 7.53717 12.4915C7.26251 11.8169 7.19064 11.0746 7.33066 10.3585C7.47069 9.64231 7.81632 8.98449 8.32384 8.46818C8.83136 7.95186 9.47797 7.60025 10.1819 7.4578C10.8859 7.31535 11.6155 7.38846 12.2786 7.66789C12.9418 7.94731 13.5085 8.4205 13.9073 9.02762C14.306 9.63474 14.5189 10.3485 14.5189 11.0787C14.5189 12.0578 14.1365 12.9969 13.456 13.6892C12.7754 14.3816 11.8524 14.7705 10.8899 14.7705Z" fill="#272727"/>
<path d="M18.0104 5.16261C18.0104 5.42529 17.9339 5.68206 17.7904 5.90047C17.647 6.11888 17.4431 6.28912 17.2045 6.38964C16.966 6.49016 16.7035 6.51647 16.4502 6.46522C16.197 6.41397 15.9644 6.28748 15.7818 6.10174C15.5992 5.916 15.4749 5.67935 15.4245 5.42171C15.3741 5.16408 15.4 4.89704 15.4988 4.65436C15.5976 4.41167 15.7649 4.20424 15.9796 4.05831C16.1943 3.91237 16.4467 3.83447 16.7049 3.83447C17.0512 3.83447 17.3832 3.97441 17.6281 4.22348C17.8729 4.47255 18.0104 4.81037 18.0104 5.16261Z" fill="#272727"/>
</svg>
