<svg width="104" height="56" viewBox="0 0 104 56" fill="none" xmlns="http://www.w3.org/2000/svg">
<g clip-path="url(#clip0_20_358)">
<path d="M8.18181 54.4212V28.6216L6.83969 27.3214C7.19843 26.9795 7.55788 26.6382 7.91803 26.2977L8.22612 26.4581V24.8117C8.22612 23.3807 8.31686 23.2899 9.78771 23.2371C9.92277 23.2371 10.0578 23.2034 10.3364 23.1675C10.3364 21.8377 10.3744 20.5122 10.3364 19.1887C10.2456 16.5524 11.1805 14.4691 13.4258 12.9916C13.6833 12.8206 13.8479 12.3964 13.9091 12.0608C13.9956 11.6196 13.85 11.1215 13.9787 10.7036C14.0715 10.4038 14.4831 9.96692 14.6983 9.99436C15.0169 10.0366 15.5698 10.4967 15.5424 10.6782C15.2111 12.3267 16.3126 13.0971 17.3319 14.0174C18.6508 15.2121 19.1699 16.8163 19.1953 18.5745C19.2185 20.0795 19.1953 21.5865 19.1953 23.2308C22.2868 22.7221 21.0185 25.0904 21.5672 26.2449L22.7004 27.3531L21.3709 28.5541V32.022H33.8025C33.8025 30.5002 33.8299 29.0016 33.8025 27.5029C33.7434 24.9131 34.8302 22.9817 36.9974 21.5929C37.3055 21.3945 37.4933 20.9217 37.6073 20.5375C37.7212 20.1533 37.5355 19.7249 37.679 19.3977C37.8225 19.0705 38.2087 18.6547 38.4873 18.6547C38.7659 18.6547 39.2744 19.2098 39.228 19.4167C38.7848 21.4156 40.3527 22.1459 41.4627 23.1506C43.3198 21.8504 42.4735 19.9423 42.6149 18.6294L41.1546 17.2785L42.5664 16.1704C43.3366 14.5303 44.0584 12.7045 45.0249 11.0202C45.8964 9.50045 47.2786 8.4493 48.9331 7.76964C49.0953 7.67989 49.2344 7.55366 49.3395 7.40091C49.4446 7.24816 49.5128 7.07308 49.5387 6.88946C49.5373 6.34468 49.6491 5.80555 49.867 5.30629C50.085 4.80703 50.4044 4.35855 50.8049 3.98931C51.0961 3.70858 51.1784 3.14502 51.2269 2.69754C51.2987 2.10653 51.1552 1.48175 51.2818 0.91185C51.3599 0.56991 51.7756 0.306073 52.0415 0.00634766C52.299 0.312405 52.5733 0.607905 52.8054 0.932958C52.8729 1.02794 52.8265 1.20735 52.8202 1.35511C52.7716 2.62155 52.7294 3.79512 53.8753 4.78717C54.3543 5.20932 54.2973 6.2077 54.5379 6.93168C54.6413 7.25251 54.7827 7.71054 55.0317 7.81397C58.3955 9.22816 59.9571 12.0481 60.9827 15.305C61.0882 15.6406 61.1641 15.9825 61.2612 16.3603C61.8014 16.6854 62.9853 16.1957 62.8439 17.3587C62.7975 17.7513 62.0926 18.0616 61.4553 18.6083C61.6242 19.9254 60.6809 21.8356 62.6139 23.1295C63.2026 22.6482 63.8674 22.1438 64.4836 21.5823C64.6566 21.3804 64.7569 21.1262 64.7684 20.8604C64.817 20.3729 64.6883 19.8452 64.8297 19.3956C64.9019 19.2194 65.0135 19.0621 65.1557 18.9355C65.298 18.809 65.4672 18.7165 65.6506 18.6653C65.8616 18.6315 66.425 19.1529 66.3871 19.328C66.0199 21.0166 67.2121 21.6773 68.2609 22.5533C69.6178 23.6846 70.2551 25.2423 70.2594 27.0301C70.2594 28.6765 70.2594 30.325 70.2594 32.0452H82.693V28.6132L81.4058 27.3003C81.7687 26.9612 82.131 26.6206 82.4925 26.2787L82.7605 26.4265C82.7605 26.0507 82.7605 25.6729 82.7605 25.2972C82.7605 23.3321 82.7605 23.3321 84.8708 23.1738C84.8708 22.1184 84.9215 21.042 84.8603 19.9697C84.6957 17.0273 85.4934 14.5599 88.0784 12.8523C88.3401 12.6792 88.3971 12.1431 88.473 11.7589C88.5406 11.4191 88.3971 11.0054 88.5385 10.7205C88.6798 10.4355 89.0449 10.0513 89.3614 9.99436C89.5598 9.95847 90.0979 10.4883 90.06 10.6846C89.7497 12.312 90.7669 13.095 91.8389 14.0069C93.1198 15.0981 93.6896 16.6284 93.6917 18.3339C93.6917 19.9127 93.6917 21.5 93.6917 23.0472C94.3733 23.5115 95.5572 22.7897 95.7555 23.9569C95.8885 24.7379 95.7809 25.5611 96.032 26.2196L97.2222 27.3932L95.8674 28.533V54.4212H102.793C103.38 54.4212 104.017 54.4338 104.002 55.2275C103.988 56.0211 103.325 55.9895 102.753 55.9895H88.4034H1.24961C0.677725 55.9895 0.0172042 56.0275 0.000322066 55.2254C-0.01656 54.4233 0.633396 54.4191 1.2095 54.4191H7.01272L8.18181 54.4212ZM9.91221 54.3726H94.1328V53.0809H9.9101L9.91221 54.3726ZM56.5258 51.3754C56.5258 48.4014 56.6207 45.4907 56.4857 42.5905C56.416 41.132 55.4685 39.9985 54.215 39.2133C53.3435 38.6709 52.4213 38.1748 51.3451 38.521C49.2834 39.188 47.7239 40.5135 47.5614 42.7171C47.3504 45.5666 47.5108 48.4457 47.5108 51.3712L56.5258 51.3754ZM44.5458 16.4279H59.4612C58.9083 12.3204 55.9433 9.02342 52.2082 8.86512C48.129 8.68993 45.2465 12.1072 44.5458 16.4279ZM94.137 28.2058H84.4678V35.6884H94.137V28.2058ZM9.9481 28.1699V35.6525H19.554V28.1678L9.9481 28.1699ZM33.6696 51.4366V45.2838H21.3456V51.4408C22.31 51.4408 23.2153 51.4113 24.1206 51.4408C24.6841 51.464 24.9964 51.2994 25.2264 50.7401C25.6822 49.634 26.4313 48.4795 27.6426 48.509C28.8539 48.5386 29.5419 49.6973 30.023 50.8076C30.1306 51.0524 30.4071 51.3817 30.6244 51.3965C31.6331 51.4661 32.6461 51.4345 33.6717 51.4345L33.6696 51.4366ZM82.6804 51.4366V45.288H70.3206V51.4408C71.2849 51.4408 72.1903 51.4155 73.0935 51.4408C73.6548 51.4619 73.9565 51.3078 74.1802 50.7337C74.6149 49.6193 75.3767 48.49 76.5901 48.5048C77.7423 48.5196 78.4282 49.6572 78.9241 50.7042C78.9705 50.7992 78.9748 50.9342 79.0465 50.9912C79.2407 51.1538 79.4559 51.3965 79.6796 51.4134C80.6482 51.4661 81.6189 51.4366 82.674 51.4366H82.6804ZM33.6948 43.5635V37.4593H21.3667V43.5635C22.1074 43.5635 22.7764 43.5171 23.4369 43.5741C24.4203 43.6585 25.0259 43.4453 25.5472 42.4237C26.6445 40.2982 28.4277 40.1589 29.4744 42.2C30.2024 43.6226 31.133 43.6121 32.3211 43.5657C32.7495 43.5509 33.1694 43.5635 33.697 43.5635H33.6948ZM82.6635 43.5635V37.4677H70.3459V43.5614C71.401 43.5614 72.3907 43.5973 73.3656 43.5361C73.519 43.5097 73.6649 43.4504 73.7931 43.3622C73.9213 43.2741 74.0289 43.1591 74.1085 43.0253C74.6614 41.9699 75.3134 40.8069 76.5331 40.7837C77.7529 40.7605 78.4113 41.9488 78.9621 42.9979C79.0845 43.23 79.3715 43.5213 79.5951 43.534C80.606 43.591 81.6189 43.5593 82.674 43.5593L82.6635 43.5635ZM84.4635 45.2796V51.3501H88.473C88.473 50.7 88.3675 50.1153 88.5047 49.5939C88.6186 49.1718 88.9795 48.5386 89.3045 48.4963C89.9375 48.4014 90.1296 48.9734 90.1064 49.577C90.0832 50.1807 90.1064 50.7422 90.1064 51.3902H94.1328V45.269L84.4635 45.2796ZM19.5245 51.3733V45.2669H9.94176V51.3606H13.9217C13.9217 50.6767 13.8225 50.0583 13.9555 49.4968C14.0504 49.1042 14.462 48.7876 14.7321 48.4415C15.0148 48.7792 15.4559 49.0747 15.5466 49.4652C15.6859 50.0541 15.5825 50.7021 15.5825 51.3648L19.5245 51.3733ZM94.1391 37.4762H84.4889V43.4854H88.4857C88.4857 42.8522 88.3823 42.257 88.5194 41.7335C88.6207 41.3515 89.0343 41.0497 89.3087 40.7119C89.5746 41.0518 89.984 41.3557 90.0747 41.7378C90.2077 42.2887 90.1085 42.8944 90.1085 43.496H94.1391V37.4762ZM61.3309 33.8246H58.2794V51.4113C58.887 51.3836 59.4956 51.3878 60.1027 51.4239C61.0481 51.5295 61.3688 51.2129 61.3562 50.2187C61.3034 45.1213 61.3309 40.0217 61.3309 34.9222V33.8246ZM13.9217 43.515C13.9217 42.791 13.8225 42.1747 13.9576 41.6153C14.042 41.2713 14.481 41.0117 14.7616 40.7162C15.0338 41.0201 15.4685 41.2903 15.5445 41.6407C15.6754 42.2296 15.5804 42.8712 15.5804 43.4876H19.5371V37.4635H9.94598V43.5108L13.9217 43.515ZM42.8492 33.7908V51.3247H45.7445V33.7866L42.8492 33.7908ZM63.0022 28.1235V35.6778H68.5711V28.1193L63.0022 28.1235ZM42.8344 32.022H61.2295V30.0548H42.8344V32.022ZM41.047 35.6947V28.1488H35.4717V35.6905L41.047 35.6947ZM56.5005 33.814H47.5318V38.922C51.0117 36.1781 52.9193 36.0894 56.5005 38.8988V33.814ZM66.6782 51.445C67.2185 51.445 67.6405 51.5041 68.0351 51.4239C68.2715 51.3733 68.645 51.1115 68.6492 50.9364C68.6936 49.0557 68.6767 47.175 68.6767 45.269H62.9304C62.9304 47.0209 62.9642 48.7285 62.9136 50.4319C62.8904 51.2023 63.1098 51.4471 63.9075 51.4746C64.8888 51.5105 65.2623 51.196 65.104 50.2314C65.066 49.9929 65.0133 49.6974 65.104 49.5053C65.3327 49.1311 65.5895 48.7747 65.8721 48.4393C66.138 48.7834 66.5453 49.0937 66.636 49.4778C66.7774 50.0372 66.6804 50.6535 66.6804 51.4408L66.6782 51.445ZM62.9789 43.4749H65.1019C65.1019 42.7931 65.0069 42.1789 65.1377 41.6174C65.2158 41.2734 65.64 41.0095 65.908 40.7098C66.1655 41.0201 66.5727 41.2987 66.6445 41.647C66.7669 42.238 66.6782 42.8733 66.6782 43.4918H68.6049V37.4635H62.9789V43.4749ZM41.0322 51.3881V45.2817H35.459V51.369H37.3583C37.3583 50.7105 37.3583 50.1195 37.3583 49.5306C37.3583 48.9417 37.5693 48.3781 38.2024 48.4879C38.5147 48.5407 38.8671 49.1211 38.9537 49.5264C39.0803 50.1132 38.9874 50.7506 38.9874 51.3838L41.0322 51.3881ZM35.4675 37.4213V43.4939H37.3519C37.3519 42.8607 37.2527 42.2844 37.3857 41.7631C37.4828 41.3747 37.8774 41.0623 38.1391 40.7077C38.4197 41.0391 38.8524 41.3409 38.9473 41.7082C39.0845 42.2612 38.9811 42.8733 38.9811 43.477H41.0343V37.4171L35.4675 37.4213ZM42.8534 24.7231C44.9637 24.7231 47.0001 24.7062 49.0344 24.7336C49.697 24.7336 50.2034 24.6154 50.7015 24.1004C51.7566 22.9881 52.2968 23.0451 53.4448 24.0857C53.6959 24.3157 53.9766 24.683 54.2509 24.6893C56.549 24.7379 58.8492 24.7168 61.1684 24.7168C60.9574 23.4503 60.3538 22.8171 59.2185 22.8023C54.4352 22.7728 49.6576 22.7728 44.8856 22.8023C43.7397 22.7981 43.1594 23.3933 42.8471 24.7189L42.8534 24.7231ZM33.716 33.8119H21.3688V35.6673H33.716V33.8119ZM82.712 33.8119H70.3438V35.6652H82.712V33.8119ZM92.0183 23.1823V19.5032H86.5801V23.1823H88.492C88.492 22.644 88.3865 22.1269 88.5237 21.69C88.6376 21.3311 89.0407 21.0567 89.315 20.7528C89.5788 21.0652 89.9692 21.3417 90.0769 21.7005C90.2098 22.1417 90.1085 22.6525 90.1085 23.1886L92.0183 23.1823ZM13.9386 23.1823C13.9386 22.6039 13.831 22.0847 13.9724 21.6456C14.0842 21.2953 14.4999 21.0441 14.7806 20.7486C15.0486 21.0272 15.4622 21.2657 15.553 21.5929C15.6838 22.072 15.5867 22.6124 15.5867 23.159H17.429V19.5117H12.0436V23.1823H13.9386ZM19.5625 26.4729V24.9511H9.93122V26.4729H19.5625ZM94.1391 24.9785H84.4678V26.4771H94.1391V24.9785ZM63.0402 26.3526H68.5859C68.2567 24.8033 67.4802 23.6994 66.1634 23.0007C66.048 22.9389 65.9208 22.9022 65.7902 22.8931C65.6596 22.884 65.5286 22.9027 65.4057 22.948C64.167 23.7247 63.2892 24.7653 63.0338 26.3589L63.0402 26.3526ZM40.8951 26.3695C40.8951 25.0524 39.6289 23.1865 38.5422 22.8635C37.9239 22.6799 36.5585 23.75 35.9697 24.9278C35.7638 25.3983 35.5835 25.8795 35.4295 26.3695H40.8951ZM92.1596 17.7049C91.7629 16.9028 91.516 16.1662 91.0792 15.5688C89.8131 13.8443 88.7959 13.8612 87.5297 15.5899C87.0803 16.202 86.5548 16.8395 86.789 17.7007L92.1596 17.7049ZM12.1048 17.6669H17.3804C17.1694 16.2295 15.7281 14.2454 14.8798 14.161C14.0758 14.0786 12.5458 15.8369 12.1723 17.2701C12.1343 17.3756 12.128 17.4833 12.0985 17.6732L12.1048 17.6669ZM61.2528 26.475H54.7553V28.2691H61.2464L61.2528 26.475ZM49.3066 26.4497H42.864V28.2544H49.3066V26.4497ZM48.6018 21.0715H51.1742V18.184H48.6018V21.0715ZM46.8861 18.2051H44.3538V21.0715H46.8861V18.2051ZM52.8856 21.061H55.4179V18.1735H52.8856V21.061ZM59.6975 18.2115H57.2138V21.0715H59.6975V18.2115ZM53.0565 28.1024C53.2063 26.8592 53.0565 25.8523 52.0668 25.0967C50.9019 25.8713 50.9188 26.9351 51.0729 28.1024H53.0565ZM52.2377 5.12489L51.7587 5.13544C51.5266 5.77921 51.2966 6.42299 51.0201 7.19763H53.1093C52.7779 6.39555 52.5079 5.756 52.2377 5.11433V5.12489ZM75.5793 51.3501H77.5039L76.5733 50.1491L75.5793 51.3501ZM28.6408 51.3965L27.5477 50.13L26.7036 51.3965H28.6408Z" fill="#414042"/>
<path d="M9.91016 54.3728V53.0811H94.1328V54.3728H9.91016Z" fill="white"/>
<path d="M56.5236 51.3752H47.5086C47.5086 48.4497 47.3503 45.5707 47.5593 42.7212C47.7217 40.5176 49.2812 39.192 51.3429 38.525C52.4192 38.1789 53.3413 38.6749 54.2129 39.2174C55.4664 39.9983 56.4139 41.1318 56.4835 42.5945C56.6186 45.4905 56.5236 48.4012 56.5236 51.3752Z" fill="white"/>
<path d="M44.5459 16.428C45.2465 12.1094 48.1333 8.6921 52.2167 8.86518C55.9518 9.02349 58.9168 12.3205 59.4697 16.428H44.5459Z" fill="white"/>
<path d="M94.139 28.2036V35.6862H84.4697V28.2036H94.139ZM90.5515 31.9882C90.4924 31.1798 90.0746 30.7006 89.2959 30.7217C88.5172 30.7428 88.0424 31.2241 88.0656 32.0008C88.0846 32.7079 88.513 33.1723 89.2685 33.1829C90.0598 33.1913 90.4587 32.7375 90.5431 31.9882H90.5515Z" fill="white"/>
<path d="M9.9502 28.168H19.5561V35.6505H9.9502V28.168ZM16.0172 31.9188C15.9159 31.1884 15.5065 30.6945 14.7257 30.7156C13.9449 30.7367 13.487 31.2285 13.5187 32.0074C13.5461 32.7208 13.9787 33.1725 14.7299 33.1789C15.534 33.1873 15.9201 32.7166 16.0172 31.9188Z" fill="white"/>
<path d="M33.6716 51.4344C32.646 51.4344 31.6331 51.4681 30.6265 51.4069C30.4154 51.3922 30.1327 51.0629 30.025 50.818C29.5355 49.7078 28.8433 48.549 27.6447 48.5194C26.446 48.4899 25.6842 49.6445 25.2284 50.7505C24.9984 51.3098 24.6861 51.4745 24.1227 51.4513C23.2174 51.4112 22.312 51.4513 21.3477 51.4513V45.2837H33.6716V51.4344Z" fill="white"/>
<path d="M82.6739 51.4367C81.6188 51.4367 80.6396 51.462 79.6647 51.4156C79.4537 51.4156 79.2426 51.1644 79.0316 50.9934C78.9599 50.9364 78.9556 50.8013 78.9092 50.7064C78.4133 49.651 77.7275 48.5217 76.5753 48.507C75.3619 48.4922 74.6001 49.6214 74.1653 50.7359C73.9417 51.31 73.6399 51.4641 73.0786 51.443C72.1754 51.4071 71.2701 51.443 70.3057 51.443V45.2881H82.6739V51.4367Z" fill="white"/>
<path d="M33.6968 43.5637C33.1692 43.5637 32.7493 43.5511 32.3293 43.5637C31.1413 43.6102 30.2191 43.6207 29.4826 42.1981C28.4275 40.157 26.6528 40.2984 25.5554 42.4218C25.0278 43.4434 24.4222 43.6566 23.4452 43.5722C22.7846 43.5152 22.1157 43.5616 21.375 43.5616V37.4595H33.7031L33.6968 43.5637Z" fill="white"/>
<path d="M82.6737 43.5594C81.6185 43.5594 80.6141 43.591 79.6096 43.534C79.3817 43.5214 79.0947 43.2301 78.9765 42.9979C78.4257 41.9425 77.7905 40.7605 76.5476 40.7837C75.3046 40.807 74.6547 41.9679 74.1102 43.0232C74.0307 43.157 73.9231 43.272 73.7949 43.3602C73.6666 43.4484 73.5208 43.5077 73.3674 43.534C72.3925 43.5952 71.4091 43.5594 70.3477 43.5594V37.4678H82.6737V43.5594Z" fill="white"/>
<path d="M84.4648 45.2754H94.1383V51.3965H90.1119C90.1119 50.7485 90.0929 50.166 90.1119 49.5834C90.1309 49.0009 89.9325 48.4077 89.31 48.5027C88.985 48.5513 88.6242 49.176 88.5102 49.6003C88.373 50.1216 88.4786 50.7063 88.4786 51.3564H84.4691L84.4648 45.2754Z" fill="white"/>
<path d="M19.5261 51.3692H15.5841C15.5841 50.6959 15.6875 50.0479 15.5482 49.4696C15.4575 49.0854 15.0164 48.7836 14.7337 48.4459C14.4636 48.7984 14.052 49.115 13.9571 49.5012C13.8241 50.0627 13.9233 50.6811 13.9233 51.365H9.94336V45.2671H19.5261V51.3692Z" fill="white"/>
<path d="M94.1405 37.4722V43.492H90.1098C90.1098 42.8904 90.209 42.2847 90.0761 41.7337C89.9853 41.3517 89.5759 41.0478 89.31 40.7079C89.0357 41.0457 88.6221 41.3411 88.5208 41.7295C88.3836 42.253 88.4871 42.8398 88.4871 43.4814H84.4902V37.4722H94.1405Z" fill="white"/>
<path d="M61.3327 33.8203V34.9179C61.3327 40.0174 61.3053 45.117 61.358 50.2144C61.358 51.217 61.0499 51.5252 60.1045 51.4196C59.4974 51.3835 58.8888 51.3793 58.2812 51.407V33.8203H61.3327Z" fill="white"/>
<path d="M13.924 43.5106H9.94824V37.4634H19.5394V43.4811H15.5826C15.5826 42.8648 15.6776 42.2147 15.5468 41.6342C15.4708 41.2838 15.0361 41.0136 14.7638 40.7097C14.4832 41.0052 14.0443 41.2648 13.9599 41.6089C13.8248 42.1788 13.924 42.7867 13.924 43.5106Z" fill="white"/>
<path d="M42.8512 33.7866H45.7444V51.3205H42.8428L42.8512 33.7866Z" fill="white"/>
<path d="M63.0039 28.1191H68.5729V35.6735H63.0039V28.1191ZM66.7834 31.9691C66.6652 31.5301 66.6567 31.0151 66.3993 30.7196C66.2389 30.5359 65.6966 30.6879 65.3252 30.69C65.3442 31.5195 65.3526 32.3512 65.4223 33.1765C65.4223 33.1976 66.2115 33.3052 66.3824 33.1279C66.6357 32.8683 66.6525 32.3913 66.7834 31.9691Z" fill="white"/>
<path d="M42.8359 32.018V30.0508H61.2311V32.018H42.8359Z" fill="white"/>
<path d="M41.0489 35.6906H35.4736V28.1489H41.0489V35.6906ZM39.0062 31.9335C38.9767 31.6338 39.0463 31.2517 38.888 31.0301C38.7002 30.7641 38.2781 30.4412 38.027 30.4897C37.1681 30.6565 37.3665 31.4206 37.3517 32.0285C37.337 32.5962 37.299 33.2527 38.0503 33.3308C38.3183 33.3603 38.696 33.029 38.8944 32.7651C39.0421 32.5773 38.9767 32.229 39.0062 31.9335Z" fill="white"/>
<path d="M56.5067 33.8096V38.8943C52.9193 36.085 51.02 36.1652 47.5381 38.9176V33.8096H56.5067Z" fill="white"/>
<path d="M66.6798 51.4407C66.6798 50.6534 66.7769 50.037 66.646 49.4735C66.5553 49.0893 66.148 48.779 65.8821 48.435C65.5995 48.7703 65.3427 49.1267 65.114 49.5009C65.0148 49.693 65.0676 49.9885 65.114 50.227C65.2723 51.1916 64.903 51.5061 63.9175 51.4702C63.1198 51.4428 62.9003 51.1979 62.9235 50.4275C62.9742 48.7242 62.9404 47.0166 62.9404 45.2646H68.6866C68.6866 47.1643 68.7035 49.0513 68.6592 50.932C68.6592 51.1072 68.2815 51.3689 68.0451 51.4196C67.6421 51.4998 67.22 51.4407 66.6798 51.4407Z" fill="white"/>
<path d="M62.9805 43.4705V37.4634H68.6065V43.4874H66.6798C66.6798 42.869 66.7684 42.2337 66.646 41.6427C66.5743 41.2944 66.167 41.0094 65.9095 40.7055C65.6415 41.0052 65.2173 41.269 65.1393 41.6131C65.0084 42.1746 65.1034 42.7888 65.1034 43.4705H62.9805Z" fill="white"/>
<path d="M41.0297 51.3839H38.9912C38.9912 50.7507 39.0841 50.1174 38.9575 49.5264C38.871 49.1275 38.5185 48.5407 38.2062 48.488C37.5732 48.3782 37.3452 48.927 37.3621 49.5307C37.379 50.1343 37.3621 50.7106 37.3621 51.3691H35.4629V45.2817H41.0361L41.0297 51.3839Z" fill="white"/>
<path d="M35.4648 37.417H41.0317V43.479H38.9784C38.9784 42.8754 39.0818 42.2633 38.9447 41.7102C38.8497 41.3345 38.4171 41.0411 38.1364 40.7097C37.8747 41.058 37.4801 41.3704 37.383 41.7651C37.2501 42.2865 37.3493 42.8669 37.3493 43.4959H35.4648V37.417Z" fill="white"/>
<path d="M42.8467 24.7186C43.159 23.3826 43.7393 22.7979 44.8726 22.7915C49.6558 22.7648 54.4334 22.7648 59.2054 22.7915C60.3407 22.7915 60.9527 23.4395 61.1553 24.706C58.834 24.706 56.5359 24.7271 54.2379 24.6785C53.9635 24.6785 53.6829 24.3049 53.4317 24.0749C52.2901 23.0195 51.7583 22.9773 50.6884 24.0896C50.1904 24.6089 49.6839 24.7355 49.0213 24.7229C46.9933 24.7018 44.9591 24.7186 42.8467 24.7186Z" fill="white"/>
<path d="M33.7153 33.812V35.6674H21.3682V33.812H33.7153Z" fill="white"/>
<path d="M82.7051 33.814V35.6672H70.3369V33.814H82.7051Z" fill="white"/>
<path d="M92.0182 23.1824H90.1084C90.1084 22.6463 90.2097 22.1271 90.0768 21.6944C89.9692 21.3355 89.5788 21.0611 89.315 20.7466C89.0406 21.0548 88.6376 21.325 88.5236 21.6838C88.3865 22.1228 88.492 22.6379 88.492 23.1761H86.5801V19.5034H92.0182V23.1824Z" fill="white"/>
<path d="M13.9315 23.1823H12.0322V19.5117H17.4113V23.1654H15.569C15.569 22.6187 15.6661 22.0784 15.5353 21.5992C15.4445 21.2721 15.0309 21.0336 14.7629 20.7549C14.4822 21.0505 14.0665 21.3016 13.9547 21.652C13.8238 22.091 13.9315 22.6103 13.9315 23.1823Z" fill="white"/>
<path d="M19.556 26.4794H9.9248V24.9575H19.556V26.4794Z" fill="white"/>
<path d="M94.1323 24.9849V26.4835H84.4609V24.9849H94.1323Z" fill="white"/>
<path d="M63.0332 26.3587C63.2885 24.765 64.1664 23.7245 65.3988 22.954C65.5216 22.9088 65.6527 22.8901 65.7833 22.8992C65.9139 22.9083 66.041 22.945 66.1564 23.0068C67.4732 23.7055 68.2498 24.8094 68.579 26.3587H63.0332Z" fill="white"/>
<path d="M40.8904 26.3757H35.4248C35.5788 25.8858 35.7591 25.4045 35.965 24.9341C36.5538 23.7563 37.9191 22.6861 38.5374 22.8698C39.6242 23.1927 40.8904 25.0586 40.8904 26.3757Z" fill="white"/>
<path d="M92.1529 17.7112H86.7823C86.5481 16.8458 87.0735 16.2083 87.523 15.6005C88.7892 13.8718 89.8127 13.8549 91.0725 15.5793C91.5093 16.1725 91.7477 16.9091 92.1529 17.7112Z" fill="white"/>
<path d="M12.0977 17.6733C12.1272 17.4791 12.1335 17.3757 12.1588 17.2765C12.5324 15.8433 14.0581 14.085 14.8663 14.1673C15.7104 14.2518 17.1559 16.2359 17.367 17.6733H12.0977Z" fill="white"/>
<path d="M61.246 26.4814V28.2756H54.7549V26.4814H61.246Z" fill="white"/>
<path d="M49.3001 26.4561V28.2607H42.8574V26.4561H49.3001Z" fill="white"/>
<path d="M48.6016 21.0716V18.1841H51.174V21.0716H48.6016Z" fill="white"/>
<path d="M46.8858 18.1943V21.0713H44.3535V18.1943H46.8858Z" fill="white"/>
<path d="M52.8857 21.0503V18.1733H55.4181V21.0503H52.8857Z" fill="white"/>
<path d="M59.6976 18.2007V21.0713H57.2139V18.2007H59.6976Z" fill="white"/>
<path d="M53.0559 28.0916H51.0723C50.9182 26.9244 50.9014 25.8606 52.0662 25.0859C53.0644 25.8416 53.2057 26.8484 53.0559 28.0916Z" fill="white"/>
<path d="M52.2372 5.11426C52.5073 5.74748 52.7774 6.39548 53.1087 7.187H51.0195C51.296 6.41236 51.526 5.76859 51.7581 5.12482L52.2372 5.11426Z" fill="white"/>
<path d="M75.5791 51.3416L76.5731 50.1406L77.5037 51.3416H75.5791Z" fill="white"/>
<path d="M28.6507 51.388H26.7051L27.5492 50.1216L28.6507 51.388Z" fill="white"/>
<path d="M90.5433 31.9882C90.4589 32.7375 90.058 33.1913 89.2603 33.1786C88.5048 33.1681 88.0764 32.7037 88.0574 31.9966C88.0342 31.2199 88.5196 30.7302 89.2877 30.7175C90.0559 30.7049 90.4821 31.1798 90.5433 31.9882Z" fill="#414042"/>
<path d="M16.0167 31.9184C15.9196 32.7163 15.5335 33.1849 14.7294 33.1849C13.9782 33.1849 13.5456 32.7269 13.5182 32.0134C13.4865 31.2346 13.9402 30.747 14.7252 30.7216C15.5102 30.6963 15.9154 31.1881 16.0167 31.9184Z" fill="#414042"/>
<path d="M66.7834 31.9695C66.6525 32.3916 66.6314 32.8687 66.3824 33.1283C66.2115 33.3056 65.4244 33.1979 65.4223 33.1768C65.3526 32.3515 65.3442 31.5199 65.3252 30.6904C65.6966 30.6904 66.2389 30.5363 66.3993 30.7199C66.6567 31.0154 66.6652 31.5305 66.7834 31.9695Z" fill="#414042"/>
<path d="M39.0061 31.9335C38.9765 32.229 39.0419 32.5667 38.8963 32.7651C38.6853 33.029 38.3181 33.3604 38.0522 33.3308C37.301 33.2527 37.3389 32.5963 37.3537 32.0285C37.3685 31.4206 37.1701 30.6565 38.029 30.4897C38.2801 30.4412 38.7022 30.7641 38.89 31.0301C39.0461 31.2517 38.9765 31.6253 39.0061 31.9335Z" fill="#414042"/>
</g>
<defs>
<clipPath id="clip0_20_358">
<rect width="104" height="56" fill="white"/>
</clipPath>
</defs>
</svg>
