<svg width="83" height="53" viewBox="0 0 83 53" fill="none" xmlns="http://www.w3.org/2000/svg">
<g clip-path="url(#clip0_20_224)">
<path d="M87.9997 53.4178V56.1969H-5.00684V53.4834H0.773926V22.3001H3.67156V16.6072H21.1702V14.2286C21.1702 11.6303 21.2883 9.02491 21.1356 6.43014C20.9738 3.66522 22.2827 1.85739 24.6295 0.645076C25.3748 0.260468 25.6075 -0.17022 25.5384 -0.932344C25.4766 -1.66257 25.5239 -2.40165 25.5239 -3.19922H28.3997C28.3997 -2.4176 28.4452 -1.60408 28.387 -0.792325C28.3379 -0.120591 28.5524 0.248063 29.1923 0.579498C30.9265 1.4781 32.3972 2.69218 32.6953 4.71801C32.8516 5.78144 32.7226 6.88564 32.7226 8.02706H50.2466C50.2466 7.45635 50.2939 6.89982 50.2466 6.35393C49.9794 3.7113 51.3046 1.92297 53.5478 0.744334C54.4458 0.27288 54.7349 -0.264153 54.6385 -1.18402C54.5676 -1.82385 54.624 -2.47786 54.624 -3.1939H57.4998C57.4998 -2.2953 57.5307 -1.42152 57.4889 -0.535327C57.4635 -0.017791 57.6707 0.239205 58.127 0.483793C59.8139 1.36999 61.2864 2.48659 61.7409 4.44861C61.8257 4.85266 61.8653 5.26449 61.859 5.67687C61.859 8.95401 61.859 12.2347 61.859 15.5118V16.5753H79.2903V22.238H82.1989V53.4178H87.9997ZM50.2466 53.4178V52.3845C50.2466 48.1946 50.2012 44.0029 50.2648 39.813C50.3048 37.2271 49.3559 35.0559 47.3072 33.5494C42.608 30.111 41.1737 29.9816 36.6837 32.8404C34.0696 34.5082 32.6608 36.8673 32.7389 40.0522C32.8389 44.1801 32.7626 48.3133 32.7626 52.4448V53.4125L50.2466 53.4178ZM29.8867 44.9103C29.8867 43.7565 29.8504 42.6683 29.8867 41.5836C29.9485 40.0842 29.8467 38.5351 30.2067 37.1012C31.2483 32.968 34.3223 30.6249 38.1216 28.927C40.4666 27.8795 42.648 27.977 44.9839 28.9536C50.4757 31.2488 53.1134 35.0027 53.1134 40.8108V44.9015H58.9123V25.1164H24.0969V44.9086L29.8867 44.9103ZM3.7461 25.0969V53.3983H6.62556V52.3703C6.62556 48.2371 6.67647 44.1021 6.60557 39.9636C6.57103 37.9697 7.34543 36.4189 8.96877 35.3554C12.3936 33.1417 12.439 33.124 15.8657 35.3554C17.5017 36.4189 18.2743 37.9679 18.2416 39.9636C18.1725 44.1252 18.2198 48.2938 18.2198 52.4518V53.3983H21.1029V25.127H18.9033V27.8352H16.0457V25.1164H13.8315V27.8458H10.9429V25.1394H8.74154V27.8547H5.88571V25.0969H3.7461ZM64.7967 53.4231V52.3597C64.7967 48.2265 64.8439 44.0915 64.7767 39.953C64.7458 38.0371 65.5165 36.5979 66.9962 35.4387C69.6939 33.3278 71.4136 33.3119 74.1349 35.3944C75.6547 36.5553 76.4509 38.0122 76.42 39.9654C76.3509 44.127 76.3982 48.2956 76.3982 52.4536V53.3983H79.274V25.1306H77.1053V27.8334H74.2149V25.1199H72.0026V27.8423H69.1122V25.1412H66.9126V27.8529H64.055V25.1306H61.9263V53.4231H64.7967ZM24.1205 10.9267V16.5185H58.9141V10.9267H24.1205ZM9.50141 53.3983H15.3494C15.3494 48.6519 15.3621 43.9657 15.3367 39.2795C15.3367 38.3703 13.3589 36.6475 12.4281 36.6404C11.3702 36.6404 9.51959 38.4553 9.50141 39.5365C9.48868 41.0997 9.50141 42.663 9.50141 44.2262V53.3983ZM73.5187 53.4231C73.5187 48.6377 73.5351 43.9497 73.506 39.2618C73.506 38.3206 71.3573 36.5376 70.4974 36.6564C69.1722 36.8336 67.6743 38.5121 67.6743 39.8201C67.6743 44.0738 67.6743 48.3222 67.6743 52.5653C67.6743 52.8471 67.7016 53.1289 67.7161 53.4231H73.5187ZM6.62556 22.2043H21.1029V19.4554H6.62374L6.62556 22.2043ZM76.3982 19.4572H61.919V22.2043H76.3982V19.4572ZM29.8158 53.4107V47.7976H24.0914V53.4107H29.8158ZM58.9214 53.4568V47.81H53.1897V53.4249C53.4515 53.4373 53.6587 53.455 53.8659 53.455L58.9214 53.4568ZM29.8958 8.04655C29.8958 7.27379 29.8413 6.59497 29.9067 5.91969C30.014 4.8474 29.5177 4.10831 28.6815 3.52697C28.3179 3.27175 27.9416 2.98108 27.5235 2.84992C27.1523 2.72486 26.748 2.72988 26.3801 2.8641C24.0714 3.95766 23.4716 5.42519 24.1987 8.03946L29.8958 8.04655ZM58.9814 8.04655C58.9814 7.40495 58.9141 6.81474 58.9941 6.24226C59.194 4.79955 58.4778 3.87436 57.2835 3.21681C56.7672 2.93145 56.2946 2.37847 55.5784 2.78612C54.5622 3.36391 53.386 3.86018 53.1715 5.12743C53.0134 6.06325 53.1406 7.04693 53.1406 8.04655H58.9814ZM24.0787 22.2008H29.8286V19.4572H24.0769L24.0787 22.2008ZM53.177 22.1884H58.9323V19.4394H53.177V22.1884ZM34.9113 22.2238V19.466H32.8444V22.2221L34.9113 22.2238ZM37.9089 19.4394V22.2168H40.0249V19.4377L37.9089 19.4394ZM43.0152 19.4288V22.2043H45.0985V19.427L43.0152 19.4288ZM50.1957 22.2309V19.4518H48.0997V22.2292L50.1957 22.2309Z" fill="#C2202B" stroke="#F8F2F2" stroke-width="0.8"/>
<path d="M50.2539 53.4236H32.7699V52.4559C32.7699 48.3244 32.8462 44.1912 32.7463 40.0634C32.6681 36.8731 34.0769 34.5193 36.691 32.8515C41.1811 29.9874 42.6153 30.1167 47.3145 33.5605C49.3704 35.067 50.3121 37.2382 50.2721 39.8241C50.2085 44.014 50.2539 48.2057 50.2539 52.3956V53.4236Z" stroke="#F8F2F2" stroke-width="0.8"/>
<path d="M29.8966 44.9089H24.0977V25.1167H58.9294V44.9H53.1305V40.8147C53.1305 35.0066 50.4928 31.2438 45.0011 28.9575C42.6651 27.9809 40.4837 27.8834 38.1387 28.9309C34.3394 30.6288 31.2654 32.9719 30.2238 37.1051C29.8602 38.539 29.9657 40.088 29.9039 41.5875C29.8602 42.6668 29.8966 43.7551 29.8966 44.9089ZM32.7615 29.3297C32.76 29.0555 32.6756 28.7879 32.5189 28.5603C32.3621 28.3327 32.1399 28.1552 31.8802 28.0502C31.6204 27.9451 31.3347 27.9172 31.0587 27.9697C30.7828 28.0223 30.5288 28.1531 30.3288 28.3457C30.1287 28.5384 29.9913 28.7843 29.934 29.0527C29.8766 29.3211 29.9017 29.6 30.0061 29.8545C30.1106 30.1091 30.2898 30.3279 30.5212 30.4836C30.7527 30.6393 31.0261 30.7249 31.3072 30.7298C31.688 30.724 32.0517 30.5752 32.3226 30.3144C32.5936 30.0535 32.7508 29.7008 32.7615 29.3297ZM51.6671 30.7281C51.9492 30.7338 52.2267 30.6582 52.4648 30.5106C52.7029 30.363 52.8909 30.1501 53.0052 29.8986C53.1195 29.6471 53.1549 29.3682 53.1071 29.0972C53.0593 28.8261 52.9304 28.5748 52.7365 28.375C52.5426 28.1751 52.2925 28.0356 52.0175 27.9741C51.7425 27.9125 51.455 27.9315 51.1911 28.0288C50.9272 28.1261 50.6988 28.2973 50.5344 28.5209C50.37 28.7445 50.2771 29.0104 50.2674 29.2853C50.2672 29.6541 50.4117 30.009 50.6713 30.2773C50.9309 30.5455 51.2859 30.7068 51.6635 30.7281H51.6671Z" stroke="#F8F2F2" stroke-width="0.8"/>
<path d="M3.74609 25.0972H5.88206V27.855H8.74153V25.1397H10.9539V27.8461H13.8315V25.1167H16.0438V27.8355H18.9015V25.1273H21.1029V53.3986H18.2216V52.461C18.2216 48.2977 18.1743 44.1308 18.2434 39.9728C18.2761 37.9806 17.4963 36.428 15.8675 35.3646C12.4408 33.1349 12.3954 33.1526 8.97058 35.3646C7.33452 36.428 6.56557 37.9753 6.60738 39.9728C6.67828 44.1042 6.62738 48.2392 6.62738 52.3795V53.3986H3.74791L3.74609 25.0972ZM9.4923 32.1867C9.49647 31.9121 9.41732 31.6425 9.26481 31.4117C9.11229 31.1808 8.89321 30.9991 8.63508 30.8893C8.37696 30.7794 8.09131 30.7464 7.81401 30.7944C7.53671 30.8424 7.28013 30.9692 7.07651 31.1589C6.8729 31.3486 6.73133 31.5927 6.66958 31.8606C6.60783 32.1285 6.62866 32.4083 6.72945 32.6647C6.83025 32.9211 7.0065 33.1427 7.23608 33.3017C7.46567 33.4608 7.73835 33.5501 8.01985 33.5585C8.39813 33.5581 8.7618 33.4161 9.0358 33.1618C9.3098 32.9075 9.4732 32.5604 9.4923 32.192V32.1867ZM16.7637 30.7688C16.4813 30.7734 16.2067 30.8593 15.9743 31.0158C15.7419 31.1722 15.5623 31.3923 15.4579 31.6481C15.3536 31.904 15.3293 32.1842 15.388 32.4536C15.4467 32.7229 15.5859 32.9692 15.788 33.1616C15.99 33.3539 16.246 33.4836 16.5235 33.5344C16.8011 33.5852 17.0879 33.5547 17.3477 33.4469C17.6075 33.339 17.8288 33.1586 17.9837 32.9284C18.1386 32.6981 18.2201 32.4284 18.218 32.153C18.2004 31.7855 18.0395 31.4385 17.7681 31.1828C17.4968 30.9272 17.1355 30.7822 16.7582 30.7777L16.7637 30.7688Z" stroke="#F8F2F2" stroke-width="0.8"/>
<path d="M64.7966 53.4233H61.9189V25.1308H64.0476V27.8531H66.9126V25.1414H69.1231V27.8425H72.0025V25.1201H74.2149V27.8336H77.1052V25.1308H79.2739V53.3985H76.3945V52.4715C76.3945 48.3082 76.3472 44.1413 76.4163 39.9833C76.4472 38.0337 75.6509 36.5733 74.1312 35.4123C71.4045 33.3333 69.6902 33.3457 66.9925 35.4567C65.5128 36.6158 64.7421 38.055 64.773 39.9709C64.8402 44.1023 64.7929 48.2373 64.7929 52.3776L64.7966 53.4233ZM66.2145 33.5726C66.4961 33.5763 66.7726 33.4988 67.0092 33.3498C67.2457 33.2009 67.4319 32.987 67.5442 32.7352C67.6565 32.4834 67.69 32.2049 67.6404 31.9345C67.5909 31.6642 67.4605 31.4142 67.2657 31.2159C67.0709 31.0177 66.8203 30.8799 66.5454 30.8201C66.2705 30.7602 65.9837 30.7809 65.7208 30.8795C65.458 30.9781 65.2309 31.1502 65.068 31.3743C64.9052 31.5983 64.814 31.8643 64.8057 32.1388C64.8103 32.5065 64.9587 32.8587 65.2204 33.1235C65.4822 33.3883 65.8378 33.5457 66.2145 33.5638V33.5726ZM76.3945 32.199C76.3983 31.9245 76.3188 31.6549 76.166 31.4242C76.0132 31.1936 75.7938 31.0121 75.5356 30.9026C75.2773 30.7931 74.9916 30.7604 74.7144 30.8088C74.4371 30.8571 74.1807 30.9842 73.9773 31.1741C73.774 31.3641 73.6327 31.6084 73.5713 31.8764C73.5099 32.1444 73.5311 32.4241 73.6322 32.6804C73.7334 32.9366 73.9099 33.1581 74.1397 33.3168C74.3695 33.4756 74.6423 33.5646 74.9238 33.5726C75.3034 33.5697 75.6673 33.4246 75.9401 33.1672C76.2129 32.9098 76.3736 32.56 76.389 32.1902L76.3945 32.199Z" stroke="#F8F2F2" stroke-width="0.8"/>
<path d="M24.1201 10.9271H58.9137V16.5189H24.1201V10.9271Z" stroke="#F8F2F2" stroke-width="0.8"/>
<path d="M9.50098 53.3988V44.225C9.50098 42.6617 9.50098 41.0985 9.50098 39.5353C9.50098 38.4541 11.3697 36.6321 12.4277 36.6392C13.3548 36.6392 15.3363 38.369 15.3363 39.2783C15.3617 43.9644 15.349 48.6506 15.349 53.3971L9.50098 53.3988Z" stroke="#F8F2F2" stroke-width="0.8"/>
<path d="M73.5191 53.4218H67.7183C67.7038 53.1276 67.6765 52.8458 67.6765 52.564C67.6765 48.3102 67.6765 44.0618 67.6765 39.8188C67.6765 38.5107 69.1744 36.8341 70.4996 36.6551C71.3595 36.5363 73.5027 38.3193 73.5082 39.2605C73.5354 43.9484 73.5191 48.6364 73.5191 53.4218Z" stroke="#F8F2F2" stroke-width="0.8"/>
<path d="M6.625 22.2045V19.4556H21.1023V22.2045H6.625Z" stroke="#F8F2F2" stroke-width="0.8"/>
<path d="M76.3981 19.454V22.2047H61.9189V19.454H76.3981Z" stroke="#F8F2F2" stroke-width="0.8"/>
<path d="M29.8162 53.411H24.0918V47.7979H29.8162V53.411Z" stroke="#F8F2F2" stroke-width="0.8"/>
<path d="M58.9143 53.4573H53.8589C53.6516 53.4573 53.4444 53.4396 53.1826 53.4272V47.8105H58.9143V53.4573Z" stroke="#F8F2F2" stroke-width="0.8"/>
<path d="M29.8962 8.04714H24.1936C23.4664 5.43288 24.0754 3.97067 26.375 2.87179C26.7428 2.73757 27.1472 2.73255 27.5184 2.85761C27.9365 2.98876 28.3092 3.27944 28.6764 3.53466C29.5126 4.116 30.0089 4.85508 29.9016 5.92738C29.8416 6.59556 29.8962 7.27439 29.8962 8.04714Z" stroke="#F8F2F2" stroke-width="0.8"/>
<path d="M58.9809 8.04509H53.1402C53.1402 7.04547 53.013 6.0618 53.1711 5.12598C53.3856 3.85873 54.5618 3.36246 55.5779 2.78466C56.2942 2.37701 56.7668 2.92999 57.2831 3.21535C58.4774 3.8729 59.1936 4.79809 58.9937 6.24081C58.9137 6.81329 58.9809 7.40349 58.9809 8.04509Z" stroke="#F8F2F2" stroke-width="0.8"/>
<path d="M24.0781 22.2052V19.458H29.828V22.2052H24.0781Z" stroke="#F8F2F2" stroke-width="0.8"/>
<path d="M53.1768 22.1871V19.4399H58.9321V22.1871H53.1768Z" stroke="#F8F2F2" stroke-width="0.8"/>
<path d="M34.9185 22.2224H32.8516V19.4663H34.9185V22.2224Z" stroke="#F8F2F2" stroke-width="0.8"/>
<path d="M37.9094 19.4381H40.0254V22.2154H37.9094V19.4381Z" stroke="#F8F2F2" stroke-width="0.8"/>
<path d="M43.0155 19.4277H45.0987V22.205H43.0137L43.0155 19.4277Z" stroke="#F8F2F2" stroke-width="0.8"/>
<path d="M50.1885 22.2297H48.0925V19.4523H50.1885V22.2297Z" stroke="#F8F2F2" stroke-width="0.8"/>
<path d="M32.761 29.3297C32.762 29.6044 32.6797 29.8732 32.5245 30.1024C32.3692 30.3316 32.1479 30.511 31.8884 30.618C31.6289 30.7249 31.3428 30.7546 31.066 30.7035C30.7892 30.6523 30.5341 30.5225 30.3327 30.3304C30.1314 30.1382 29.9928 29.8923 29.9344 29.6236C29.876 29.3549 29.9003 29.0753 30.0044 28.8201C30.1085 28.5648 30.2877 28.3453 30.5194 28.189C30.7511 28.0328 31.025 27.9468 31.3067 27.9419C31.6852 27.948 32.0468 28.0952 32.3173 28.3534C32.5878 28.6115 32.7466 28.9609 32.761 29.3297Z" fill="#C2202B" stroke="#F8F2F2" stroke-width="0.8"/>
<path d="M51.6628 30.728C51.3806 30.7235 51.1061 30.6376 50.8738 30.4813C50.6415 30.325 50.4619 30.1052 50.3574 29.8495C50.253 29.5939 50.2284 29.3138 50.2869 29.0446C50.3453 28.7753 50.4841 28.529 50.6858 28.3365C50.8875 28.144 51.1431 28.014 51.4204 27.9628C51.6978 27.9116 51.9844 27.9416 52.2443 28.0489C52.5042 28.1562 52.7258 28.336 52.8811 28.5658C53.0364 28.7956 53.1185 29.0651 53.1171 29.3402C53.1036 29.7093 52.9452 30.0592 52.6745 30.3175C52.4038 30.5758 52.0416 30.7228 51.6628 30.728Z" fill="#C2202B" stroke="#F8F2F2" stroke-width="0.8"/>
<path d="M9.49219 32.1923C9.48718 32.4667 9.39913 32.7336 9.23911 32.9594C9.07909 33.1852 8.85423 33.3599 8.59274 33.4615C8.33126 33.5632 8.04481 33.5873 7.76934 33.5307C7.49387 33.4742 7.24167 33.3396 7.04438 33.1438C6.84709 32.9481 6.71352 32.6998 6.66042 32.4303C6.60732 32.1608 6.63706 31.8819 6.74592 31.6288C6.85477 31.3757 7.03787 31.1596 7.27225 31.0076C7.50664 30.8556 7.78186 30.7745 8.06337 30.7744C8.44227 30.7879 8.80147 30.9424 9.0672 31.2061C9.33293 31.4698 9.48501 31.8227 9.49219 32.1923Z" fill="#C2202B" stroke="#F8F2F2" stroke-width="0.8"/>
<path d="M16.7583 30.7777C17.0403 30.7716 17.3178 30.8469 17.556 30.9941C17.7942 31.1414 17.9825 31.354 18.0971 31.6052C18.2118 31.8565 18.2477 32.1351 18.2004 32.4062C18.1531 32.6773 18.0246 32.9287 17.8312 33.1289C17.6377 33.329 17.388 33.4689 17.1132 33.531C16.8384 33.5931 16.551 33.5747 16.287 33.478C16.0229 33.3813 15.7941 33.2107 15.6292 32.9875C15.4644 32.7644 15.3708 32.4988 15.3604 32.224C15.3584 31.854 15.5025 31.4975 15.7627 31.2283C16.0229 30.959 16.3794 30.7977 16.7583 30.7777Z" fill="#C2202B" stroke="#F8F2F2" stroke-width="0.8"/>
<path d="M66.2149 33.564C65.9336 33.5592 65.66 33.4734 65.4285 33.3175C65.197 33.1617 65.0178 32.9427 64.9135 32.6879C64.8091 32.4332 64.7842 32.1541 64.8419 31.8856C64.8995 31.6171 65.0372 31.3712 65.2377 31.1787C65.4381 30.9862 65.6924 30.8557 65.9686 30.8035C66.2448 30.7513 66.5307 30.7798 66.7904 30.8854C67.05 30.991 67.2719 31.169 67.4283 31.3971C67.5846 31.6251 67.6684 31.8931 67.6692 32.1674C67.6575 32.5379 67.4999 32.8897 67.2291 33.1498C66.9582 33.4099 66.595 33.5583 66.2149 33.564Z" fill="#C2202B" stroke="#F8F2F2" stroke-width="0.8"/>
<path d="M76.3887 32.1904C76.3837 32.4647 76.2957 32.7315 76.1357 32.9573C75.9758 33.183 75.751 33.3577 75.4896 33.4594C75.2283 33.5611 74.9419 33.5853 74.6665 33.5289C74.3911 33.4725 74.1389 33.3381 73.9415 33.1425C73.7441 32.9469 73.6104 32.6988 73.5571 32.4294C73.5038 32.16 73.5333 31.8812 73.6419 31.6281C73.7504 31.3749 73.9333 31.1587 74.1674 31.0065C74.4016 30.8543 74.6766 30.7729 74.958 30.7725C75.3374 30.7851 75.6973 30.9393 75.9635 31.2031C76.2297 31.4669 76.3819 31.8203 76.3887 32.1904Z" fill="#C2202B" stroke="#F8F2F2" stroke-width="0.8"/>
</g>
<defs>
<clipPath id="clip0_20_224">
<rect width="83" height="53" fill="white"/>
</clipPath>
</defs>
</svg>
