<svg width="29" height="20" viewBox="0 0 29 20" fill="none" xmlns="http://www.w3.org/2000/svg">
<path d="M27.4896 3.13522C27.329 2.53256 27.0161 1.98316 26.5821 1.54162C26.1481 1.10008 25.608 0.781784 25.0156 0.618354C22.8209 0.00606528 14.0346 0.00606527 14.0346 0.00606527C10.3651 -0.0380581 6.69662 0.158596 3.05202 0.594805C2.46032 0.766981 1.92211 1.09109 1.4891 1.53598C1.05609 1.98088 0.742842 2.5316 0.579463 3.13522C0.180813 5.40165 -0.0129006 7.70047 0.000748869 10.0029C-0.0136662 12.3053 0.180054 14.6042 0.579463 16.8705C0.740109 17.4732 1.05299 18.0226 1.48701 18.4641C1.92102 18.9056 2.46107 19.2239 3.05346 19.3874C5.27283 19.9982 14.036 19.9982 14.036 19.9982C17.7055 20.0423 21.3739 19.8457 25.0185 19.4094C25.6102 19.2457 26.1496 18.9274 26.583 18.4862C27.0165 18.045 27.329 17.4961 27.4896 16.8941C27.8883 14.6276 28.082 12.3288 28.0684 10.0264C28.0946 7.71573 27.9008 5.40788 27.4896 3.13522Z" fill="#272727"/>
<path d="M11.2363 14.2834L18.5426 10.0018L11.2363 5.72021V14.2834Z" fill="white"/>
</svg>
